<svg width="1920" height="767" viewBox="0 0 1920 767" fill="none" xmlns="http://www.w3.org/2000/svg">
<rect width="1920" height="598" fill="url(#paint0_linear)"/>
<rect x="1749" y="413" width="37" height="37" rx="2" stroke="white" stroke-width="2" stroke-linecap="round"/>
<circle cx="1542" cy="262" r="8" stroke="white" stroke-width="2" stroke-linecap="round"/>
<rect x="184" y="470" width="20" height="20" rx="2" stroke="white" stroke-width="2" stroke-linecap="round"/>
<path d="M1304.74 722L1303.87 722.498L1304.74 724.006L1305.61 722.499L1304.74 722ZM1157 464.861L1156.78 463.885L1155.46 464.184L1156.13 465.359L1157 464.861ZM1236.48 446.893L1237.35 446.397L1236.98 445.754L1236.26 445.918L1236.48 446.893ZM1309.49 574.619L1308.62 575.115L1309.49 576.631L1310.36 575.117L1309.49 574.619ZM1404.67 408.871L1404.45 407.895L1404.03 407.992L1403.81 408.373L1404.67 408.871ZM1497 388L1497.87 388.499L1499 386.522L1496.78 387.025L1497 388ZM1372 766V767H1373V766H1372ZM1234 766H1233V767H1234V766ZM1234 747L1234.05 746.002L1233 745.943V747H1234ZM1372 754.6H1373V753.653L1372.05 753.601L1372 754.6ZM1305.61 721.502L1157.87 464.362L1156.13 465.359L1303.87 722.498L1305.61 721.502ZM1157.22 465.836L1236.7 447.868L1236.26 445.918L1156.78 463.885L1157.22 465.836ZM1235.61 447.389L1308.62 575.115L1310.36 574.123L1237.35 446.397L1235.61 447.389ZM1310.36 575.117L1405.54 409.369L1403.81 408.373L1308.62 574.121L1310.36 575.117ZM1404.9 409.846L1497.22 388.975L1496.78 387.025L1404.45 407.895L1404.9 409.846ZM1496.13 387.501L1303.87 721.501L1305.61 722.499L1497.87 388.499L1496.13 387.501ZM1372 765H1234V767H1372V765ZM1235 766V747H1233V766H1235ZM1233.95 747.998L1371.95 755.598L1372.05 753.601L1234.05 746.002L1233.95 747.998ZM1371 754.6V766H1373V754.6H1371Z" fill="white"/>
<defs>
<linearGradient id="paint0_linear" x1="-960" y1="299" x2="-620.436" y2="1389.24" gradientUnits="userSpaceOnUse">
<stop stop-color="#009EFF"/>
<stop offset="1" stop-color="#30CCC6"/>
</linearGradient>
</defs>
</svg>
