<?xml version="1.0" encoding="UTF-8"?>
<svg width="446px" height="378px" viewBox="0 0 446 378" version="1.1" xmlns="http://www.w3.org/2000/svg" xmlns:xlink="http://www.w3.org/1999/xlink">
    <title>Group 4</title>
    <defs>
        <linearGradient x1="38.8399777%" y1="0%" x2="61.1600223%" y2="100%" id="linearGradient-1">
            <stop stop-color="#009EFF" offset="0%"></stop>
            <stop stop-color="#30CCC6" offset="100%"></stop>
        </linearGradient>
        <linearGradient x1="39.0136719%" y1="0%" x2="60.9863281%" y2="100%" id="linearGradient-2">
            <stop stop-color="#009EFF" offset="0%"></stop>
            <stop stop-color="#30CCC6" offset="100%"></stop>
        </linearGradient>
    </defs>
    <g id="Desktop" stroke="none" stroke-width="1" fill="none" fill-rule="evenodd">
        <g id="Application" transform="translate(-1475.000000, -1521.000000)">
            <g id="Group-4" transform="translate(1477.000000, 1523.000000)">
                <g id="Group" transform="translate(255.000000, 325.000000) scale(-1, 1) translate(-255.000000, -325.000000) translate(67.000000, 275.000000)">
                    <circle id="Oval-Copy-5" fill="#F5F5F5" transform="translate(173.500000, 33.500000) scale(-1, 1) translate(-173.500000, -33.500000) " cx="173.5" cy="33.5" r="33.5"></circle>
                    <path d="M12.7279207,34.3420393 L12.75,99.7919854 M3.061617e-17,48.5 L189,48.5" id="Combined-Shape-Copy-5" stroke="#262332" stroke-width="2" stroke-linecap="round" transform="translate(94.500000, 67.000000) scale(-1, 1) translate(-94.500000, -67.000000) "></path>
                    <circle id="Oval-Copy-6" stroke="#262332" stroke-width="2" stroke-linecap="round" cx="365.5" cy="83.5" r="10"></circle>
                </g>
                <g id="Group-9">
                    <polygon id="Fill-1" fill="#FFFFFF" points="64 160 17 160 29.901751 230 64 230 98.0972763 230 111 160"></polygon>
                    <polygon id="Stroke-2" stroke="#262332" stroke-width="2" stroke-linecap="round" points="63.9995136 160 17 160 29.9009117 230 63.9995136 230 98.0981155 230 111 160"></polygon>
                    <path d="M117.786582,33 C117.786582,33 118.521607,49.900447 120.727661,59.2634123 C122.934692,68.6263777 111.011055,84.7670913 110.721736,92.1095714 C110.433395,99.4530169 112.638471,114.583971 106.021287,121.119415 C99.4021484,127.65679 94.2960672,132.232567 91.3549879,142.229769 C88.4129312,152.228903 69.2533977,160 69.2533977,160 C69.2533977,160 61,146.660743 61,139.398387 C61,132.135066 68.2642411,118.228181 67.7823693,106.594703 C67.0864409,89.8110643 78.1176875,81.1412229 81.0597442,72.3217516 C84.001801,63.5032457 88.0043665,50.6717645 95.3585309,46.314158 C102.711718,41.9565515 110.433395,38.5691254 117.786582,33" id="Fill-4" fill="url(#linearGradient-1)"></path>
                    <path d="M112.786582,33 C112.786582,33 113.521607,49.900447 115.727661,59.2634123 C117.934692,68.6263777 106.011055,84.7670913 105.721736,92.1095714 C105.433395,99.4530169 107.638471,114.583971 101.021287,121.119415 C94.4021484,127.65679 89.2960672,132.232567 86.3549879,142.229769 C83.4129312,152.228903 64.2533977,160 64.2533977,160 C64.2533977,160 56,146.660743 56,139.398387 C56,132.135066 63.2642411,118.228181 62.7823693,106.594703 C62.0864409,89.8110643 73.1176875,81.1412229 76.0597442,72.3217516 C79.001801,63.5032457 83.0043665,50.6717645 90.3585309,46.314158 C97.7117179,41.9565515 105.433395,38.5691254 112.786582,33 Z" id="Stroke-6" stroke="#262332" stroke-width="2" stroke-linecap="round"></path>
                    <path d="M65,160 C65,160 73.357346,112.281262 98,55" id="Stroke-8" stroke="#262332" stroke-width="2" stroke-linecap="round"></path>
                    <path d="M9.01749833,0 C9.01749833,0 8.09864669,21.2925113 5.34015123,33.088095 C2.58262605,44.8846446 17.4860697,65.2190605 17.8479827,74.4697034 C18.2098958,83.7213121 15.4514003,102.782775 23.7239759,111.017373 C31.9975217,119.252937 38.3809693,125.016962 42.0583164,137.613212 C45.7346932,150.209463 69.6849929,160 69.6849929,160 C69.6849929,160 80,143.194698 80,134.0445 C80,124.894303 70.9211249,107.374292 71.5236664,92.7179438 C72.393034,71.5722374 58.6034675,60.6507226 54.9261204,49.5399066 C51.2497436,38.4290906 46.2450586,22.2641282 37.0536314,16.7743961 C27.8612339,11.284664 18.2098958,7.01573083 9.01749833,0" id="Fill-10" fill="url(#linearGradient-2)"></path>
                    <path d="M4.01749833,0 C4.01749833,0 3.09864669,21.2925113 0.340151231,33.088095 C-2.41737395,44.8846446 12.4860697,65.2190605 12.8479827,74.4697034 C13.2098958,83.7213121 10.4514003,102.782775 18.7239759,111.017373 C26.9975217,119.252937 33.3809693,125.016962 37.0583164,137.613212 C40.7346932,150.209463 64.6849929,160 64.6849929,160 C64.6849929,160 75,143.194698 75,134.0445 C75,124.894303 65.9211249,107.374292 66.5236664,92.7179438 C67.393034,71.5722374 53.6034675,60.6507226 49.9261204,49.5399066 C46.2497436,38.4290906 41.2450586,22.2641282 32.0536314,16.7743961 C22.8612339,11.284664 13.2098958,7.01573083 4.01749833,0 Z" id="Stroke-12" stroke="#262332" stroke-width="2" stroke-linecap="round"></path>
                    <path d="M22,28 C53.3620438,100.011068 64,160 64,160" id="Stroke-14" stroke="#262332" stroke-width="2" stroke-linecap="round"></path>
                    <line x1="60" y1="137" x2="50" y2="131" id="Stroke-16" stroke="#262332" stroke-width="2" stroke-linecap="round"></line>
                    <line x1="47" y1="94" x2="27" y2="86" id="Stroke-18" stroke="#262332" stroke-width="2" stroke-linecap="round"></line>
                    <line x1="31" y1="50" x2="22" y2="47" id="Stroke-20" stroke="#262332" stroke-width="2" stroke-linecap="round"></line>
                    <line x1="37" y1="65" x2="41" y2="54" id="Stroke-22" stroke="#262332" stroke-width="2" stroke-linecap="round"></line>
                    <line x1="55" y1="116" x2="60" y2="107" id="Stroke-24" stroke="#262332" stroke-width="2" stroke-linecap="round"></line>
                    <line x1="29" y1="170.5" x2="109" y2="170.5" id="Stroke-28" stroke="#262332" stroke-width="2" stroke-linecap="round"></line>
                    <line x1="99" y1="225.5" x2="30" y2="225.5" id="Stroke-32" stroke="#262332" stroke-width="2" stroke-linecap="round"></line>
                </g>
                <line x1="202" y1="230.5" x2="20" y2="230.5" id="Path-15" stroke="#262332" stroke-width="2" stroke-linecap="round"></line>
            </g>
        </g>
    </g>
</svg>