<svg width="40" height="40" viewBox="0 0 40 40" fill="none" xmlns="http://www.w3.org/2000/svg">
<path fill-rule="evenodd" clip-rule="evenodd" d="M22.0987 8.96641C22.3936 8.19226 23.2602 7.80376 24.0344 8.09867C24.763 8.37624 25.15 9.16026 24.9471 9.89696L24.9021 10.0344L16.9021 31.0344C16.6072 31.8086 15.7406 32.1971 14.9664 31.9021C14.2378 31.6246 13.8508 30.8405 14.0537 30.1039L14.0987 29.9664L22.0987 8.96641ZM8.96757 10.472C9.53535 9.8687 10.4847 9.83993 11.0879 10.4077C11.6535 10.94 11.7141 11.8076 11.2516 12.4111L11.1522 12.5281L4.11987 20L11.1522 27.472C11.6845 28.0375 11.6924 28.9072 11.1943 29.4816L11.0879 29.5923C10.5224 30.1246 9.65266 30.1326 9.07833 29.6344L8.96757 29.5281L0 20L8.96757 10.472ZM28.912 10.4077C29.5152 9.83993 30.4645 9.8687 31.0323 10.472L39.9999 20L31.0323 29.5281L30.9216 29.6344C30.3472 30.1326 29.4775 30.1246 28.912 29.5923L28.8056 29.4816C28.3074 28.9072 28.3154 28.0375 28.8477 27.472L35.88 20L28.8477 12.5281L28.7482 12.4111C28.2858 11.8076 28.3464 10.94 28.912 10.4077Z" fill="url(#paint0_linear)"/>
<defs>
<linearGradient id="paint0_linear" x1="-19.9999" y1="20.0004" x2="1.17761" y2="55.295" gradientUnits="userSpaceOnUse">
<stop stop-color="#009EFF"/>
<stop offset="1" stop-color="#30CCC6"/>
</linearGradient>
</defs>
</svg>
