<svg width="40" height="40" viewBox="0 0 40 40" fill="none" xmlns="http://www.w3.org/2000/svg">
<path fill-rule="evenodd" clip-rule="evenodd" d="M19.0061 0.342453L2.45996 8.87405L2.58488 10.439C4.03181 27.5058 9.57788 37.4508 19.3942 39.8895C19.5821 39.9663 19.7868 40.0055 19.9969 40.0002C20.2071 40.0055 20.4118 39.9663 20.5996 39.8895C30.416 37.4508 35.9621 27.5058 37.409 10.439L37.5339 8.87405L20.9878 0.342453C20.7094 0.113243 20.3562 -0.0080952 19.9969 0.000419524C19.6377 -0.00809516 19.2845 0.113243 19.0061 0.342453ZM19.9969 36.9474C28.1175 34.8516 32.9631 26.2381 34.3709 10.7417L34.3813 10.6233L19.9969 3.20685L5.61258 10.6233L5.62293 10.7417C7.03082 26.2381 11.8764 34.8516 19.9969 36.9474ZM25.9338 13.9449C26.5165 13.3561 27.4662 13.3511 28.055 13.9338C28.6071 14.4801 28.646 15.349 28.1685 15.9406L28.0662 16.0551L18.0864 26.14L12.9265 20.853C12.3479 20.2602 12.3594 19.3105 12.9523 18.7319C13.5081 18.1894 14.3775 18.1657 14.9608 18.6533L15.0734 18.7577L18.1 21.859L25.9338 13.9449Z" fill="url(#paint0_linear)"/>
<defs>
<linearGradient id="paint0_linear" x1="-15.077" y1="20.0003" x2="24.5806" y2="54.7735" gradientUnits="userSpaceOnUse">
<stop stop-color="#009EFF"/>
<stop offset="1" stop-color="#30CCC6"/>
</linearGradient>
</defs>
</svg>
