<svg width="40" height="40" viewBox="0 0 40 40" fill="none" xmlns="http://www.w3.org/2000/svg">
<path fill-rule="evenodd" clip-rule="evenodd" d="M20.011 0.00188009L20.1241 0.000457147C20.4219 0.00472347 20.77 0.0477443 21.1595 0.150842C21.8523 0.334192 22.5326 0.676623 23.1563 1.20762C23.219 1.26085 23.24 1.28916 23.2487 1.30094C23.2522 1.30567 23.2538 1.30773 23.2552 1.30767C23.2564 1.30763 23.2574 1.30631 23.2593 1.30397C23.2608 1.30222 23.2627 1.29989 23.2654 1.29709C23.9912 0.556051 25.2771 -0.0941031 26.7228 0.0128573C28.763 0.165359 30.9257 1.60296 30.3395 3.49666L28.6296 9H29.5652C30.3576 9 31 9.67157 31 10.5C31 11.2797 30.431 11.9204 29.7034 11.9931L29.5652 12H28.3491L34.9081 21.7103C35.1279 22.0403 35.3984 22.5193 35.671 23.13L35.7878 23.3998C37.1509 26.6448 37.1803 30.2425 34.9776 33.7331C31.9376 38.5512 27.4682 39.9678 20.6937 39.9966L19.2859 39.9966C12.5179 39.9678 8.0485 38.5512 5.00848 33.7332C2.80577 30.2425 2.83514 26.6448 4.19825 23.3998C4.54823 22.5666 4.9062 21.9472 5.14797 21.6082L11.6357 12H10.4348C9.64237 12 9 11.3284 9 10.5C9 9.7203 9.56902 9.07955 10.2966 9.00687L10.4348 9H11.3554L9.64611 3.49526C9.07756 1.65862 11.0982 0.250317 13.0841 0.0295433L13.2644 0.0127655C14.7098 -0.0940784 15.9944 0.555634 16.7206 1.29709L16.732 1.30731C16.7331 1.30653 16.7346 1.30452 16.7372 1.30107C16.7458 1.28943 16.7665 1.26135 16.8286 1.20857C17.4737 0.659302 18.177 0.312674 18.8901 0.134341C19.3283 0.0247662 19.7097 -0.00879679 20.011 0.00188009ZM15.2572 12L7.61321 23.3173C7.47094 23.5173 7.22154 23.9488 6.96414 24.5616C5.94932 26.9775 5.92817 29.5691 7.54561 32.1323C9.88407 35.8384 13.4599 36.9718 19.2923 36.9966L20.6873 36.9967C26.5261 36.9718 30.102 35.8384 32.4405 32.1322C34.0579 29.5691 34.0367 26.9775 33.0219 24.5616C32.7645 23.9488 32.5151 23.5173 32.352 23.2872L24.7288 12H15.2572ZM25.4886 9H14.4974L12.7058 3.23328L12.8248 3.1763C13.0364 3.08462 13.275 3.02035 13.4868 3.00451C13.7232 2.98704 13.9778 3.04908 14.2329 3.17809C14.4085 3.26689 14.5587 3.37713 14.5774 3.39628C15.5334 4.37237 17.0825 4.80044 18.6035 3.63038L18.7723 3.49375C19.1934 3.13527 19.5875 3.01138 19.8265 2.99969L20.0639 3.00028C20.1169 2.99829 20.2328 3.00887 20.392 3.05098C20.6656 3.12341 20.9424 3.2627 21.2126 3.4928C22.7879 4.83139 24.4172 4.40852 25.4086 3.39628L25.4671 3.35112C25.5302 3.30625 25.6362 3.23743 25.7534 3.17818C26.0086 3.04911 26.2632 2.98705 26.5004 3.0046L26.6629 3.02519C26.8289 3.05422 27.0027 3.10755 27.1613 3.17631L27.2798 3.23328L25.4886 9ZM21.48 33.79V31.036C23.748 30.73 25.44 29.434 25.44 27.22C25.44 24.5175 23.0824 23.8468 21.1764 23.3046C19.8833 22.9367 18.798 22.628 18.798 21.784C18.798 21.208 19.32 20.92 20.112 20.92C21.156 20.92 22.848 21.514 24.18 22.27L25.422 19.66C24.36 18.976 22.956 18.472 21.48 18.31V15.682H19.086V18.328C16.782 18.706 15.342 20.092 15.342 22.09C15.342 24.7272 17.6601 25.3541 19.5574 25.8672C20.8717 26.2226 21.984 26.5234 21.984 27.4C21.984 28.066 21.372 28.426 20.4 28.426C19.086 28.426 17.124 27.634 15.828 26.518L14.55 29.092C15.756 30.082 17.394 30.784 19.086 31.018V33.79H21.48Z" fill="url(#paint0_linear)"/>
<defs>
<linearGradient id="paint0_linear" x1="-13.493" y1="19.9983" x2="25.8806" y2="52.9627" gradientUnits="userSpaceOnUse">
<stop stop-color="#009EFF"/>
<stop offset="1" stop-color="#30CCC6"/>
</linearGradient>
</defs>
</svg>
