<svg width="40" height="40" viewBox="0 0 40 40" fill="none" xmlns="http://www.w3.org/2000/svg">
<path fill-rule="evenodd" clip-rule="evenodd" d="M19.9928 0C29.6023 0 37.4396 7.73052 37.6126 17.2995L37.6155 17.6227V26.9785C37.6155 29.0188 36.008 30.6901 33.9928 30.7926L33.7965 30.7975H33.0136L33.0143 31.5798C33.0143 34.8045 30.5079 37.4542 27.3407 37.6833L27.1187 37.6953L26.8947 37.6994L23.494 37.6991L23.4404 37.8221C22.8741 39.0096 21.7271 39.8343 20.4054 39.9777L20.1953 39.9947L19.9928 40C17.8867 40 16.1738 38.2871 16.1738 36.181C16.1738 34.0748 17.8867 32.362 19.9928 32.362C21.4142 32.362 22.6888 33.1496 23.3464 34.3558L23.4404 34.5399L23.494 34.6621L26.8947 34.6626C27.9413 34.6626 28.8877 34.1329 29.4484 33.3049L29.5554 33.1354L29.5868 33.0758L29.4217 33.0915L29.1953 33.0982C27.155 33.0982 25.4837 31.4907 25.3812 29.4754L25.3763 29.2791V19.9233C25.3763 17.8172 27.0891 16.1043 29.1953 16.1043C30.6166 16.1043 31.8912 16.8919 32.5489 18.0982L32.6429 18.2822L32.6965 18.4039L33.7965 18.4049C33.9716 18.4049 34.1453 18.4169 34.3167 18.4405L34.5782 18.4864L34.5787 17.6227C34.5787 9.78794 28.3686 3.37558 20.6124 3.0498L20.3014 3.04003L19.9928 3.03681C12.0536 3.03681 5.57496 9.41366 5.41014 17.3141L5.40693 17.6227L5.40619 18.4864C5.5238 18.4617 5.63927 18.443 5.75458 18.4297L5.92767 18.4138L6.18914 18.4049H7.28693L7.34278 18.2822C7.90912 17.0947 9.05607 16.27 10.3778 16.1266L10.5879 16.1096L10.7904 16.1043C12.8307 16.1043 14.5019 17.7118 14.6044 19.7271L14.6094 19.9233V29.2791C14.6094 31.3853 12.8965 33.0982 10.7904 33.0982C9.36899 33.0982 8.0944 32.3105 7.43675 31.1043L7.34278 30.9203L7.28791 30.7975H6.18914C4.21464 30.7975 2.58576 29.2921 2.38987 27.3685L2.3751 27.1748L2.37012 26.9785V17.6227C2.37012 7.90522 10.2753 0 19.9928 0ZM19.9928 35.3988C19.5618 35.3988 19.2106 35.75 19.2106 36.181C19.2106 36.612 19.5618 36.9632 19.9928 36.9632C20.4238 36.9632 20.775 36.612 20.775 36.181C20.775 35.75 20.4238 35.3988 19.9928 35.3988ZM10.0143 19.8254C10.0627 19.4404 10.3925 19.1411 10.7904 19.1411C11.2213 19.1411 11.5726 19.4923 11.5726 19.9233V29.2791L11.5665 29.3771C11.5181 29.7621 11.1882 30.0613 10.7904 30.0613C10.3594 30.0613 10.0082 29.7101 10.0082 29.2791V19.9233L10.0143 19.8254ZM29.1953 19.1411C28.7974 19.1411 28.4676 19.4404 28.4192 19.8254L28.4131 19.9233V29.2791C28.4131 29.7101 28.7643 30.0613 29.1953 30.0613C29.5931 30.0613 29.923 29.7621 29.9714 29.3771L29.9775 29.2791V19.9233C29.9775 19.4923 29.6263 19.1411 29.1953 19.1411ZM6.18914 21.4417L6.97085 21.441V27.7605L6.18914 27.7607L6.09122 27.7546C5.7062 27.7062 5.40693 27.3764 5.40693 26.9785V22.2239L5.41304 22.126C5.46143 21.741 5.7913 21.4417 6.18914 21.4417ZM33.7965 21.4417L33.0136 21.441V27.7605L33.7965 27.7607C34.1943 27.7607 34.5242 27.4615 34.5726 27.0764L34.5787 26.9785V22.2239C34.5787 21.8261 34.2794 21.4962 33.8944 21.4478L33.7965 21.4417Z" fill="url(#paint0_linear)"/>
<defs>
<linearGradient id="paint0_linear" x1="-15.2526" y1="20" x2="24.4293" y2="54.9651" gradientUnits="userSpaceOnUse">
<stop stop-color="#009EFF"/>
<stop offset="1" stop-color="#30CCC6"/>
</linearGradient>
</defs>
</svg>
