<?xml version="1.0" encoding="UTF-8"?>
<svg width="400px" height="335px" viewBox="0 0 400 335" version="1.1" xmlns="http://www.w3.org/2000/svg" xmlns:xlink="http://www.w3.org/1999/xlink">
    <title>04A490AF-A5A9-46E1-A8FC-F801DC4D5A5B</title>
    <defs>
        <polygon id="path-1" points="0.0002 0.00045130894 399.431 0.00045130894 399.431 334.624 0.0002 334.624"></polygon>
    </defs>
    <g id="Desktop" stroke="none" stroke-width="1" fill="none" fill-rule="evenodd">
        <g id="Careers" transform="translate(-1097.000000, -434.000000)">
            <g id="Group-3" transform="translate(1097.000000, 434.000000)">
                <mask id="mask-2" fill="white">
                    <use xlink:href="#path-1"></use>
                </mask>
                <g id="Clip-2"></g>
                <path d="M159.0012,74.0133 C158.6782,74.0133 158.3622,73.8573 158.1692,73.5703 C157.8782,73.1383 155.2262,69.4273 151.5422,71.8033 C151.0782,72.1023 150.4602,71.9683 150.1602,71.5053 C149.8602,71.0413 149.9942,70.4223 150.4582,70.1223 C154.7832,67.3303 158.4812,70.4303 159.8332,72.4593 C160.1392,72.9193 160.0142,73.5393 159.5542,73.8463 C159.3842,73.9593 159.1912,74.0133 159.0012,74.0133 L159.0012,74.0133 Z M218.3492,118.0313 C214.8662,118.0313 211.6592,115.9843 211.4552,115.8513 C210.9932,115.5513 210.8622,114.9323 211.1622,114.4693 C211.4612,114.0083 212.0802,113.8723 212.5442,114.1743 C212.6062,114.2143 218.8032,118.1493 222.2602,114.3413 C222.6322,113.9313 223.2652,113.9023 223.6722,114.2723 C224.0822,114.6433 224.1122,115.2763 223.7412,115.6853 C222.1412,117.4493 220.2062,118.0313 218.3492,118.0313 L218.3492,118.0313 Z M312.7682,283.0163 C312.0932,283.0163 311.4072,283.1283 310.7302,283.3553 C308.7022,284.0363 306.9522,285.6613 305.9282,287.8163 C303.9992,291.8753 305.1732,296.6063 308.5462,298.3613 C309.9782,299.1043 311.6562,299.2133 313.2702,298.6713 C315.2982,297.9913 317.0492,296.3653 318.0732,294.2113 C320.0022,290.1513 318.8272,285.4203 315.4532,283.6663 C314.6222,283.2343 313.7062,283.0163 312.7682,283.0163 L312.7682,283.0163 Z M311.2302,301.0123 C309.9752,301.0123 308.7462,300.7173 307.6252,300.1353 C303.3062,297.8893 301.7352,291.9783 304.1222,286.9563 C305.3762,284.3163 307.5532,282.3123 310.0942,281.4593 C312.2282,280.7423 314.4602,280.8963 316.3752,281.8913 C320.6942,284.1363 322.2662,290.0483 319.8792,295.0713 C318.6242,297.7113 316.4472,299.7143 313.9072,300.5673 C313.0212,300.8643 312.1192,301.0123 311.2302,301.0123 L311.2302,301.0123 Z M51.0732,314.6283 C50.5212,314.6283 50.0732,314.1813 50.0732,313.6283 L50.0732,284.6513 C50.0732,284.0983 50.5212,283.6513 51.0732,283.6513 C51.6252,283.6513 52.0732,284.0983 52.0732,284.6513 L52.0732,313.6283 C52.0732,314.1813 51.6252,314.6283 51.0732,314.6283 L51.0732,314.6283 Z M51.0732,324.7933 C50.5212,324.7933 50.0732,324.3463 50.0732,323.7933 L50.0732,318.4693 C50.0732,317.9163 50.5212,317.4693 51.0732,317.4693 C51.6252,317.4693 52.0732,317.9163 52.0732,318.4693 L52.0732,323.7933 C52.0732,324.3463 51.6252,324.7933 51.0732,324.7933 L51.0732,324.7933 Z M6.9352,283.2783 C4.2142,283.2783 2.0002,285.3263 2.0002,287.8443 L2.0002,310.9913 C2.0002,313.5083 4.2142,315.5573 6.9352,315.5573 L11.2262,315.5573 L11.2262,283.2783 L6.9352,283.2783 Z M58.9982,334.6233 C58.4452,334.6233 57.9982,334.1763 57.9982,333.6233 L57.9982,274.0133 L13.2282,274.0133 L13.2282,333.6233 C13.2282,334.1763 12.7802,334.6233 12.2282,334.6233 C11.6752,334.6233 11.2282,334.1763 11.2282,333.6233 L11.2282,317.5573 L6.9352,317.5573 C3.1112,317.5573 0.0002,314.6123 0.0002,310.9913 L0.0002,287.8443 C0.0002,284.2233 3.1112,281.2783 6.9352,281.2783 L11.2282,281.2783 L11.2282,272.0133 L59.9982,272.0133 L59.9982,333.6233 C59.9982,334.1763 59.5502,334.6233 58.9982,334.6233 L58.9982,334.6233 Z M165.7132,80.0133 L167.2392,80.0133 C167.2282,79.2743 167.2042,78.1843 167.1522,76.9503 C167.0282,73.9713 166.7452,70.1283 166.0962,68.3483 L166.0952,68.3483 C166.0942,68.3453 166.0932,68.3433 166.0922,68.3403 C165.6292,67.0763 164.6752,62.5523 164.6752,57.9993 C164.6752,54.3503 165.2882,50.6823 167.2572,48.6563 C168.3372,47.5443 170.3272,46.4523 173.6642,47.5663 C176.6702,48.5703 179.3762,49.4973 181.8732,50.3523 C189.5432,52.9813 195.0862,54.8803 201.3162,56.2753 C202.9292,56.6363 204.0172,56.4933 204.5482,55.8523 C204.9262,55.3963 205.0692,54.7033 205.0692,53.9183 C205.0702,52.0423 204.2472,49.6383 203.8292,48.6703 L202.5432,45.7003 L205.2802,47.4283 C205.2832,47.4303 205.2882,47.4323 205.2952,47.4373 C205.2962,47.4383 205.2982,47.4393 205.2992,47.4393 C205.3022,47.4413 205.3062,47.4443 205.3102,47.4463 C205.3142,47.4493 205.3182,47.4513 205.3232,47.4543 C206.4482,48.1523 228.7672,61.7943 236.2992,52.5413 L237.6122,50.9283 L238.0522,52.9613 C238.1612,53.4623 240.3362,63.6333 240.5292,73.0333 C241.3292,71.8183 242.3292,70.4413 243.4822,68.8543 C249.0552,61.1853 258.3832,48.3483 262.2802,28.3463 C264.1262,18.8663 262.3802,11.4493 257.2332,6.8973 C251.3582,1.7023 241.3782,0.5423 231.1852,3.8643 C222.0752,6.8343 208.2412,9.6283 196.0362,12.0933 C185.3162,14.2583 175.1902,16.3033 170.6882,18.0003 C153.3562,24.5333 147.1962,40.7573 153.3012,63.7213 C155.4792,63.9373 161.3932,64.8493 162.4842,68.4323 C163.3892,71.3983 165.1262,77.8293 165.7132,80.0133 L165.7132,80.0133 Z M187.4552,129.1433 C196.8422,132.8303 210.3692,136.1693 215.5662,132.2413 C231.6922,120.0613 236.9102,95.9933 238.4292,77.7313 L238.4292,77.7293 C238.9982,69.8083 237.2472,59.3693 236.4592,55.2083 C228.5552,61.7353 212.7002,53.9483 206.6252,50.5403 C206.6232,50.5393 206.6202,50.5373 206.6182,50.5363 C206.6002,50.5263 206.5822,50.5163 206.5642,50.5063 C206.8352,51.5253 207.0602,52.7183 207.0602,53.8683 C207.0602,55.0873 206.8072,56.2593 206.0892,57.1273 C205.0382,58.3953 203.2852,58.7653 200.8792,58.2263 L200.8782,58.2263 C195.0622,56.9243 189.8772,55.2043 183.0852,52.8823 C182.4782,52.6743 181.8582,52.4623 181.2242,52.2443 C178.7322,51.3903 176.0312,50.4653 173.0302,49.4633 C171.1152,48.8233 169.6962,49.0153 168.6912,50.0503 C167.1712,51.6153 166.6802,54.7373 166.6802,57.9493 C166.6802,62.0703 167.4892,66.3383 167.9702,67.6513 C167.9712,67.6553 167.9732,67.6583 167.9742,67.6613 C167.9742,67.6623 167.9752,67.6633 167.9752,67.6643 C167.9762,67.6663 167.9772,67.6683 167.9782,67.6713 C167.9782,67.6723 167.9782,67.6743 167.9792,67.6753 C167.9802,67.6773 167.9802,67.6793 167.9812,67.6813 C167.9812,67.6823 167.9822,67.6833 167.9822,67.6853 C167.9832,67.6873 167.9842,67.6893 167.9842,67.6913 C167.9852,67.6923 167.9852,67.6933 167.9862,67.6953 C167.9872,67.6973 167.9872,67.6993 167.9882,67.7013 C167.9892,67.7023 167.9892,67.7033 167.9892,67.7043 C167.9902,67.7073 167.9912,67.7093 167.9922,67.7113 C167.9922,67.7123 167.9932,67.7133 167.9932,67.7143 L167.9962,67.7213 C167.9962,67.7223 167.9962,67.7233 167.9972,67.7243 C167.9982,67.7273 167.9982,67.7293 167.9992,67.7323 C168.0002,67.7333 168.0002,67.7333 168.0002,67.7343 C168.0012,67.7373 168.0022,67.7403 168.0032,67.7433 C168.0032,67.7433 168.0032,67.7433 168.0032,67.7443 C168.6302,69.5373 168.9422,72.8393 169.0972,75.7173 C169.2012,77.6503 169.2332,79.3813 169.2442,80.3093 C169.2472,80.5403 169.2482,80.7303 169.2492,80.8703 L169.2492,82.0133 L164.1782,82.0133 L163.9802,81.2713 C163.9572,81.1843 161.6552,72.5683 160.5712,69.0153 C159.8392,66.6123 154.3332,65.7663 152.4622,65.6603 L151.7452,65.6193 L151.6332,65.2113 C148.3132,65.8543 145.3592,68.0693 143.9592,71.0243 C142.2042,74.7263 142.8982,79.3283 145.9132,83.9823 C153.4732,95.6513 157.5662,96.9313 159.3412,96.6593 C161.4232,96.3363 162.1932,93.6093 162.2252,93.4933 L164.1882,93.8433 C164.1662,94.0563 162.4442,113.0263 177.7992,124.1243 C180.3772,125.8873 183.6122,127.5683 187.4552,129.1433 L187.4552,129.1433 Z M176.0052,153.1343 L205.7402,156.6993 L207.4782,136.0003 C207.2412,135.9933 207.0032,135.9833 206.7632,135.9713 C202.0582,135.7513 196.9182,134.6823 191.4552,132.7863 C189.8372,132.2253 188.2992,131.6473 186.8422,131.0533 C185.4422,130.5043 184.1602,129.9593 183.0412,129.4503 C181.2132,128.6183 179.5452,127.6973 178.0212,126.7043 L176.0052,153.1343 Z M124.7482,283.1903 L134.6782,286.8003 L134.6782,249.8753 C131.6932,260.8733 126.2622,278.3483 124.7482,283.1903 L124.7482,283.1903 Z M236.9662,269.2733 L229.3912,315.7553 L254.1032,248.6223 L241.8472,239.3243 L236.9882,269.1743 C236.9822,269.2073 236.9752,269.2413 236.9662,269.2733 L236.9662,269.2733 Z M171.2712,322.5543 C173.0912,322.6063 174.9432,322.6523 176.8272,322.6963 C176.8992,322.4273 176.9872,322.0923 177.0902,321.7003 L177.1992,321.2743 C177.2132,321.2163 177.2312,321.1613 177.2482,321.1113 L181.0982,305.8053 L122.2682,284.4163 L122.5542,283.5033 C127.4272,267.9703 134.6782,243.8323 134.6782,241.0033 L136.6782,241.0033 L136.6782,287.0303 L183.4782,304.5423 L187.4642,305.4463 C194.2102,303.1723 209.4462,298.2383 211.8312,299.1613 C213.8542,299.9383 222.6162,310.7733 227.0842,317.4783 L242.0132,225.8523 C242.1022,225.3083 242.6072,224.9393 243.1622,225.0263 C243.7072,225.1153 244.0772,225.6283 243.9882,226.1743 L242.2102,237.0893 L254.8252,246.6593 L255.4292,245.0133 L315.9992,245.0133 L244.7582,172.2813 L205.8122,158.7333 L175.0102,155.0293 L114.7282,171.1983 C113.3732,174.1203 105.2202,191.9043 97.1172,213.6593 C85.4572,244.9673 79.1942,270.2493 79.0082,286.7753 C78.7622,308.4633 88.7922,313.7503 111.3672,317.3963 C119.5922,318.7243 128.7542,319.8273 138.6012,320.6763 L171.2712,322.5543 Z M208.5652,315.6863 L209.4062,316.9783 C211.6072,320.3613 215.7912,324.7433 218.7122,325.9263 C219.6612,326.3123 222.9272,325.4833 226.0152,324.0883 L226.6032,320.4343 C222.5422,313.7363 212.6322,301.7403 211.0992,301.0233 C209.5882,300.6183 198.0712,303.9743 187.8372,307.4303 L187.5712,307.5203 L183.2882,306.5503 C182.9432,307.4093 182.5502,308.6333 182.0982,310.2573 C182.0922,310.2853 182.0852,310.3183 182.0762,310.3523 C182.0692,310.3803 182.0592,310.4133 182.0472,310.4493 C181.8642,311.1983 181.6742,311.9473 181.4882,312.6793 L181.3172,313.3493 C181.2932,313.4443 181.2692,313.5383 181.2452,313.6333 C180.3252,317.4723 179.5332,321.4733 179.1792,323.3183 C182.0062,323.6543 189.9002,324.5703 195.6272,325.0263 C202.1022,325.5503 207.6722,317.0673 207.7282,316.9803 L208.5652,315.6863 Z M223.8772,334.624011 C223.8192,334.624011 223.7592,334.6183 223.7012,334.6083 L223.7002,334.6083 L223.6982,334.6083 C223.5852,334.5873 223.4792,334.5473 223.3832,334.4923 C223.2492,334.4163 223.1372,334.3123 223.0532,334.1903 C222.9732,334.0733 222.9172,333.9383 222.8922,333.7923 C222.8732,333.6803 222.8722,333.5633 222.8932,333.4473 C222.9052,333.3813 222.9232,333.3173 222.9472,333.2563 L225.4432,326.4913 C223.2552,327.3533 219.7262,328.5073 217.9592,327.7783 C214.9842,326.5753 211.0762,322.7243 208.5552,319.2633 C206.6092,321.8213 201.5622,327.5023 195.4692,327.0203 C188.3702,326.4543 177.9802,325.1883 177.8762,325.1753 L176.8222,325.0473 L176.8382,324.9603 C171.4262,324.7083 147.7142,323.6033 135.9502,323.0123 C135.5402,322.9923 135.2012,322.7273 135.0642,322.3673 C126.4422,321.5603 118.3762,320.5543 111.0492,319.3703 C97.7732,317.2273 90.2842,314.5673 85.1992,310.1903 C79.4072,305.2023 76.8802,297.9753 77.0082,286.7513 C77.2472,265.5833 87.0592,234.9323 95.2482,212.9473 C104.1052,189.1673 113.0232,170.1173 113.1122,169.9283 L113.3102,169.5073 L173.9922,153.2323 L176.1162,125.3743 C164.5202,116.6833 162.4412,103.7253 162.1612,97.3923 C161.5192,97.9913 160.6942,98.4733 159.6482,98.6363 C155.6032,99.2713 150.5572,94.8263 144.2342,85.0703 C140.8282,79.8123 140.0882,74.5193 142.1512,70.1673 C143.8282,66.6313 147.2002,64.0643 151.1182,63.2723 C145.1402,39.6893 151.8032,22.9813 169.9822,16.1293 C174.6362,14.3743 184.3702,12.4093 195.6402,10.1323 C207.7922,7.6783 221.5652,4.8963 230.5662,1.9623 C241.4282,-1.5797 252.1552,-0.2617 258.5572,5.3993 C262.5392,8.9183 266.7562,15.8233 264.2432,28.7283 C260.2612,49.1653 250.7712,62.2263 245.1002,70.0303 C242.5852,73.4903 240.5922,76.2333 240.4292,77.8093 C238.8852,96.4903 233.5112,121.1933 216.7712,133.8373 C214.9402,135.2213 212.3972,135.8653 209.4862,135.9913 L207.6992,157.2723 L245.8582,170.5463 L246.0232,170.7133 L318.7972,245.0133 L399.4312,245.0133 L366.6862,333.9693 C366.4962,334.4893 365.9222,334.7523 365.4022,334.5623 C364.8842,334.3713 364.6192,333.7963 364.8092,333.2783 L396.5642,247.0133 L318.3802,247.0133 L318.3752,247.0133 L256.8262,247.0133 L256.2442,248.5963 C256.2392,248.6113 256.2342,248.6243 256.2282,248.6393 L228.1262,324.9893 C228.1262,324.9903 228.1262,324.9903 228.1262,324.9913 L225.3122,332.6233 L225.4882,332.6233 C226.0412,332.6233 226.4882,333.0713 226.4882,333.6233 C226.4882,334.1763 226.0412,334.624011 225.4882,334.624011 L223.9002,334.624011 L223.8772,334.624011 Z" id="Fill-1" fill="#FFFFFF" mask="url(#mask-2)"></path>
            </g>
        </g>
    </g>
</svg>