<svg xmlns:xlink="http://www.w3.org/1999/xlink" xmlns="http://www.w3.org/2000/svg" width="40" height="40" viewBox="0 0 40 40" version="1.1">
  <desc>Created with Lunacy</desc>
  <defs>
    <linearGradient x1="0" y1="0" x2="1" y2="1" id="gradient_1">
      <stop offset="0" stop-color="#009EFF"/>
      <stop offset="1" stop-color="#30CCC6"/>
    </linearGradient>
  </defs>
  <g id="header"> 
    <g id="Group"> 
      <g id="icon/menu">
        <path d="M5.53586 8.36465L0.585503 13.315Q0.446285 13.4542 0.336902 13.6179Q0.227519 13.7816 0.152175 13.9635Q0.0768302 14.1454 0.03842 14.3385Q9.80639e-06 14.5316 9.88111e-06 14.7285Q9.95583e-06 14.9254 0.0384202 15.1185Q0.0768305 15.3116 0.152175 15.4935Q0.227519 15.6754 0.336902 15.8391Q0.446285 16.0028 0.585503 16.142L0.586918 16.1434Q0.656359 16.2129 0.732272 16.2752Q0.808185 16.3375 0.889839 16.392Q0.971493 16.4466 1.0581 16.4929Q1.14471 16.5392 1.23544 16.5768Q1.32617 16.6143 1.42014 16.6429Q1.51412 16.6714 1.61044 16.6905Q1.70676 16.7097 1.80449 16.7193Q1.90222 16.7289 2.00042 16.7289Q2.09863 16.7289 2.19636 16.7193Q2.29409 16.7097 2.39041 16.6905Q2.48673 16.6714 2.5807 16.6429Q2.67468 16.6143 2.76541 16.5768Q2.85614 16.5392 2.94275 16.4929Q3.02935 16.4466 3.11101 16.392Q3.19266 16.3375 3.26858 16.2752Q3.34449 16.2129 3.41393 16.1434L8.36429 11.1931L13.3148 16.1436Q13.4541 16.2829 13.6178 16.3922Q13.7815 16.5016 13.9634 16.577Q14.1453 16.6523 14.3384 16.6907Q14.5315 16.7291 14.7283 16.7291Q14.9252 16.7291 15.1183 16.6907Q15.3114 16.6523 15.4933 16.577Q15.6752 16.5016 15.8389 16.3922Q16.0026 16.2829 16.1419 16.1436L16.1433 16.1422Q16.2825 16.003 16.3919 15.8393Q16.5012 15.6756 16.5766 15.4937Q16.6519 15.3118 16.6903 15.1187Q16.7288 14.9256 16.7288 14.7287Q16.7288 14.5318 16.6903 14.3387Q16.6519 14.1456 16.5766 13.9637Q16.5012 13.7818 16.3919 13.6181Q16.2825 13.4544 16.1433 13.3152L11.1927 8.36465L16.1433 3.4141Q16.2127 3.34466 16.275 3.26875Q16.3373 3.19283 16.3919 3.11118Q16.4464 3.02952 16.4927 2.94292Q16.539 2.85631 16.5766 2.76558Q16.6142 2.67485 16.6427 2.58087Q16.6712 2.4869 16.6903 2.39058Q16.7095 2.29426 16.7191 2.19653Q16.7288 2.0988 16.7288 2.00059Q16.7288 1.90239 16.7191 1.80466Q16.7095 1.70693 16.6903 1.61061Q16.6712 1.51429 16.6427 1.42032Q16.6142 1.32634 16.5766 1.23561Q16.539 1.14488 16.4927 1.05827Q16.4464 0.971663 16.3919 0.890009Q16.3373 0.808355 16.275 0.732442Q16.2127 0.656529 16.1433 0.587088L16.1419 0.585673Q16.0026 0.446455 15.8389 0.337072Q15.6752 0.227689 15.4933 0.152345Q15.3114 0.0770005 15.1183 0.0385902Q14.9252 0.000179905 14.7283 0.00017978Q14.5315 0.000179656 14.3384 0.0385898Q14.1453 0.077 13.9634 0.152344Q13.7815 0.227689 13.6178 0.337072Q13.4541 0.446455 13.3148 0.585673L8.36429 5.53623L3.41393 0.58587Q3.34449 0.516429 3.26858 0.454128Q3.19267 0.391828 3.11101 0.337268Q3.02936 0.282709 2.94275 0.236416Q2.85614 0.190122 2.76541 0.152541Q2.67468 0.11496 2.58071 0.0864524Q2.48673 0.0579452 2.39041 0.0387864Q2.29409 0.0196276 2.19636 0.0100019Q2.09863 0.000376123 2.00043 0.000376111Q1.90222 0.000376098 1.80449 0.0100018Q1.70676 0.0196275 1.61044 0.0387863Q1.51412 0.057945 1.42015 0.0864523Q1.32617 0.11496 1.23544 0.152541Q1.14471 0.190122 1.05811 0.236415Q0.971496 0.282709 0.889842 0.337268Q0.808188 0.391828 0.732275 0.454128Q0.656362 0.516428 0.586921 0.585869L0.585506 0.587284Q0.516065 0.656725 0.453765 0.732638Q0.391465 0.808551 0.336905 0.890205Q0.282346 0.971859 0.236052 1.05847Q0.189759 1.14508 0.152178 1.23581Q0.114596 1.32653 0.086089 1.42051Q0.0575817 1.51449 0.0384229 1.6108Q0.0192641 1.70712 0.00963838 1.80485Q1.26252e-05 1.90259 1.26045e-05 2.00079Q1.25838e-05 2.09899 0.00963829 2.19673Q0.019264 2.29446 0.0384227 2.39078Q0.0575815 2.48709 0.0860887 2.58107Q0.114596 2.67505 0.152177 2.76577Q0.189758 2.8565 0.236052 2.94311Q0.282345 3.02972 0.336905 3.11137Q0.391464 3.19303 0.453764 3.26894Q0.516065 3.34486 0.585506 3.4143L5.53586 8.36465Z" transform="translate(6.828003 6.8276367)" id="Combined-Shape" fill="url(#gradient_1)" fill-rule="evenodd" stroke="none"/>
      </g>
    </g>
  </g>
</svg>