<?xml version="1.0" encoding="UTF-8"?>
<svg width="18px" height="18px" viewBox="0 0 18 18" version="1.1" xmlns="http://www.w3.org/2000/svg" xmlns:xlink="http://www.w3.org/1999/xlink">
    <title>Combined Shape</title>
    <g id="Symbols" stroke="none" stroke-width="1" fill="none" fill-rule="evenodd">
        <g id="icon/close" transform="translate(-6.000000, -6.000000)" fill="#FFFFFF">
            <path d="M10.2426407,7.41421356 L15.192,12.364 L20.1421356,7.41421356 C20.9231842,6.63316498 22.1895142,6.63316498 22.9705627,7.41421356 C23.7516113,8.19526215 23.7516113,9.4615921 22.9705627,10.2426407 L18.02,15.192 L22.9705627,20.1421356 C23.7516113,20.9231842 23.7516113,22.1895142 22.9705627,22.9705627 C22.1895142,23.7516113 20.9231842,23.7516113 20.1421356,22.9705627 L15.192,18.02 L10.2426407,22.9705627 C9.4615921,23.7516113 8.19526215,23.7516113 7.41421356,22.9705627 C6.63316498,22.1895142 6.63316498,20.9231842 7.41421356,20.1421356 L12.364,15.192 L7.41421356,10.2426407 C6.63316498,9.4615921 6.63316498,8.19526215 7.41421356,7.41421356 C8.19526215,6.63316498 9.4615921,6.63316498 10.2426407,7.41421356 Z" id="Combined-Shape"></path>
        </g>
    </g>
</svg>