<?xml version="1.0" encoding="UTF-8"?>
<svg width="324px" height="322px" viewBox="0 0 324 322" version="1.1" xmlns="http://www.w3.org/2000/svg" xmlns:xlink="http://www.w3.org/1999/xlink">
    <title>83878E53-4768-4331-BFE3-3E2CD980992D</title>
    <g id="Desktop" stroke="none" stroke-width="1" fill="none" fill-rule="evenodd" stroke-linecap="round">
        <g id="Contact" transform="translate(-1174.000000, -530.000000)" stroke="#FFFFFF" stroke-width="2">
            <g id="Group-2" transform="translate(1175.000000, 531.000000)">
                <g id="Group" transform="translate(98.000000, 0.000000)">
                    <path d="M112.001598,0 C50.1418114,0 0,50.04472 0,111.77441 C1.72605203,208.59091 112.001598,319 112.001598,319 C112.001598,319 222.273948,208.59091 224,111.77441 C224,50.04472 173.858189,0 112.001598,0" id="Path"></path>
                    <path d="M154,113 C154,136.198 135.641111,155 113,155 C90.3543333,155 72,136.198 72,113 C72,89.802 90.3543333,71 113,71 C135.641111,71 154,89.802 154,113" id="Fill-4"></path>
                </g>
                <g id="Group-Copy" transform="translate(0.000000, 130.000000)">
                    <path d="M26.000371,0 C11.6400634,0 0,11.60912 0,25.92886 C0.400690649,48.38786 26.000371,74 26.000371,74 C26.000371,74 51.5993094,48.38786 52,25.92886 C52,11.60912 40.3599366,0 26.000371,0" id="Path"></path>
                    <path d="M36,26.5 C36,31.7471667 31.7461111,36 26.5,36 C21.2528333,36 17,31.7471667 17,26.5 C17,21.2528333 21.2528333,17 26.5,17 C31.7461111,17 36,21.2528333 36,26.5" id="Fill-4"></path>
                </g>
            </g>
        </g>
    </g>
</svg>