<?xml version="1.0" encoding="utf-8"?>
<svg width="80px" height="75px" viewBox="0 0 80 75" version="1.1" xmlns:xlink="http://www.w3.org/1999/xlink" xmlns="http://www.w3.org/2000/svg">
  <desc>Created with Lunacy</desc>
  <defs>
    <linearGradient x1="0" y1="0" x2="1" y2="1" id="gradient_1">
      <stop offset="0" stop-color="#009EFF" />
      <stop offset="1" stop-color="#30CCC6" />
    </linearGradient>
    <path d="M1.999 0L22.001 0Q22.0992 0 22.1969 0.00962573Q22.2947 0.0192515 22.391 0.0384102Q22.4873 0.057569 22.5813 0.0860763Q22.6753 0.114584 22.766 0.152165Q22.8567 0.189746 22.9433 0.236039Q23.0299 0.282333 23.1116 0.336892Q23.1932 0.391452 23.2691 0.453752Q23.3451 0.516052 23.4145 0.585494Q23.4839 0.654935 23.5462 0.730848Q23.6085 0.806761 23.6631 0.888415Q23.7177 0.970069 23.764 1.05668Q23.8103 1.14329 23.8478 1.23402Q23.8854 1.32474 23.9139 1.41872Q23.9424 1.5127 23.9616 1.60901Q23.9807 1.70533 23.9904 1.80306Q24 1.9008 24 1.999L24 5.001Q24 5.0992 23.9904 5.19694Q23.9807 5.29467 23.9616 5.39099Q23.9424 5.4873 23.9139 5.58128Q23.8854 5.67525 23.8478 5.76598Q23.8103 5.85671 23.764 5.94332Q23.7177 6.02993 23.6631 6.11158Q23.6085 6.19324 23.5462 6.26915Q23.4839 6.34507 23.4145 6.41451Q23.3451 6.48395 23.2691 6.54625Q23.1932 6.60855 23.1116 6.66311Q23.0299 6.71767 22.9433 6.76396Q22.8567 6.81025 22.766 6.84783Q22.6753 6.88542 22.5813 6.91392Q22.4873 6.94243 22.391 6.96159Q22.2947 6.98075 22.1969 6.99037Q22.0992 7 22.001 7L1.999 7Q1.9008 7 1.80306 6.99037Q1.70533 6.98075 1.60901 6.96159Q1.5127 6.94243 1.41872 6.91392Q1.32474 6.88542 1.23402 6.84783Q1.14329 6.81025 1.05668 6.76396Q0.970069 6.71767 0.888415 6.66311Q0.806761 6.60855 0.730848 6.54625Q0.654935 6.48395 0.585494 6.41451Q0.516052 6.34506 0.453752 6.26915Q0.391452 6.19324 0.336892 6.11158Q0.282333 6.02993 0.236039 5.94332Q0.189746 5.85671 0.152165 5.76598Q0.114584 5.67525 0.0860763 5.58128Q0.057569 5.4873 0.0384102 5.39098Q0.0192515 5.29467 0.00962573 5.19694Q0 5.0992 0 5.001L0 1.999Q0 1.9008 0.00962573 1.80306Q0.0192515 1.70533 0.0384102 1.60901Q0.057569 1.5127 0.0860763 1.41872Q0.114584 1.32474 0.152165 1.23402Q0.189746 1.14329 0.236039 1.05668Q0.282333 0.970069 0.336892 0.888415Q0.391452 0.806761 0.453752 0.730848Q0.516052 0.654935 0.585494 0.585494Q0.654935 0.516052 0.730848 0.453752Q0.806761 0.391452 0.888415 0.336892Q0.970069 0.282333 1.05668 0.236039Q1.14329 0.189746 1.23402 0.152165Q1.32474 0.114584 1.41872 0.0860763Q1.5127 0.057569 1.60901 0.0384102Q1.70533 0.0192515 1.80306 0.00962573Q1.9008 0 1.999 0Z" transform="translate(28 68)" id="path_1" />
    <path d="M1.999 0L72.001 0Q72.0992 0 72.1969 0.00962573Q72.2947 0.0192515 72.391 0.0384102Q72.4873 0.057569 72.5813 0.0860763Q72.6753 0.114584 72.766 0.152165Q72.8567 0.189746 72.9433 0.236039Q73.0299 0.282333 73.1116 0.336892Q73.1932 0.391452 73.2691 0.453752Q73.3451 0.516052 73.4145 0.585494Q73.4839 0.654935 73.5462 0.730848Q73.6086 0.806761 73.6631 0.888415Q73.7177 0.970069 73.764 1.05668Q73.8102 1.14329 73.8478 1.23402Q73.8854 1.32474 73.9139 1.41872Q73.9424 1.5127 73.9616 1.60901Q73.9807 1.70533 73.9904 1.80306Q74 1.9008 74 1.999L74 49.001Q74 49.0992 73.9904 49.1969Q73.9807 49.2947 73.9616 49.391Q73.9424 49.4873 73.9139 49.5813Q73.8854 49.6753 73.8478 49.766Q73.8102 49.8567 73.764 49.9433Q73.7177 50.0299 73.6631 50.1116Q73.6086 50.1932 73.5462 50.2691Q73.4839 50.3451 73.4145 50.4145Q73.3451 50.4839 73.2691 50.5462Q73.1932 50.6085 73.1116 50.6631Q73.0299 50.7177 72.9433 50.764Q72.8567 50.8102 72.766 50.8478Q72.6753 50.8854 72.5813 50.9139Q72.4873 50.9424 72.391 50.9616Q72.2947 50.9807 72.1969 50.9904Q72.0992 51 72.001 51L1.999 51Q1.9008 51 1.80306 50.9904Q1.70533 50.9808 1.60901 50.9616Q1.5127 50.9424 1.41872 50.9139Q1.32474 50.8854 1.23402 50.8478Q1.14329 50.8103 1.05668 50.764Q0.970069 50.7177 0.888415 50.6631Q0.806761 50.6085 0.730848 50.5462Q0.654935 50.4839 0.585494 50.4145Q0.516052 50.3451 0.453752 50.2691Q0.391452 50.1932 0.336892 50.1116Q0.282333 50.0299 0.236039 49.9433Q0.189746 49.8567 0.152165 49.766Q0.114584 49.6753 0.0860763 49.5813Q0.057569 49.4873 0.0384102 49.391Q0.0192515 49.2947 0.00962573 49.1969Q0 49.0992 0 49.001L0 1.999Q0 1.9008 0.00962573 1.80306Q0.0192515 1.70533 0.0384102 1.60901Q0.057569 1.5127 0.0860763 1.41872Q0.114584 1.32474 0.152165 1.23402Q0.189746 1.14329 0.236039 1.05668Q0.282333 0.970069 0.336892 0.888415Q0.391452 0.806761 0.453752 0.730848Q0.516052 0.654935 0.585494 0.585494Q0.654935 0.516052 0.730848 0.453752Q0.806761 0.391452 0.888415 0.336892Q0.970069 0.282333 1.05668 0.236039Q1.14329 0.189746 1.23402 0.152165Q1.32474 0.114584 1.41872 0.0860763Q1.5127 0.057569 1.60901 0.0384102Q1.70533 0.0192515 1.80306 0.00962573Q1.9008 0 1.999 0Z" transform="translate(3 12)" id="path_2" />
    <path d="M1.999 0L8.001 0Q8.09921 0 8.19694 0.00962573Q8.29467 0.0192515 8.39098 0.0384102Q8.4873 0.057569 8.58128 0.0860763Q8.67525 0.114584 8.76598 0.152165Q8.85671 0.189746 8.94332 0.236039Q9.02993 0.282333 9.11158 0.336892Q9.19324 0.391452 9.26915 0.453752Q9.34507 0.516052 9.41451 0.585494Q9.48395 0.654935 9.54625 0.730848Q9.60855 0.806761 9.66311 0.888415Q9.71767 0.970069 9.76396 1.05668Q9.81025 1.14329 9.84783 1.23402Q9.88542 1.32474 9.91392 1.41872Q9.94243 1.5127 9.96159 1.60901Q9.98075 1.70533 9.99037 1.80306Q10 1.9008 10 1.999L10 7.001Q10 7.0992 9.99037 7.19694Q9.98075 7.29467 9.96159 7.39099Q9.94243 7.4873 9.91392 7.58128Q9.88542 7.67525 9.84783 7.76598Q9.81025 7.85671 9.76396 7.94332Q9.71767 8.02993 9.66311 8.11158Q9.60855 8.19324 9.54625 8.26915Q9.48395 8.34506 9.41451 8.41451Q9.34507 8.48395 9.26915 8.54625Q9.19324 8.60855 9.11158 8.66311Q9.02993 8.71767 8.94332 8.76396Q8.85671 8.81025 8.76598 8.84783Q8.67525 8.88542 8.58128 8.91392Q8.4873 8.94243 8.39098 8.96159Q8.29467 8.98075 8.19694 8.99037Q8.09921 9 8.001 9L1.999 9Q1.9008 9 1.80306 8.99037Q1.70533 8.98075 1.60901 8.96159Q1.5127 8.94243 1.41872 8.91392Q1.32474 8.88542 1.23402 8.84783Q1.14329 8.81025 1.05668 8.76396Q0.970069 8.71767 0.888415 8.66311Q0.806761 8.60855 0.730848 8.54625Q0.654935 8.48395 0.585494 8.41451Q0.516052 8.34506 0.453752 8.26915Q0.391452 8.19324 0.336892 8.11158Q0.282333 8.02993 0.236039 7.94332Q0.189746 7.85671 0.152165 7.76598Q0.114584 7.67525 0.0860763 7.58128Q0.057569 7.4873 0.0384102 7.39098Q0.0192515 7.29467 0.00962573 7.19694Q0 7.0992 0 7.001L0 1.999Q0 1.9008 0.00962573 1.80306Q0.0192515 1.70533 0.0384102 1.60901Q0.057569 1.5127 0.0860763 1.41872Q0.114584 1.32474 0.152165 1.23402Q0.189746 1.14329 0.236039 1.05668Q0.282333 0.970069 0.336892 0.888415Q0.391452 0.806761 0.453752 0.730848Q0.516052 0.654935 0.585494 0.585494Q0.654935 0.516052 0.730848 0.453752Q0.806761 0.391452 0.888415 0.336892Q0.970069 0.282333 1.05668 0.236039Q1.14329 0.189746 1.23402 0.152165Q1.32474 0.114584 1.41872 0.0860763Q1.5127 0.057569 1.60901 0.0384102Q1.70533 0.0192515 1.80306 0.00962573Q1.9008 0 1.999 0L1.999 0Z" transform="translate(35 61)" id="path_3" />
    <path d="M10.5 21C16.299 21 21 16.299 21 10.5C21 4.70101 16.299 0 10.5 0C4.70101 0 0 4.70101 0 10.5C0 16.299 4.70101 21 10.5 21Z" transform="translate(28 31)" id="path_4" />
    <path d="M13.6633 2.4949L21.9281 14.8922Q21.9655 14.9483 21.9991 15.0068Q22.0326 15.0653 22.0621 15.126Q22.0917 15.1866 22.117 15.2491Q22.1424 15.3116 22.1635 15.3757Q22.1846 15.4398 22.2014 15.5051Q22.2181 15.5704 22.2304 15.6368Q22.2427 15.7031 22.2505 15.7701Q22.2582 15.8371 22.2615 15.9045Q22.2648 15.9719 22.2635 16.0393Q22.2622 16.1067 22.2563 16.1739Q22.2505 16.2411 22.2402 16.3078Q22.2298 16.3745 22.215 16.4403Q22.2002 16.5061 22.1809 16.5707Q22.1617 16.6354 22.1382 16.6986Q22.1146 16.7618 22.0869 16.8233Q22.0591 16.8848 22.0273 16.9442Q21.9955 17.0037 21.9597 17.0609Q21.9239 17.1181 21.8844 17.1728Q21.8449 17.2274 21.8017 17.2793Q21.7586 17.3311 21.7121 17.38Q21.6655 17.4288 21.6158 17.4744Q21.5661 17.52 21.5134 17.5621Q21.4607 17.6042 21.4053 17.6427Q21.3499 17.6812 21.2921 17.7159Q21.2342 17.7505 21.1741 17.7812Q21.1141 17.8119 21.0521 17.8385Q20.9901 17.865 20.9264 17.8874Q20.8628 17.9097 20.7977 17.9277Q20.7327 17.9456 20.6667 17.9592Q20.6006 17.9728 20.5337 17.9818Q20.4669 17.9909 20.3996 17.9955Q20.3323 18 20.2648 18L3.73517 18Q3.66771 18 3.60041 17.9955Q3.53311 17.9909 3.46627 17.9818Q3.39943 17.9728 3.33335 17.9592Q3.26727 17.9456 3.20226 17.9277Q3.13725 17.9097 3.07359 17.8874Q3.00994 17.865 2.94794 17.8385Q2.88593 17.8119 2.82586 17.7812Q2.76579 17.7505 2.70792 17.7159Q2.65006 17.6812 2.59466 17.6427Q2.53926 17.6042 2.48658 17.5621Q2.4339 17.52 2.38419 17.4744Q2.33447 17.4288 2.28794 17.38Q2.2414 17.3311 2.19827 17.2793Q2.15514 17.2274 2.1156 17.1728Q2.07606 17.1181 2.04029 17.0609Q2.00453 17.0037 1.9727 16.9442Q1.94087 16.8848 1.91312 16.8233Q1.88537 16.7618 1.86184 16.6986Q1.8383 16.6354 1.81907 16.5707Q1.79985 16.5061 1.78502 16.4403Q1.7702 16.3745 1.75985 16.3078Q1.7495 16.2411 1.74366 16.1739Q1.73783 16.1067 1.73653 16.0393Q1.73524 15.9719 1.7385 15.9045Q1.74175 15.8371 1.74955 15.7701Q1.75734 15.7031 1.76963 15.6368Q1.78192 15.5704 1.79865 15.5051Q1.81539 15.4398 1.83649 15.3757Q1.85759 15.3116 1.88296 15.2491Q1.90833 15.1866 1.93786 15.126Q1.96738 15.0653 2.00093 15.0068Q2.03448 14.9483 2.0719 14.8922L10.3367 2.4949Q10.3708 2.4438 10.4079 2.39489Q10.4451 2.34598 10.4851 2.29944Q10.5252 2.2529 10.5681 2.20891Q10.6109 2.16492 10.6564 2.12364Q10.7019 2.08236 10.7498 2.04395Q10.7977 2.00554 10.8479 1.97015Q10.8981 1.93475 10.9503 1.90251Q11.0026 1.87026 11.0568 1.84128Q11.1109 1.8123 11.1667 1.7867Q11.2225 1.7611 11.2798 1.73898Q11.3371 1.71685 11.3957 1.69829Q11.4542 1.67972 11.5138 1.66478Q11.5733 1.64985 11.6337 1.63859Q11.6941 1.62734 11.755 1.61981Q11.816 1.61229 11.8773 1.60852Q11.9386 1.60475 12 1.60475Q12.0614 1.60475 12.1227 1.60852Q12.184 1.61229 12.245 1.61981Q12.3059 1.62734 12.3663 1.63859Q12.4267 1.64985 12.4862 1.66478Q12.5458 1.67972 12.6043 1.69829Q12.6629 1.71685 12.7202 1.73898Q12.7774 1.7611 12.8333 1.7867Q12.8891 1.8123 12.9432 1.84128Q12.9974 1.87026 13.0497 1.90251Q13.1019 1.93475 13.1521 1.97015Q13.2023 2.00554 13.2502 2.04395Q13.2981 2.08236 13.3436 2.12364Q13.3891 2.16492 13.4319 2.20891Q13.4748 2.2529 13.5149 2.29944Q13.5549 2.34598 13.5921 2.39489Q13.6292 2.4438 13.6633 2.4949L13.6633 2.4949Z" transform="translate(13 24)" id="path_5" />
    <path d="M1.999 0L24.001 0Q24.0992 0 24.1969 0.00962573Q24.2947 0.0192515 24.391 0.0384102Q24.4873 0.057569 24.5813 0.0860763Q24.6753 0.114584 24.766 0.152165Q24.8567 0.189746 24.9433 0.236039Q25.0299 0.282333 25.1116 0.336892Q25.1932 0.391452 25.2692 0.453752Q25.3451 0.516052 25.4145 0.585494Q25.4839 0.654935 25.5462 0.730848Q25.6085 0.806761 25.6631 0.888415Q25.7177 0.970069 25.764 1.05668Q25.8103 1.14329 25.8478 1.23402Q25.8854 1.32474 25.9139 1.41872Q25.9424 1.5127 25.9616 1.60901Q25.9807 1.70533 25.9904 1.80306Q26 1.9008 26 1.999L26 24.001Q26 24.0992 25.9904 24.1969Q25.9807 24.2947 25.9616 24.391Q25.9424 24.4873 25.9139 24.5813Q25.8854 24.6753 25.8478 24.766Q25.8103 24.8567 25.764 24.9433Q25.7177 25.0299 25.6631 25.1116Q25.6085 25.1932 25.5462 25.2692Q25.4839 25.3451 25.4145 25.4145Q25.3451 25.4839 25.2692 25.5462Q25.1932 25.6085 25.1116 25.6631Q25.0299 25.7177 24.9433 25.764Q24.8567 25.8103 24.766 25.8478Q24.6753 25.8854 24.5813 25.9139Q24.4873 25.9424 24.391 25.9616Q24.2947 25.9807 24.1969 25.9904Q24.0992 26 24.001 26L1.999 26Q1.9008 26 1.80306 25.9904Q1.70533 25.9807 1.60901 25.9616Q1.5127 25.9424 1.41872 25.9139Q1.32474 25.8854 1.23402 25.8478Q1.14329 25.8103 1.05668 25.764Q0.970069 25.7177 0.888415 25.6631Q0.806761 25.6085 0.730848 25.5462Q0.654935 25.4839 0.585494 25.4145Q0.516052 25.3451 0.453752 25.2692Q0.391452 25.1932 0.336892 25.1116Q0.282333 25.0299 0.236039 24.9433Q0.189746 24.8567 0.152165 24.766Q0.114584 24.6753 0.0860763 24.5813Q0.057569 24.4873 0.0384102 24.391Q0.0192515 24.2947 0.00962573 24.1969Q0 24.0992 0 24.001L0 1.999Q0 1.9008 0.00962573 1.80306Q0.0192515 1.70533 0.0384102 1.60901Q0.057569 1.5127 0.0860763 1.41872Q0.114584 1.32474 0.152165 1.23402Q0.189746 1.14329 0.236039 1.05668Q0.282333 0.970069 0.336892 0.888415Q0.391452 0.806761 0.453752 0.730848Q0.516052 0.654935 0.585494 0.585494Q0.654935 0.516052 0.730848 0.453752Q0.806761 0.391452 0.888415 0.336892Q0.970069 0.282333 1.05668 0.236039Q1.14329 0.189746 1.23402 0.152165Q1.32474 0.114584 1.41872 0.0860763Q1.5127 0.057569 1.60901 0.0384102Q1.70533 0.0192515 1.80306 0.00962573Q1.9008 0 1.999 0L1.999 0Z" transform="translate(39 16)" id="path_6" />
    <clipPath id="clip_1">
      <use xlink:href="#path_1" />
    </clipPath>
    <clipPath id="clip_2">
      <use xlink:href="#path_2" />
    </clipPath>
    <clipPath id="clip_3">
      <use xlink:href="#path_3" />
    </clipPath>
    <clipPath id="clip_4">
      <use xlink:href="#path_4" />
    </clipPath>
    <clipPath id="clip_5">
      <use xlink:href="#path_5" />
    </clipPath>
    <clipPath id="clip_6">
      <use xlink:href="#path_6" />
    </clipPath>
  </defs>
  <g id="icon/web-dev-copy-2">
    <g id="Rectangle">
      <g clip-path="url(#clip_1)">
        <use xlink:href="#path_1" fill="none" stroke="#262332" stroke-width="4" stroke-linecap="round" />
      </g>
    </g>
    <g id="Rectangle-Copy">
      <g clip-path="url(#clip_2)">
        <use xlink:href="#path_2" fill="none" stroke="#262332" stroke-width="4" stroke-linecap="round" />
      </g>
    </g>
    <g id="Rectangle-Copy-14">
      <g clip-path="url(#clip_3)">
        <use xlink:href="#path_3" fill="none" stroke="#262332" stroke-width="4" stroke-linecap="round" />
      </g>
    </g>
    <path d="M1.999 0L78.001 0Q78.0992 0 78.1969 0.00962573Q78.2947 0.0192515 78.391 0.0384102Q78.4873 0.057569 78.5813 0.0860763Q78.6753 0.114584 78.766 0.152165Q78.8567 0.189746 78.9433 0.236039Q79.0299 0.282333 79.1116 0.336892Q79.1932 0.391452 79.2691 0.453752Q79.3451 0.516052 79.4145 0.585494Q79.4839 0.654935 79.5462 0.730848Q79.6085 0.806761 79.6631 0.888415Q79.7177 0.970069 79.764 1.05668Q79.8102 1.14329 79.8478 1.23402Q79.8854 1.32474 79.9139 1.41872Q79.9424 1.5127 79.9616 1.60901Q79.9807 1.70533 79.9904 1.80306Q80 1.9008 80 1.999L80 48.001Q80 48.0992 79.9904 48.1969Q79.9807 48.2947 79.9616 48.391Q79.9424 48.4873 79.9139 48.5813Q79.8854 48.6753 79.8478 48.766Q79.8102 48.8567 79.764 48.9433Q79.7177 49.0299 79.6631 49.1116Q79.6085 49.1932 79.5462 49.2691Q79.4839 49.3451 79.4145 49.4145Q79.3451 49.4839 79.2692 49.5462Q79.1932 49.6085 79.1116 49.6631Q79.0299 49.7177 78.9433 49.764Q78.8567 49.8102 78.766 49.8478Q78.6753 49.8854 78.5813 49.9139Q78.4873 49.9424 78.391 49.9616Q78.2947 49.9807 78.1969 49.9904Q78.0992 50 78.001 50L1.999 50Q1.9008 50 1.80306 49.9904Q1.70533 49.9807 1.60901 49.9616Q1.5127 49.9424 1.41872 49.9139Q1.32474 49.8854 1.23402 49.8478Q1.14329 49.8102 1.05668 49.764Q0.970069 49.7177 0.888415 49.6631Q0.806761 49.6085 0.730848 49.5462Q0.654935 49.4839 0.585494 49.4145Q0.516052 49.3451 0.453752 49.2692Q0.391452 49.1932 0.336892 49.1116Q0.282333 49.0299 0.236039 48.9433Q0.189746 48.8567 0.152165 48.766Q0.114584 48.6752 0.0860763 48.5813Q0.057569 48.4873 0.0384102 48.391Q0.0192515 48.2947 0.00962573 48.1969Q0 48.0992 0 48.001L0 1.999Q0 1.9008 0.00962573 1.80306Q0.0192515 1.70533 0.0384102 1.60901Q0.057569 1.5127 0.0860763 1.41872Q0.114584 1.32474 0.152165 1.23402Q0.189746 1.14329 0.236039 1.05668Q0.282333 0.970069 0.336892 0.888415Q0.391452 0.806761 0.453752 0.730848Q0.516052 0.654935 0.585494 0.585494Q0.654935 0.516052 0.730848 0.453752Q0.806761 0.391452 0.888415 0.336892Q0.970069 0.282333 1.05668 0.236039Q1.14329 0.189746 1.23402 0.152165Q1.32474 0.114584 1.41872 0.0860763Q1.5127 0.057569 1.60901 0.0384102Q1.70533 0.0192515 1.80306 0.00962573Q1.9008 0 1.999 0L1.999 0Z" transform="translate(0 9)" id="Rectangle-Copy" fill="url(#gradient_1)" fill-rule="evenodd" stroke="none" />
    <g id="Oval">
      <g clip-path="url(#clip_4)">
        <use xlink:href="#path_4" fill="none" stroke="#FFFFFF" stroke-width="4" stroke-linecap="round" />
      </g>
    </g>
    <g id="Triangle">
      <g clip-path="url(#clip_5)">
        <use xlink:href="#path_5" fill="none" stroke="#FFFFFF" stroke-width="4" stroke-linecap="round" />
      </g>
    </g>
    <g id="Rectangle">
      <g clip-path="url(#clip_6)">
        <use xlink:href="#path_6" fill="none" stroke="#FFFFFF" stroke-width="4" stroke-linecap="round" />
      </g>
    </g>
    <path d="M1 2C1.55228 2 2 1.55228 2 1C2 0.447715 1.55228 0 1 0C0.447715 0 0 0.447715 0 1C0 1.55228 0.447715 2 1 2Z" transform="translate(2 11)" id="Oval" fill="#FFFFFF" fill-rule="evenodd" stroke="none" />
    <path d="M1 2C1.55228 2 2 1.55228 2 1C2 0.447715 1.55228 0 1 0C0.447715 0 0 0.447715 0 1C0 1.55228 0.447715 2 1 2Z" transform="translate(5 11)" id="Oval-Copy" fill="#FFFFFF" fill-rule="evenodd" stroke="none" />
    <path d="M1 2C1.55228 2 2 1.55228 2 1C2 0.447715 1.55228 0 1 0C0.447715 0 0 0.447715 0 1C0 1.55228 0.447715 2 1 2Z" transform="translate(8 11)" id="Oval-Copy-2" fill="#FFFFFF" fill-rule="evenodd" stroke="none" />
  </g>
</svg>