<?xml version="1.0" encoding="UTF-8"?>
<svg width="383px" height="256px" viewBox="0 0 383 256" version="1.1" xmlns="http://www.w3.org/2000/svg" xmlns:xlink="http://www.w3.org/1999/xlink">
    <title>9173D875-DB67-49C4-82CF-8775EC3E92F8</title>
    <g id="Desktop" stroke="none" stroke-width="1" fill="none" fill-rule="evenodd" stroke-linecap="round">
        <g id="Service---graphic-design" transform="translate(-1115.000000, -513.000000)" stroke="#FFFFFF" stroke-width="2">
            <g id="Group-5" transform="translate(1116.000000, 514.000000)">
                <g id="Group" transform="translate(48.000000, 48.000000)">
                    <path d="M8.85492411,206 C3.96512531,206 0,202.048282 0,197.172837 L0,8.82716254 C0,3.95171757 3.96512531,0 8.85492411,0 L324.145076,0 C329.034875,0 333,3.95171757 333,8.82716254 L333,197.172837 C333,202.048282 329.034875,206 324.145076,206 L8.85492411,206 Z" id="Fill-1"></path>
                    <path d="M14.5,13 C15.8808374,13 17,14.1191626 17,15.5 C17,16.8808374 15.8808374,18 14.5,18 C13.1191626,18 12,16.8808374 12,15.5 C12,14.1191626 13.1191626,13 14.5,13 Z M24.2714286,13 C25.6522659,13 26.7714286,14.1191626 26.7714286,15.5 C26.7714286,16.8808374 25.6522659,18 24.2714286,18 C22.8905912,18 21.7714286,16.8808374 21.7714286,15.5 C21.7714286,14.1191626 22.8905912,13 24.2714286,13 Z M34.5,13 C35.8808374,13 37,14.1191626 37,15.5 C37,16.8808374 35.8808374,18 34.5,18 C33.1191626,18 32,16.8808374 32,15.5 C32,14.1191626 33.1191626,13 34.5,13 Z" id="Combined-Shape"></path>
                    <line x1="0" y1="28.5" x2="308" y2="28.5" id="Stroke-10"></line>
                </g>
                <g id="Group-Copy-2">
                    <path d="M8.85492411,206 C3.96512531,206 0,202.048282 0,197.172837 L0,8.82716254 C0,3.95171757 3.96512531,0 8.85492411,0 L324.145076,0 C329.034875,0 333,3.95171757 333,8.82716254 L333,197.172837 C333,202.048282 329.034875,206 324.145076,206 L8.85492411,206 Z" id="Fill-1"></path>
                </g>
                <g id="Group-Copy-3" transform="translate(24.000000, 24.000000)">
                    <path d="M8.85492411,206 C3.96512531,206 0,202.048282 0,197.172837 L0,8.82716254 C0,3.95171757 3.96512531,0 8.85492411,0 L324.145076,0 C329.034875,0 333,3.95171757 333,8.82716254 L333,197.172837 C333,202.048282 329.034875,206 324.145076,206 L8.85492411,206 Z" id="Fill-1"></path>
                </g>
                <rect id="Rectangle" x="73" y="101" width="146" height="61" rx="2"></rect>
                <rect id="Rectangle-Copy-2" x="243" y="101" width="60" height="61" rx="2"></rect>
                <rect id="Rectangle" x="85" y="114" width="35" height="35" rx="2"></rect>
                <line x1="135" y1="114" x2="194" y2="114" id="Path-3"></line>
                <line x1="135" y1="130" x2="194" y2="130" id="Path-3-Copy"></line>
                <line x1="135" y1="146.5" x2="170" y2="146.5" id="Path-3-Copy-2"></line>
            </g>
        </g>
    </g>
</svg>