<?xml version="1.0" encoding="UTF-8"?>
<svg width="898px" height="712px" viewBox="0 0 898 712" version="1.1" xmlns="http://www.w3.org/2000/svg" xmlns:xlink="http://www.w3.org/1999/xlink">
    <title>Group 2</title>
    <defs>
        <linearGradient x1="0%" y1="23.6076635%" x2="100%" y2="76.3923365%" id="linearGradient-1">
            <stop stop-color="#009EFF" offset="0%"></stop>
            <stop stop-color="#30CCC6" offset="100%"></stop>
        </linearGradient>
        <linearGradient x1="0%" y1="41.4392319%" x2="100%" y2="58.5607681%" id="linearGradient-2">
            <stop stop-color="#009EFF" offset="0%"></stop>
            <stop stop-color="#30CCC6" offset="100%"></stop>
        </linearGradient>
        <linearGradient x1="39.1209901%" y1="0%" x2="60.8790099%" y2="100%" id="linearGradient-3">
            <stop stop-color="#009EFF" offset="0%"></stop>
            <stop stop-color="#30CCC6" offset="100%"></stop>
        </linearGradient>
        <linearGradient x1="39.1213153%" y1="0%" x2="60.8786847%" y2="100%" id="linearGradient-4">
            <stop stop-color="#009EFF" offset="0%"></stop>
            <stop stop-color="#30CCC6" offset="100%"></stop>
        </linearGradient>
        <linearGradient x1="0%" y1="0%" x2="100%" y2="100%" id="linearGradient-5">
            <stop stop-color="#009EFF" offset="0%"></stop>
            <stop stop-color="#30CCC6" offset="100%"></stop>
        </linearGradient>
    </defs>
    <g id="Desktop" stroke="none" stroke-width="1" fill="none" fill-rule="evenodd">
        <g id="Home" transform="translate(-862.000000, -199.000000)">
            <g id="Group-2" transform="translate(862.000000, 200.000000)">
                <rect id="Rectangle" fill="#F5F5F5" x="126" y="436" width="191" height="132" rx="2"></rect>
                <circle id="Oval" fill="#F5F5F5" cx="693" cy="470" r="79"></circle>
                <line x1="9.09494702e-13" y1="568.5" x2="769" y2="568.5" id="Stroke-56" stroke="#111010" stroke-width="2"></line>
                <path d="M484.998353,249 C479.477138,249 475,244.530339 475,239.015879 L475,25.9841207 C475,20.4696611 479.477138,16 484.998353,16 L841.001647,16 C846.522862,16 851,20.4696611 851,25.9841207 L851,239.015879 C851,244.530339 846.522862,249 841.001647,249 L484.998353,249 Z" id="Fill-1" fill="#F5F5F5"></path>
                <path d="M475.998353,258 C470.477138,258 466,253.530339 466,248.015879 L466,34.9841207 C466,29.4696611 470.477138,25 475.998353,25 L832.001647,25 C837.522862,25 842,29.4696611 842,34.9841207 L842,248.015879 C842,253.530339 837.522862,258 832.001647,258 L475.998353,258 Z" id="Fill-1" stroke="#262332" stroke-width="2" stroke-linecap="round"></path>
                <path d="M329.782998,391 L352.381988,391.931937 L400.049473,408.463957 L478,488.853403 L414.856703,488.853403 L396.112945,474.463297 L380.107486,569 L290.586061,568.941176 L290.586,561.707 L290.549087,561.704698 L290.549326,559.039144 C281.225558,558.139188 273.049358,557.079804 266.154431,555.962876 C243.095859,552.227252 232.753992,546.334969 233.004438,524.235024 C233.466883,483.385997 268.964255,407.398379 268.964255,407.398379 L268.964255,407.398379 L329.782998,391 Z M290.586061,478.305371 C290.586061,480.156628 288.014411,489.394659 285.237029,498.831907 L284.87379,500.063391 L284.87379,500.063391 L284.509383,501.29359 C281.471045,511.530052 278.432706,521.263456 278.432706,521.263456 L278.432706,521.263456 L290.549,525.689 L290.549087,523.932813 L290.586,523.936 Z" id="Combined-Shape" fill="url(#linearGradient-1)"></path>
                <path d="M468,478.630159 L394.312472,403.400885 L354.972411,389.721027 L323.935372,386 L263.020877,402.339155 C263.020877,402.339155 227.467618,478.052339 227.004445,518.753838 C226.753605,540.773968 237.111753,546.644971 260.206629,550.367103 C276.084356,552.925862 297.982241,555.079152 326.591194,555.695641 C326.591194,555.695641 329.39279,545.25 331.288523,537.15638 L272.504234,515.793002 C272.504234,515.793002 284.676723,477 284.676723,472.990063 L284.676723,519.714286 L331.288523,537.15638 L326.563707,555.90025 L284.676723,553.495727 L284.676723,568 L374.108857,568 L389.966781,469.387251 L413.106764,486.94502" id="Combined-Shape" stroke="#262332" stroke-width="2" stroke-linecap="round"></path>
                <path d="M326.25629,356 L324,386.813104 C324,386.813104 339.558886,397.81203 355.589185,390.479413 L358,362.061166 L326.25629,356 Z" id="Fill-18" fill="#FFFFFF"></path>
                <path d="M326.25629,356 L324,386.813104 C324,386.813104 339.558886,397.81203 355.589185,390.479413 L358,362.061166 L326.25629,356 Z" id="Fill-18" stroke="#262332" stroke-width="2" stroke-linecap="round"></path>
                <path d="M326,356 C326,356 346.245575,383.381791 351.637072,380.832422 C357.028569,378.283053 358,367.098022 358,367.098022 L326,356 Z" id="Fill-20" fill="#262332"></path>
                <path d="M388.578573,284.32275 C388.578573,284.32275 394.100394,343.173261 365.168665,365.026056 C358.548899,370.026853 340.976249,364.406205 332.455002,360.526886 C309.661581,350.151836 312.19283,325.727929 312.19283,325.727929 C312.19283,325.727929 308.741831,339.152515 294.073422,316.513028 C283.61417,300.368168 302.600202,290.370995 310.071096,299.442258 L310.122009,272.924558 L350.845577,268 L388.578573,284.32275 Z" id="Fill-22" fill="#FFFFFF"></path>
                <path d="M388.578573,284.32275 C388.578573,284.32275 394.100394,343.173261 365.168665,365.026056 C358.548899,370.026853 340.976249,364.406205 332.455002,360.526886 C309.661581,350.151836 312.19283,325.727929 312.19283,325.727929 C312.19283,325.727929 308.741831,339.152515 294.073422,316.513028 C283.61417,300.368168 302.600202,290.370995 310.071096,299.442258 L310.122009,272.924558 L350.845577,268 L388.578573,284.32275 Z" id="Fill-22" stroke="#262332" stroke-width="2" stroke-linecap="round"></path>
                <path d="M350.096787,289.237689 C358.43984,291.105565 353.746594,280.260152 353.746594,280.260152 C353.746594,280.260152 377.732314,295.411198 386.074252,285.160008 C386.074252,285.160008 389.454195,299.972594 388.064057,309.756814 C391.58232,305.279665 406.420197,290.508022 412.260557,260.524619 C417.126595,235.540663 397.023672,229.308507 379.874931,234.899964 C362.727304,240.490315 329.037379,245.393491 319.334288,249.051785 C299.867908,256.389397 295.482343,274.674227 301.518905,296.648334 C301.518905,296.648334 309.427191,297.099811 310.527484,300.710523 C311.628892,304.321235 313.945416,313 313.945416,313 L317.248525,313 C317.248525,313 317.248525,303.302091 316.031179,299.982405 C314.814948,296.662719 311.810602,276.983622 322.346438,280.501382 C334.512089,284.563571 341.753734,287.369812 350.096787,289.237689 Z" id="Fill-24" fill="#262332"></path>
                <path d="M308,305 C308,305 304.642546,299.954514 300,302.950053" id="Stroke-26" stroke="#262332" stroke-width="2" stroke-linecap="round"></path>
                <path d="M361,347 C361,347 367.917778,351.5 372,347" id="Stroke-28" stroke="#262332" stroke-width="2" stroke-linecap="round"></path>
                <path d="M331.708419,537.384912 L336.518346,538.468869 C336.518346,538.468869 358.123978,531.16625 360.472052,532.078942 C362.821242,532.991634 379.306844,553.944525 377.916962,555.567209 C377.103781,556.516756 369.572095,559.749116 367.333337,558.84076 C364.150888,557.550851 359.834,552.996063 357.565125,549.512225 C357.565125,549.512225 351.715575,558.584946 344.55088,558.011533 C337.387301,557.438119 327,556.173141 327,556.173141 C327,556.173141 329.715066,541.379294 331.708419,537.384912" id="Fill-34" fill="#FFFFFF"></path>
                <path d="M331.708419,537.384912 L336.518346,538.468869 C336.518346,538.468869 358.123978,531.16625 360.472052,532.078942 C362.821242,532.991634 379.306844,553.944525 377.916962,555.567209 C377.103781,556.516756 369.572095,559.749116 367.333337,558.84076 C364.150888,557.550851 359.834,552.996063 357.565125,549.512225 C357.565125,549.512225 351.715575,558.584946 344.55088,558.011533 C337.387301,557.438119 327,556.173141 327,556.173141 C327,556.173141 329.715066,541.379294 331.708419,537.384912" id="Fill-34" stroke="#262332" stroke-width="2" stroke-linecap="round"></path>
                <polygon id="Fill-36" fill="#FFFFFF" points="513.869447 568 372 568 405.130553 478 547 478"></polygon>
                <polygon id="Stroke-38" stroke="#262332" stroke-width="2" stroke-linecap="round" points="513.869447 568 372 568 405.130553 478 547 478"></polygon>
                <polygon id="Fill-40" fill="#FFFFFF" points="375.797365 561 517 561 514.202635 568 373 568"></polygon>
                <polygon id="Stroke-42" stroke="#262332" stroke-width="2" stroke-linecap="round" points="374.797365 561 516 561 513.202635 568 372 568"></polygon>
                <polygon id="Fill-44" fill="#FFFFFF" points="319.871252 561 376 561 373.128748 568 317 568"></polygon>
                <polygon id="Stroke-46" stroke="#262332" stroke-width="2" stroke-linecap="round" points="319.822587 561 375 561 372.177413 568 317 568"></polygon>
                <path d="M327,556 C327,556 298.415997,554.674265 285,554" id="Stroke-52" stroke="#262332" stroke-width="2" stroke-linecap="round"></path>
                <path d="M467.975779,526.627743 C465.813547,531.175235 460.938335,533.237563 457.085309,531.233994 C453.233385,529.231577 451.863126,523.920217 454.024257,519.372725 C456.185388,514.825233 461.061702,512.762905 464.913626,514.765322 C468.766652,516.768891 470.13691,522.080251 467.975779,526.627743" id="Fill-54" fill="#C6C4CF"></path>
                <path d="M483.771429,39 C485.85452,39 487.542857,40.5668277 487.542857,42.5 C487.542857,44.4331723 485.85452,46 483.771429,46 C481.688337,46 480,44.4331723 480,42.5 C480,40.5668277 481.688337,39 483.771429,39 Z M496.028571,39 C498.111663,39 499.8,40.5668277 499.8,42.5 C499.8,44.4331723 498.111663,46 496.028571,46 C493.94548,46 492.257143,44.4331723 492.257143,42.5 C492.257143,40.5668277 493.94548,39 496.028571,39 Z M509.228571,39 C511.311663,39 513,40.5668277 513,42.5 C513,44.4331723 511.311663,46 509.228571,46 C507.14548,46 505.457143,44.4331723 505.457143,42.5 C505.457143,40.5668277 507.14548,39 509.228571,39 Z" id="Combined-Shape" fill="#FFFFFF"></path>
                <path d="M483.771429,39 C485.85452,39 487.542857,40.5668277 487.542857,42.5 C487.542857,44.4331723 485.85452,46 483.771429,46 C481.688337,46 480,44.4331723 480,42.5 C480,40.5668277 481.688337,39 483.771429,39 Z M496.028571,39 C498.111663,39 499.8,40.5668277 499.8,42.5 C499.8,44.4331723 498.111663,46 496.028571,46 C493.94548,46 492.257143,44.4331723 492.257143,42.5 C492.257143,40.5668277 493.94548,39 496.028571,39 Z M509.228571,39 C511.311663,39 513,40.5668277 513,42.5 C513,44.4331723 511.311663,46 509.228571,46 C507.14548,46 505.457143,44.4331723 505.457143,42.5 C505.457143,40.5668277 507.14548,39 509.228571,39 Z" id="Combined-Shape" stroke="#262332" stroke-width="2" stroke-linecap="round"></path>
                <line x1="544.5" y1="46" x2="544.5" y2="244" id="Stroke-85" stroke="#262332" stroke-width="2" stroke-linecap="round"></line>
                <rect id="Rectangle" stroke="#262332" stroke-width="2" stroke-linecap="round" x="566" y="175" width="71" height="27" rx="2"></rect>
                <rect id="Rectangle-Copy-28" stroke="#262332" stroke-width="2" stroke-linecap="round" x="655" y="175" width="71" height="27" rx="2"></rect>
                <rect id="Rectangle-Copy-29" stroke="#262332" stroke-width="2" stroke-linecap="round" x="744" y="175" width="71" height="27" rx="2"></rect>
                <path d="M574,86 L818,86 C819.104569,86 820,86.8954305 820,88 L820,162 C820,163.104569 819.104569,164 818,164 L574,164 C572.895431,164 572,163.104569 572,162 L572,125 L572,125 L572,88 C572,86.8954305 572.895431,86 574,86 Z" id="Rectangle" fill="#FFFFFF"></path>
                <path d="M568,80 L812,80 C813.104569,80 814,80.8954305 814,82 L814,156 C814,157.104569 813.104569,158 812,158 L568,158 C566.895431,158 566,157.104569 566,156 L566,119 L566,119 L566,82 C566,80.8954305 566.895431,80 568,80 Z" id="Rectangle" stroke="#262332" stroke-width="2" stroke-linecap="round"></path>
                <path d="M275.015599,38.7406265 L275.227723,1.46341463 M285,28.3414634 L191,28.3414634" id="Combined-Shape" stroke="#262332" stroke-width="2" stroke-linecap="round"></path>
                <rect id="Rectangle-Copy-3" stroke="#262332" stroke-width="2" stroke-linecap="round" x="832" y="449" width="13" height="13" rx="2"></rect>
                <line x1="385" y1="501" x2="392" y2="458" id="Path-6" stroke="#262332" stroke-width="2" stroke-linecap="round"></line>
                <g id="Group-6" transform="translate(386.000000, 78.000000)">
                    <rect id="Rectangle" fill="url(#linearGradient-2)" x="5.59701493" y="5.59322034" width="119.402985" height="49.4067797" rx="2"></rect>
                    <rect id="Rectangle" stroke="#262332" stroke-width="2" stroke-linecap="round" x="0" y="0" width="119.402985" height="49.4067797" rx="2"></rect>
                    <rect id="Rectangle" stroke="#262332" stroke-width="2" stroke-linecap="round" x="10.261194" y="10.2542373" width="28.9179104" height="28.8983051" rx="2"></rect>
                    <line x1="50.3731343" y1="11.1864407" x2="99.6774578" y2="11.1864407" id="Path-3" stroke="#262332" stroke-width="2" stroke-linecap="round"></line>
                    <line x1="50.3731343" y1="24.2372881" x2="99.6774578" y2="24.2372881" id="Path-3-Copy" stroke="#262332" stroke-width="2" stroke-linecap="round"></line>
                    <line x1="50.3731343" y1="37.2881356" x2="79.2910448" y2="37.2881356" id="Path-3-Copy-2" stroke="#262332" stroke-width="2" stroke-linecap="round"></line>
                </g>
                <line x1="466" y1="58.5" x2="814" y2="58.5" id="Stroke-10" stroke="#262332" stroke-width="2" stroke-linecap="round"></line>
                <g id="Group-9" transform="translate(635.000000, 346.000000)">
                    <polygon id="Fill-1" fill="#FFFFFF" points="61.904395 153.878325 17.0395378 153.878325 29.3551807 221.379329 61.904395 221.379329 94.4526807 221.379329 106.769252 153.878325"></polygon>
                    <polygon id="Stroke-2" stroke="#262332" stroke-width="2" stroke-linecap="round" points="61.9040236 153.878603 17.040095 153.878603 29.3548093 221.378679 61.9040236 221.378679 94.4532378 221.378679 106.768881 153.878603"></polygon>
                    <path d="M113.443359,31.6786569 C113.443359,31.6786569 114.141645,47.9403891 116.237431,56.9495021 C118.334145,65.9586151 107.006502,81.4893264 106.731645,88.5543138 C106.457716,95.6202301 108.552574,110.179343 102.266145,116.467795 C95.9778593,122.758105 91.1270021,127.16095 88.3329307,136.780331 C85.5379307,146.401569 67.3360736,153.878975 67.3360736,153.878975 C67.3360736,153.878975 59.4952164,141.043845 59.4952164,134.055954 C59.4952164,127.067134 66.3963593,113.685828 65.9385736,102.492013 C65.2774307,86.3426736 75.7572878,78.0004895 78.5522878,69.5143305 C81.3472878,61.0291004 85.1497878,48.6825565 92.1363593,44.489636 C99.1220021,40.2967155 106.457716,37.0373096 113.443359,31.6786569" id="Fill-4" fill="url(#linearGradient-3)"></path>
                    <path d="M107.871931,31.6786569 C107.871931,31.6786569 108.570216,47.9403891 110.666002,56.9495021 C112.762716,65.9586151 101.435074,81.4893264 101.160216,88.5543138 C100.886288,95.6202301 102.981145,110.179343 96.6947164,116.467795 C90.4064307,122.758105 85.5555736,127.16095 82.7615021,136.780331 C79.9665021,146.401569 61.764645,153.878975 61.764645,153.878975 C61.764645,153.878975 53.9237878,141.043845 53.9237878,134.055954 C53.9237878,127.067134 60.8249307,113.685828 60.367145,102.492013 C59.7060021,86.3426736 70.1858593,78.0004895 72.9808593,69.5143305 C75.7758593,61.0291004 79.5783593,48.6825565 86.5649307,44.489636 C93.5505736,40.2967155 100.886288,37.0373096 107.871931,31.6786569 Z" id="Stroke-6" stroke="#262332" stroke-width="2" stroke-linecap="round"></path>
                    <path d="M61.7644593,153.878603 C61.7644593,153.878603 69.9516736,108.082511 94.0926736,53.1091808" id="Stroke-8" stroke="#262332" stroke-width="2" stroke-linecap="round"></path>
                    <path d="M9.41624498,1.32000408e-14 C9.41624498,1.32000408e-14 8.53688784,20.4778745 5.89695927,31.8221674 C3.25795927,43.1673891 17.5208164,62.7238243 17.8671736,71.6205439 C18.2135307,80.5181925 15.5736021,98.8503766 23.4906021,106.769925 C31.4085307,114.690402 37.5176021,120.2339 41.0368878,132.348226 C44.555245,144.462552 67.4761021,153.87851 67.4761021,153.87851 C67.4761021,153.87851 77.347745,137.716167 77.347745,128.91605 C77.347745,120.115933 68.6591021,103.266226 69.235745,89.1706192 C70.067745,68.8339331 56.8708878,58.3302678 53.3516021,47.6445439 C49.833245,36.9588201 45.0436736,21.412318 36.2473164,16.1326192 C27.4500307,10.8529205 18.2135307,6.74731381 9.41624498,1.32000408e-14" id="Fill-10" fill="url(#linearGradient-4)"></path>
                    <path d="M3.84481641,1.32000408e-14 C3.84481641,1.32000408e-14 2.96545927,20.4778745 0.325530699,31.8221674 C-2.3134693,43.1673891 11.9493878,62.7238243 12.295745,71.6205439 C12.6421021,80.5181925 10.0021736,98.8503766 17.9191736,106.769925 C25.8371021,114.690402 31.9461736,120.2339 35.4654593,132.348226 C38.9838164,144.462552 61.9046736,153.87851 61.9046736,153.87851 C61.9046736,153.87851 71.7763164,137.716167 71.7763164,128.91605 C71.7763164,120.115933 63.0876736,103.266226 63.6643164,89.1706192 C64.4963164,68.8339331 51.2994593,58.3302678 47.7801736,47.6445439 C44.2618164,36.9588201 39.472245,21.412318 30.6758878,16.1326192 C21.8786021,10.8529205 12.6421021,6.74731381 3.84481641,1.32000408e-14 Z" id="Stroke-12" stroke="#262332" stroke-width="2" stroke-linecap="round"></path>
                    <path d="M21.1956378,26.9852611 C51.5933521,96.2102485 61.9042093,153.878232 61.9042093,153.878232" id="Stroke-14" stroke="#262332" stroke-width="2" stroke-linecap="round"></path>
                    <line x1="56.929295" y1="131.542152" x2="47.6844378" y2="126.325617" id="Stroke-16" stroke="#262332" stroke-width="2" stroke-linecap="round"></line>
                    <line x1="45.1897378" y1="90.4323967" x2="25.789095" y2="82.5212084" id="Stroke-18" stroke="#262332" stroke-width="2" stroke-linecap="round"></line>
                    <line x1="29.866545" y1="47.7270276" x2="21.195545" y2="44.5846594" id="Stroke-20" stroke="#262332" stroke-width="2" stroke-linecap="round"></line>
                    <line x1="35.489695" y1="62.3666736" x2="39.4732664" y2="52.0153431" id="Stroke-22" stroke="#262332" stroke-width="2" stroke-linecap="round"></line>
                    <line x1="52.3073307" y1="111.463506" x2="56.9297593" y2="103.250435" id="Stroke-24" stroke="#262332" stroke-width="2" stroke-linecap="round"></line>
                    <line x1="27.3537378" y1="164.653127" x2="104.803095" y2="164.653127" id="Stroke-28" stroke="#262332" stroke-width="2" stroke-linecap="round"></line>
                    <line x1="95.2328664" y1="217.105225" x2="28.576295" y2="217.105225" id="Stroke-32" stroke="#262332" stroke-width="2" stroke-linecap="round"></line>
                </g>
                <g id="Group-7" transform="translate(848.000000, 325.000000)">
                    <rect id="Rectangle" fill="url(#linearGradient-5)" x="5.55555556" y="5.55555556" width="44.4444444" height="44.4444444" rx="2"></rect>
                    <rect id="Rectangle" stroke="#262332" stroke-width="2" stroke-linecap="round" x="0" y="0" width="44.4444444" height="44.4444444" rx="2"></rect>
                    <polyline id="Path-5" stroke="#262332" stroke-width="2" stroke-linecap="round" points="10.1851852 21.5246126 18.5994813 29.9389087 33.7235752 14.8148148"></polyline>
                </g>
                <circle id="Oval" stroke="#262332" stroke-width="2" stroke-linecap="round" cx="397.5" cy="12.5" r="12.5"></circle>
                <g id="Group" transform="translate(150.000000, 520.000000)">
                    <polygon id="Fill-59" fill="#FFFFFF" points="11.2258065 63 58 63 58 0 11.2258065 0"></polygon>
                    <polygon id="Stroke-61" fill="#FFFFFF" points="11.2258065 63 58 63 58 0 11.2258065 0"></polygon>
                    <polygon id="Stroke-61" stroke="#262332" stroke-width="2" stroke-linecap="round" points="11.2258065 63 58 63 58 0 11.2258065 0"></polygon>
                    <line x1="50.0727097" y1="45.4558712" x2="50.0727097" y2="50.7801124" id="Stroke-67" stroke="#262332" stroke-width="2" stroke-linecap="round"></line>
                    <line x1="50.0727097" y1="11.637898" x2="50.0727097" y2="40.6151529" id="Stroke-64" stroke="#262332" stroke-width="2" stroke-linecap="round"></line>
                    <path d="M5.9346177,43.5441176 L11.2258065,43.5441176 L11.2258065,9.26470588 L5.9346177,9.26470588 C2.65602836,9.26470588 0,11.7568841 0,14.8307881 L0,37.9780354 C0,41.0519394 2.65602836,43.5441176 5.9346177,43.5441176 Z" id="Stroke-62" stroke="#262332" stroke-width="2" stroke-linecap="round"></path>
                </g>
                <rect id="Rectangle" fill="#F5F5F5" x="234" y="133" width="86" height="55" rx="2"></rect>
                <g id="Group-10" transform="translate(244.000000, 125.000000)" stroke="#262332" stroke-linecap="round" stroke-width="2">
                    <line x1="-8.48180452e-13" y1="55.5333333" x2="82.3971167" y2="55.5333333" id="Path-8"></line>
                    <path d="M6.85779082,40.8272076 C9.23256341,33.9501738 13.5073595,31.9441163 19.6821792,34.8090351 C28.9444086,39.1064134 31.5073415,14.6423946 39.2906223,18.1476842 C47.0739032,21.6529738 67.0145861,24.7333333 73.2585173,1.32634644e-14" id="Path-9"></path>
                    <line x1="15.2510492" y1="55.6424806" x2="15.2510492" y2="45.7333333" id="Path-10"></line>
                    <line x1="41.3634088" y1="55.6424806" x2="41.3634088" y2="31.7333333" id="Path-10-Copy"></line>
                    <line x1="67.4757683" y1="55.6424806" x2="67.4757683" y2="27.0666667" id="Path-10-Copy-2"></line>
                </g>
                <circle id="Oval-Copy-3" fill="#F5F5F5" cx="576.5" cy="670.5" r="25.5"></circle>
                <path d="M575.966584,660.259121 L575.987097,709.842413 M566,670.648148 L710,670.648148" id="Combined-Shape" stroke="#262332" stroke-width="2" stroke-linecap="round"></path>
            </g>
        </g>
    </g>
</svg>