<svg width="1920" height="769" viewBox="0 0 1920 769" fill="none" xmlns="http://www.w3.org/2000/svg">
<rect width="1920" height="768" fill="url(#paint0_linear)"/>
<rect x="1749" y="521" width="37" height="37" rx="2" stroke="white" stroke-width="2" stroke-linecap="round"/>
<circle cx="1542" cy="262" r="8" stroke="white" stroke-width="2" stroke-linecap="round"/>
<rect x="184" y="630" width="20" height="20" rx="2" stroke="white" stroke-width="2" stroke-linecap="round"/>
<mask id="mask0" mask-type="alpha" maskUnits="userSpaceOnUse" x="1097" y="434" width="400" height="335">
<path fill-rule="evenodd" clip-rule="evenodd" d="M1097 434H1496.43V768.624H1097V434Z" fill="white"/>
</mask>
<g mask="url(#mask0)">
<path fill-rule="evenodd" clip-rule="evenodd" d="M1256 508.013C1255.68 508.013 1255.36 507.857 1255.17 507.57C1254.88 507.138 1252.23 503.427 1248.54 505.803C1248.08 506.102 1247.46 505.968 1247.16 505.505C1246.86 505.041 1246.99 504.422 1247.46 504.122C1251.78 501.33 1255.48 504.43 1256.83 506.459C1257.14 506.919 1257.01 507.539 1256.55 507.846C1256.38 507.959 1256.19 508.013 1256 508.013ZM1315.35 552.031C1311.87 552.031 1308.66 549.984 1308.46 549.851C1307.99 549.551 1307.86 548.932 1308.16 548.469C1308.46 548.008 1309.08 547.872 1309.54 548.174C1309.61 548.214 1315.8 552.149 1319.26 548.341C1319.63 547.931 1320.26 547.902 1320.67 548.272C1321.08 548.643 1321.11 549.276 1320.74 549.685C1319.14 551.449 1317.21 552.031 1315.35 552.031ZM1409.77 717.016C1409.09 717.016 1408.41 717.128 1407.73 717.355C1405.7 718.036 1403.95 719.661 1402.93 721.816C1401 725.875 1402.17 730.606 1405.55 732.361C1406.98 733.104 1408.66 733.213 1410.27 732.671C1412.3 731.991 1414.05 730.365 1415.07 728.211C1417 724.151 1415.83 719.42 1412.45 717.666C1411.62 717.234 1410.71 717.016 1409.77 717.016ZM1408.23 735.012C1406.98 735.012 1405.75 734.717 1404.62 734.135C1400.31 731.889 1398.73 725.978 1401.12 720.956C1402.38 718.316 1404.55 716.312 1407.09 715.459C1409.23 714.742 1411.46 714.896 1413.38 715.891C1417.69 718.136 1419.27 724.048 1416.88 729.071C1415.62 731.711 1413.45 733.714 1410.91 734.567C1410.02 734.864 1409.12 735.012 1408.23 735.012ZM1148.07 748.628C1147.52 748.628 1147.07 748.181 1147.07 747.628V718.651C1147.07 718.098 1147.52 717.651 1148.07 717.651C1148.62 717.651 1149.07 718.098 1149.07 718.651V747.628C1149.07 748.181 1148.62 748.628 1148.07 748.628ZM1148.07 758.793C1147.52 758.793 1147.07 758.346 1147.07 757.793V752.469C1147.07 751.916 1147.52 751.469 1148.07 751.469C1148.62 751.469 1149.07 751.916 1149.07 752.469V757.793C1149.07 758.346 1148.62 758.793 1148.07 758.793ZM1103.93 717.278C1101.21 717.278 1099 719.326 1099 721.844V744.991C1099 747.508 1101.21 749.557 1103.93 749.557H1108.23V717.278H1103.93ZM1156 768.623C1155.44 768.623 1155 768.176 1155 767.623V708.013H1110.23V767.623C1110.23 768.176 1109.78 768.623 1109.23 768.623C1108.67 768.623 1108.23 768.176 1108.23 767.623V751.557H1103.93C1100.11 751.557 1097 748.612 1097 744.991V721.844C1097 718.223 1100.11 715.278 1103.93 715.278H1108.23V706.013H1157V767.623C1157 768.176 1156.55 768.623 1156 768.623ZM1262.71 514.013H1264.24C1264.23 513.274 1264.2 512.184 1264.15 510.95C1264.03 507.971 1263.75 504.128 1263.1 502.348H1263.1C1263.09 502.345 1263.09 502.343 1263.09 502.34C1262.63 501.076 1261.68 496.552 1261.68 491.999C1261.68 488.35 1262.29 484.682 1264.26 482.656C1265.34 481.544 1267.33 480.452 1270.66 481.566C1273.67 482.57 1276.38 483.497 1278.87 484.352C1286.54 486.981 1292.09 488.88 1298.32 490.275C1299.93 490.636 1301.02 490.493 1301.55 489.852C1301.93 489.396 1302.07 488.703 1302.07 487.918C1302.07 486.042 1301.25 483.638 1300.83 482.67L1299.54 479.7L1302.28 481.428C1302.28 481.43 1302.29 481.432 1302.3 481.437C1302.3 481.438 1302.3 481.439 1302.3 481.439C1302.3 481.441 1302.31 481.444 1302.31 481.446C1302.31 481.449 1302.32 481.451 1302.32 481.454C1303.45 482.152 1325.77 495.794 1333.3 486.541L1334.61 484.928L1335.05 486.961C1335.16 487.462 1337.34 497.633 1337.53 507.033C1338.33 505.818 1339.33 504.441 1340.48 502.854C1346.06 495.185 1355.38 482.348 1359.28 462.346C1361.13 452.866 1359.38 445.449 1354.23 440.897C1348.36 435.702 1338.38 434.542 1328.18 437.864C1319.08 440.834 1305.24 443.628 1293.04 446.093C1282.32 448.258 1272.19 450.303 1267.69 452C1250.36 458.533 1244.2 474.757 1250.3 497.721C1252.48 497.937 1258.39 498.849 1259.48 502.432C1260.39 505.398 1262.13 511.829 1262.71 514.013ZM1284.46 563.143C1293.84 566.83 1307.37 570.169 1312.57 566.241C1328.69 554.061 1333.91 529.993 1335.43 511.731V511.729C1336 503.808 1334.25 493.369 1333.46 489.208C1325.55 495.735 1309.7 487.948 1303.62 484.54C1303.62 484.539 1303.62 484.537 1303.62 484.536C1303.6 484.526 1303.58 484.516 1303.56 484.506C1303.84 485.525 1304.06 486.718 1304.06 487.868C1304.06 489.087 1303.81 490.259 1303.09 491.127C1302.04 492.395 1300.29 492.765 1297.88 492.226H1297.88C1292.06 490.924 1286.88 489.204 1280.09 486.882C1279.48 486.674 1278.86 486.462 1278.22 486.244C1275.73 485.39 1273.03 484.465 1270.03 483.463C1268.12 482.823 1266.7 483.015 1265.69 484.05C1264.17 485.615 1263.68 488.737 1263.68 491.949C1263.68 496.07 1264.49 500.338 1264.97 501.651C1264.97 501.655 1264.97 501.658 1264.97 501.661C1264.97 501.662 1264.98 501.663 1264.98 501.664C1264.98 501.666 1264.98 501.668 1264.98 501.671C1264.98 501.672 1264.98 501.674 1264.98 501.675C1264.98 501.677 1264.98 501.679 1264.98 501.681C1264.98 501.682 1264.98 501.683 1264.98 501.685C1264.98 501.687 1264.98 501.689 1264.98 501.691C1264.99 501.692 1264.99 501.693 1264.99 501.695C1264.99 501.697 1264.99 501.699 1264.99 501.701C1264.99 501.702 1264.99 501.703 1264.99 501.704C1264.99 501.707 1264.99 501.709 1264.99 501.711C1264.99 501.712 1264.99 501.713 1264.99 501.714L1265 501.721C1265 501.722 1265 501.723 1265 501.724C1265 501.727 1265 501.729 1265 501.732C1265 501.733 1265 501.733 1265 501.734C1265 501.737 1265 501.74 1265 501.743C1265 501.743 1265 501.743 1265 501.744C1265.63 503.537 1265.94 506.839 1266.1 509.717C1266.2 511.65 1266.23 513.381 1266.24 514.309C1266.25 514.54 1266.25 514.73 1266.25 514.87V516.013H1261.18L1260.98 515.271C1260.96 515.184 1258.65 506.568 1257.57 503.015C1256.84 500.612 1251.33 499.766 1249.46 499.66L1248.74 499.619L1248.63 499.211C1245.31 499.854 1242.36 502.069 1240.96 505.024C1239.2 508.726 1239.9 513.328 1242.91 517.982C1250.47 529.651 1254.57 530.931 1256.34 530.659C1258.42 530.336 1259.19 527.609 1259.23 527.493L1261.19 527.843C1261.17 528.056 1259.44 547.026 1274.8 558.124C1277.38 559.887 1280.61 561.568 1284.46 563.143ZM1273.01 587.134L1302.74 590.699L1304.48 570C1304.24 569.993 1304 569.983 1303.76 569.971C1299.06 569.751 1293.92 568.682 1288.46 566.786C1286.84 566.225 1285.3 565.647 1283.84 565.053C1282.44 564.504 1281.16 563.959 1280.04 563.45C1278.21 562.618 1276.54 561.697 1275.02 560.704L1273.01 587.134ZM1221.75 717.19L1231.68 720.8V683.875C1228.69 694.873 1223.26 712.348 1221.75 717.19ZM1333.97 703.273L1326.39 749.755L1351.1 682.622L1338.85 673.324L1333.99 703.174C1333.98 703.207 1333.98 703.241 1333.97 703.273ZM1268.27 756.554C1270.09 756.606 1271.94 756.652 1273.83 756.696C1273.9 756.427 1273.99 756.092 1274.09 755.7L1274.2 755.274C1274.21 755.216 1274.23 755.161 1274.25 755.111L1278.1 739.805L1219.27 718.416L1219.55 717.503C1224.43 701.97 1231.68 677.832 1231.68 675.003H1233.68V721.03L1280.48 738.542L1284.46 739.446C1291.21 737.172 1306.45 732.238 1308.83 733.161C1310.85 733.938 1319.62 744.773 1324.08 751.478L1339.01 659.852C1339.1 659.308 1339.61 658.939 1340.16 659.026C1340.71 659.115 1341.08 659.628 1340.99 660.174L1339.21 671.089L1351.82 680.659L1352.43 679.013H1413L1341.76 606.281L1302.81 592.733L1272.01 589.029L1211.73 605.198C1210.37 608.12 1202.22 625.904 1194.12 647.659C1182.46 678.967 1176.19 704.249 1176.01 720.775C1175.76 742.463 1185.79 747.75 1208.37 751.396C1216.59 752.724 1225.75 753.827 1235.6 754.676L1268.27 756.554ZM1305.57 749.686L1306.41 750.978C1308.61 754.361 1312.79 758.743 1315.71 759.926C1316.66 760.312 1319.93 759.483 1323.01 758.088L1323.6 754.434C1319.54 747.736 1309.63 735.74 1308.1 735.023C1306.59 734.618 1295.07 737.974 1284.84 741.43L1284.57 741.52L1280.29 740.55C1279.94 741.409 1279.55 742.633 1279.1 744.257C1279.09 744.285 1279.09 744.318 1279.08 744.352C1279.07 744.38 1279.06 744.413 1279.05 744.449C1278.86 745.198 1278.67 745.947 1278.49 746.679L1278.32 747.349C1278.29 747.444 1278.27 747.538 1278.24 747.633C1277.32 751.472 1276.53 755.473 1276.18 757.318C1279.01 757.654 1286.9 758.57 1292.63 759.026C1299.1 759.55 1304.67 751.067 1304.73 750.98L1305.57 749.686ZM1320.88 768.623C1320.82 768.623 1320.76 768.618 1320.7 768.608H1320.7H1320.7C1320.59 768.587 1320.48 768.547 1320.38 768.492C1320.25 768.416 1320.14 768.312 1320.05 768.19C1319.97 768.073 1319.92 767.938 1319.89 767.792C1319.87 767.68 1319.87 767.563 1319.89 767.447C1319.9 767.381 1319.92 767.317 1319.95 767.256L1322.44 760.491C1320.26 761.353 1316.73 762.507 1314.96 761.778C1311.98 760.575 1308.08 756.724 1305.55 753.263C1303.61 755.821 1298.56 761.502 1292.47 761.02C1285.37 760.454 1274.98 759.188 1274.88 759.175L1273.82 759.047L1273.84 758.96C1268.43 758.708 1244.71 757.603 1232.95 757.012C1232.54 756.992 1232.2 756.727 1232.06 756.367C1223.44 755.56 1215.38 754.554 1208.05 753.37C1194.77 751.227 1187.28 748.567 1182.2 744.19C1176.41 739.202 1173.88 731.975 1174.01 720.751C1174.25 699.583 1184.06 668.932 1192.25 646.947C1201.1 623.167 1210.02 604.117 1210.11 603.928L1210.31 603.507L1270.99 587.232L1273.12 559.374C1261.52 550.683 1259.44 537.725 1259.16 531.392C1258.52 531.991 1257.69 532.473 1256.65 532.636C1252.6 533.271 1247.56 528.826 1241.23 519.07C1237.83 513.812 1237.09 508.519 1239.15 504.167C1240.83 500.631 1244.2 498.064 1248.12 497.272C1242.14 473.689 1248.8 456.981 1266.98 450.129C1271.64 448.374 1281.37 446.409 1292.64 444.132C1304.79 441.678 1318.57 438.896 1327.57 435.962C1338.43 432.42 1349.15 433.738 1355.56 439.399C1359.54 442.918 1363.76 449.823 1361.24 462.728C1357.26 483.165 1347.77 496.226 1342.1 504.03C1339.58 507.49 1337.59 510.233 1337.43 511.809C1335.88 530.49 1330.51 555.193 1313.77 567.837C1311.94 569.221 1309.4 569.865 1306.49 569.991L1304.7 591.272L1342.86 604.546L1343.02 604.713L1415.8 679.013H1496.43L1463.69 767.969C1463.5 768.489 1462.92 768.752 1462.4 768.562C1461.88 768.371 1461.62 767.796 1461.81 767.278L1493.56 681.013H1415.38H1415.38H1353.83L1353.24 682.596C1353.24 682.611 1353.23 682.624 1353.23 682.639L1325.13 758.989C1325.13 758.99 1325.13 758.99 1325.13 758.991L1322.31 766.623H1322.49C1323.04 766.623 1323.49 767.071 1323.49 767.623C1323.49 768.176 1323.04 768.623 1322.49 768.623H1320.9H1320.88Z" fill="white"/>
</g>
<defs>
<linearGradient id="paint0_linear" x1="-960" y1="384" x2="-430.345" y2="1708.14" gradientUnits="userSpaceOnUse">
<stop stop-color="#009EFF"/>
<stop offset="1" stop-color="#30CCC6"/>
</linearGradient>
</defs>
</svg>
