<?xml version="1.0" encoding="utf-8"?>
<svg width="1920px" height="666px" viewBox="0 0 1920 666" version="1.1" xmlns:xlink="http://www.w3.org/1999/xlink" xmlns="http://www.w3.org/2000/svg">
  <desc>Created with Lunacy</desc>
  <defs>
    <linearGradient x1="0" y1="0" x2="1" y2="1" id="gradient_1">
      <stop offset="0" stop-color="#009EFF" />
      <stop offset="1" stop-color="#30CCC6" />
    </linearGradient>
  </defs>
  <g id="Group-14" transform="translate(0 1)">
    <path d="M0 0L1920 0L1920 664L0 664L0 0Z" id="Rectangle-Copy-23" fill="url(#gradient_1)" fill-rule="evenodd" stroke="none" />
    <path d="M27.5 55C42.6878 55 55 42.6878 55 27.5C55 12.3122 42.6878 0 27.5 0C12.3122 0 0 12.3122 0 27.5C0 42.6878 12.3122 55 27.5 55Z" transform="translate(1609 376)" id="Oval-Copy-3" fill="#262332" fill-opacity="0.1" fill-rule="evenodd" stroke="none" />
    <path d="M10.7279 6.51777e-05L10.75 53.55M-2.18557e-08 11.2202L155 11.2202" transform="translate(1625 392.2798)" id="Combined-Shape" fill="none" fill-rule="evenodd" stroke="#FFFFFF" stroke-width="2" stroke-linecap="round" />
    <path d="M50 100C77.6142 100 100 77.6142 100 50C100 22.3858 77.6142 0 50 0C22.3858 0 0 22.3858 0 50C0 77.6142 22.3858 100 50 100Z" transform="translate(137 145)" id="Oval" fill="#262332" fill-opacity="0.101960786" fill-rule="evenodd" stroke="none" />
    <path d="M1.999 0L30.001 0Q30.0992 0 30.1969 0.00962573Q30.2947 0.0192515 30.391 0.0384102Q30.4873 0.057569 30.5813 0.0860763Q30.6753 0.114584 30.766 0.152165Q30.8567 0.189746 30.9433 0.236039Q31.0299 0.282333 31.1116 0.336892Q31.1932 0.391452 31.2692 0.453752Q31.3451 0.516052 31.4145 0.585494Q31.4839 0.654935 31.5462 0.730848Q31.6085 0.806761 31.6631 0.888415Q31.7177 0.970069 31.764 1.05668Q31.8103 1.14329 31.8478 1.23402Q31.8854 1.32474 31.9139 1.41872Q31.9424 1.5127 31.9616 1.60901Q31.9807 1.70533 31.9904 1.80306Q32 1.9008 32 1.999L32 30.001Q32 30.0992 31.9904 30.1969Q31.9807 30.2947 31.9616 30.391Q31.9424 30.4873 31.9139 30.5813Q31.8854 30.6753 31.8478 30.766Q31.8103 30.8567 31.764 30.9433Q31.7177 31.0299 31.6631 31.1116Q31.6085 31.1932 31.5462 31.2692Q31.4839 31.3451 31.4145 31.4145Q31.3451 31.4839 31.2692 31.5462Q31.1932 31.6085 31.1116 31.6631Q31.0299 31.7177 30.9433 31.764Q30.8567 31.8103 30.766 31.8478Q30.6753 31.8854 30.5813 31.9139Q30.4873 31.9424 30.391 31.9616Q30.2947 31.9807 30.1969 31.9904Q30.0992 32 30.001 32L1.999 32Q1.9008 32 1.80306 31.9904Q1.70533 31.9807 1.60901 31.9616Q1.5127 31.9424 1.41872 31.9139Q1.32474 31.8854 1.23402 31.8478Q1.14329 31.8103 1.05668 31.764Q0.970069 31.7177 0.888415 31.6631Q0.806761 31.6085 0.730848 31.5462Q0.654935 31.4839 0.585494 31.4145Q0.516052 31.3451 0.453752 31.2692Q0.391452 31.1932 0.336892 31.1116Q0.282333 31.0299 0.236039 30.9433Q0.189746 30.8567 0.152165 30.766Q0.114584 30.6753 0.0860763 30.5813Q0.057569 30.4873 0.0384102 30.391Q0.0192515 30.2947 0.00962573 30.1969Q0 30.0992 0 30.001L0 1.999Q0 1.9008 0.00962573 1.80306Q0.0192515 1.70533 0.0384102 1.60901Q0.057569 1.5127 0.0860763 1.41872Q0.114584 1.32474 0.152165 1.23402Q0.189746 1.14329 0.236039 1.05668Q0.282333 0.970069 0.336892 0.888415Q0.391452 0.806761 0.453752 0.730848Q0.516052 0.654935 0.585494 0.585494Q0.654935 0.516052 0.730848 0.453752Q0.806761 0.391452 0.888415 0.336892Q0.970069 0.282333 1.05668 0.236039Q1.14329 0.189746 1.23402 0.152165Q1.32474 0.114584 1.41872 0.0860763Q1.5127 0.057569 1.60901 0.0384102Q1.70533 0.0192515 1.80306 0.00962573Q1.9008 0 1.999 0L1.999 0Z" transform="translate(132 140)" id="Rectangle" fill="none" fill-rule="evenodd" stroke="#FFFFFF" stroke-width="2" stroke-linecap="round" />
    <path d="M1.999 0L16.001 0Q16.0992 0 16.1969 0.00962573Q16.2947 0.0192515 16.391 0.0384102Q16.4873 0.057569 16.5813 0.0860763Q16.6753 0.114584 16.766 0.152165Q16.8567 0.189746 16.9433 0.236039Q17.0299 0.282333 17.1116 0.336892Q17.1932 0.391452 17.2691 0.453752Q17.3451 0.516052 17.4145 0.585494Q17.4839 0.654935 17.5462 0.730848Q17.6085 0.806761 17.6631 0.888415Q17.7177 0.970069 17.764 1.05668Q17.8103 1.14329 17.8478 1.23402Q17.8854 1.32474 17.9139 1.41872Q17.9424 1.5127 17.9616 1.60901Q17.9807 1.70533 17.9904 1.80306Q18 1.9008 18 1.999L18 16.001Q18 16.0992 17.9904 16.1969Q17.9807 16.2947 17.9616 16.391Q17.9424 16.4873 17.9139 16.5813Q17.8854 16.6753 17.8478 16.766Q17.8103 16.8567 17.764 16.9433Q17.7177 17.0299 17.6631 17.1116Q17.6085 17.1932 17.5462 17.2691Q17.4839 17.3451 17.4145 17.4145Q17.3451 17.4839 17.2691 17.5462Q17.1932 17.6085 17.1116 17.6631Q17.0299 17.7177 16.9433 17.764Q16.8567 17.8103 16.766 17.8478Q16.6753 17.8854 16.5813 17.9139Q16.4873 17.9424 16.391 17.9616Q16.2947 17.9807 16.1969 17.9904Q16.0992 18 16.001 18L1.999 18Q1.9008 18 1.80306 17.9904Q1.70533 17.9807 1.60901 17.9616Q1.5127 17.9424 1.41872 17.9139Q1.32474 17.8854 1.23402 17.8478Q1.14329 17.8103 1.05668 17.764Q0.970069 17.7177 0.888415 17.6631Q0.806761 17.6085 0.730848 17.5462Q0.654935 17.4839 0.585494 17.4145Q0.516052 17.3451 0.453752 17.2691Q0.391452 17.1932 0.336892 17.1116Q0.282333 17.0299 0.236039 16.9433Q0.189746 16.8567 0.152165 16.766Q0.114584 16.6753 0.0860763 16.5813Q0.057569 16.4873 0.0384102 16.391Q0.0192515 16.2947 0.00962573 16.1969Q0 16.0992 0 16.001L0 1.999Q0 1.9008 0.00962573 1.80306Q0.0192515 1.70533 0.0384102 1.60901Q0.057569 1.5127 0.0860763 1.41872Q0.114584 1.32474 0.152165 1.23402Q0.189746 1.14329 0.236039 1.05668Q0.282333 0.970069 0.336892 0.888415Q0.391452 0.806761 0.453752 0.730848Q0.516052 0.654935 0.585494 0.585494Q0.654935 0.516052 0.730848 0.453752Q0.806761 0.391452 0.888415 0.336892Q0.970069 0.282333 1.05668 0.236039Q1.14329 0.189746 1.23402 0.152165Q1.32474 0.114584 1.41872 0.0860763Q1.5127 0.057569 1.60901 0.0384102Q1.70533 0.0192515 1.80306 0.00962573Q1.9008 0 1.999 0Z" transform="translate(310 462)" id="Rectangle-Copy-26" fill="none" fill-rule="evenodd" stroke="#FFFFFF" stroke-width="2" stroke-linecap="round" />
    <path d="M1.999 0L16.001 0Q16.0992 0 16.1969 0.00962573Q16.2947 0.0192515 16.391 0.0384102Q16.4873 0.057569 16.5813 0.0860763Q16.6753 0.114584 16.766 0.152165Q16.8567 0.189746 16.9433 0.236039Q17.0299 0.282333 17.1116 0.336892Q17.1932 0.391452 17.2691 0.453752Q17.3451 0.516052 17.4145 0.585494Q17.4839 0.654935 17.5462 0.730848Q17.6085 0.806761 17.6631 0.888415Q17.7177 0.970069 17.764 1.05668Q17.8103 1.14329 17.8478 1.23402Q17.8854 1.32474 17.9139 1.41872Q17.9424 1.5127 17.9616 1.60901Q17.9807 1.70533 17.9904 1.80306Q18 1.9008 18 1.999L18 16.001Q18 16.0992 17.9904 16.1969Q17.9807 16.2947 17.9616 16.391Q17.9424 16.4873 17.9139 16.5813Q17.8854 16.6753 17.8478 16.766Q17.8103 16.8567 17.764 16.9433Q17.7177 17.0299 17.6631 17.1116Q17.6085 17.1932 17.5462 17.2691Q17.4839 17.3451 17.4145 17.4145Q17.3451 17.4839 17.2691 17.5462Q17.1932 17.6085 17.1116 17.6631Q17.0299 17.7177 16.9433 17.764Q16.8567 17.8103 16.766 17.8478Q16.6753 17.8854 16.5813 17.9139Q16.4873 17.9424 16.391 17.9616Q16.2947 17.9807 16.1969 17.9904Q16.0992 18 16.001 18L1.999 18Q1.9008 18 1.80306 17.9904Q1.70533 17.9807 1.60901 17.9616Q1.5127 17.9424 1.41872 17.9139Q1.32474 17.8854 1.23402 17.8478Q1.14329 17.8103 1.05668 17.764Q0.970069 17.7177 0.888415 17.6631Q0.806761 17.6085 0.730848 17.5462Q0.654935 17.4839 0.585494 17.4145Q0.516052 17.3451 0.453752 17.2691Q0.391452 17.1932 0.336892 17.1116Q0.282333 17.0299 0.236039 16.9433Q0.189746 16.8567 0.152165 16.766Q0.114584 16.6753 0.0860763 16.5813Q0.057569 16.4873 0.0384102 16.391Q0.0192515 16.2947 0.00962573 16.1969Q0 16.0992 0 16.001L0 1.999Q0 1.9008 0.00962573 1.80306Q0.0192515 1.70533 0.0384102 1.60901Q0.057569 1.5127 0.0860763 1.41872Q0.114584 1.32474 0.152165 1.23402Q0.189746 1.14329 0.236039 1.05668Q0.282333 0.970069 0.336892 0.888415Q0.391452 0.806761 0.453752 0.730848Q0.516052 0.654935 0.585494 0.585494Q0.654935 0.516052 0.730848 0.453752Q0.806761 0.391452 0.888415 0.336892Q0.970069 0.282333 1.05668 0.236039Q1.14329 0.189746 1.23402 0.152165Q1.32474 0.114584 1.41872 0.0860763Q1.5127 0.057569 1.60901 0.0384102Q1.70533 0.0192515 1.80306 0.00962573Q1.9008 0 1.999 0Z" transform="translate(1561 173)" id="Rectangle-Copy-30" fill="#262332" fill-opacity="0.1" fill-rule="evenodd" stroke="none" />
  </g>
</svg>