<?xml version="1.0" encoding="utf-8"?>
<svg width="30px" height="30px" viewBox="0 0 30 30" version="1.1" xmlns:xlink="http://www.w3.org/1999/xlink" xmlns="http://www.w3.org/2000/svg">
  <desc>Created with Lunacy</desc>
  <defs>
    <linearGradient x1="0" y1="0" x2="1" y2="1" id="gradient_1">
      <stop offset="0" stop-color="#009EFF" />
      <stop offset="1" stop-color="#30CCC6" />
    </linearGradient>
  </defs>
  <g id="icon/menu">
    <path d="M28.001 0L9.999 0Q9.90079 0 9.80306 0.00962573Q9.70533 0.0192515 9.60901 0.0384102Q9.5127 0.057569 9.41872 0.0860763Q9.32474 0.114584 9.23401 0.152165Q9.14329 0.189746 9.05668 0.236039Q8.97007 0.282333 8.88841 0.336892Q8.80676 0.391452 8.73085 0.453752Q8.65493 0.516052 8.58549 0.585494Q8.51605 0.654935 8.45375 0.730848Q8.39145 0.806761 8.33689 0.888415Q8.28233 0.970069 8.23604 1.05668Q8.18974 1.14329 8.15216 1.23402Q8.11458 1.32474 8.08608 1.41872Q8.05757 1.5127 8.03841 1.60901Q8.01925 1.70533 8.00963 1.80306Q8 1.9008 8 1.999L8 2.001Q8 2.0992 8.00963 2.19694Q8.01925 2.29467 8.03841 2.39099Q8.05757 2.4873 8.08608 2.58128Q8.11458 2.67525 8.15216 2.76598Q8.18974 2.85671 8.23604 2.94332Q8.28233 3.02993 8.33689 3.11158Q8.39145 3.19324 8.45375 3.26915Q8.51605 3.34507 8.58549 3.41451Q8.65493 3.48395 8.73085 3.54625Q8.80676 3.60855 8.88841 3.66311Q8.97007 3.71767 9.05668 3.76396Q9.14329 3.81025 9.23401 3.84783Q9.32474 3.88542 9.41872 3.91392Q9.5127 3.94243 9.60901 3.96159Q9.70533 3.98075 9.80306 3.99037Q9.90079 4 9.999 4L28.001 4Q28.0992 4 28.1969 3.99037Q28.2947 3.98075 28.391 3.96159Q28.4873 3.94243 28.5813 3.91392Q28.6753 3.88542 28.766 3.84783Q28.8567 3.81025 28.9433 3.76396Q29.0299 3.71767 29.1116 3.66311Q29.1932 3.60855 29.2692 3.54625Q29.3451 3.48395 29.4145 3.41451Q29.4839 3.34507 29.5462 3.26915Q29.6085 3.19324 29.6631 3.11158Q29.7177 3.02993 29.764 2.94332Q29.8103 2.85671 29.8478 2.76598Q29.8854 2.67525 29.9139 2.58128Q29.9424 2.4873 29.9616 2.39099Q29.9807 2.29467 29.9904 2.19694Q30 2.0992 30 2.001L30 1.999Q30 1.9008 29.9904 1.80306Q29.9807 1.70533 29.9616 1.60901Q29.9424 1.5127 29.9139 1.41872Q29.8854 1.32474 29.8478 1.23402Q29.8103 1.14329 29.764 1.05668Q29.7177 0.970069 29.6631 0.888415Q29.6085 0.806761 29.5462 0.730848Q29.4839 0.654935 29.4145 0.585494Q29.3451 0.516052 29.2691 0.453752Q29.1932 0.391452 29.1116 0.336892Q29.0299 0.282333 28.9433 0.236039Q28.8567 0.189746 28.766 0.152165Q28.6753 0.114584 28.5813 0.0860763Q28.4873 0.057569 28.391 0.0384102Q28.2947 0.0192515 28.1969 0.00962573Q28.0992 0 28.001 0ZM28.001 10L1.999 10Q1.9008 10 1.80306 10.0096Q1.70533 10.0193 1.60901 10.0384Q1.5127 10.0576 1.41872 10.0861Q1.32474 10.1146 1.23402 10.1522Q1.14329 10.1897 1.05668 10.236Q0.970069 10.2823 0.888415 10.3369Q0.806761 10.3915 0.730848 10.4538Q0.654935 10.5161 0.585493 10.5855Q0.516052 10.6549 0.453752 10.7308Q0.391452 10.8068 0.336892 10.8884Q0.282333 10.9701 0.236039 11.0567Q0.189746 11.1433 0.152165 11.234Q0.114584 11.3247 0.0860763 11.4187Q0.057569 11.5127 0.0384102 11.609Q0.0192515 11.7053 0.00962573 11.8031Q0 11.9008 0 11.999L0 12.001Q0 12.0992 0.00962573 12.1969Q0.0192515 12.2947 0.0384102 12.391Q0.057569 12.4873 0.0860763 12.5813Q0.114584 12.6753 0.152165 12.766Q0.189746 12.8567 0.236039 12.9433Q0.282333 13.0299 0.336892 13.1116Q0.391452 13.1932 0.453752 13.2692Q0.516052 13.3451 0.585494 13.4145Q0.654935 13.4839 0.730848 13.5462Q0.806761 13.6085 0.888415 13.6631Q0.970069 13.7177 1.05668 13.764Q1.14329 13.8103 1.23402 13.8478Q1.32474 13.8854 1.41872 13.9139Q1.5127 13.9424 1.60901 13.9616Q1.70533 13.9807 1.80306 13.9904Q1.9008 14 1.999 14L28.001 14Q28.0992 14 28.1969 13.9904Q28.2947 13.9807 28.391 13.9616Q28.4873 13.9424 28.5813 13.9139Q28.6753 13.8854 28.766 13.8478Q28.8567 13.8103 28.9433 13.764Q29.0299 13.7177 29.1116 13.6631Q29.1932 13.6085 29.2692 13.5462Q29.3451 13.4839 29.4145 13.4145Q29.4839 13.3451 29.5462 13.2692Q29.6085 13.1932 29.6631 13.1116Q29.7177 13.0299 29.764 12.9433Q29.8103 12.8567 29.8478 12.766Q29.8854 12.6753 29.9139 12.5813Q29.9424 12.4873 29.9616 12.391Q29.9807 12.2947 29.9904 12.1969Q30 12.0992 30 12.001L30 11.999Q30 11.9008 29.9904 11.8031Q29.9807 11.7053 29.9616 11.609Q29.9424 11.5127 29.9139 11.4187Q29.8854 11.3247 29.8478 11.234Q29.8103 11.1433 29.764 11.0567Q29.7177 10.9701 29.6631 10.8884Q29.6085 10.8068 29.5462 10.7308Q29.4839 10.6549 29.4145 10.5855Q29.3451 10.5161 29.2691 10.4538Q29.1932 10.3915 29.1116 10.3369Q29.0299 10.2823 28.9433 10.236Q28.8567 10.1897 28.766 10.1522Q28.6753 10.1146 28.5813 10.0861Q28.4873 10.0576 28.391 10.0384Q28.2947 10.0193 28.1969 10.0096Q28.0992 10 28.001 10ZM9.999 20L28.001 20Q28.0992 20 28.1969 20.0096Q28.2947 20.0193 28.391 20.0384Q28.4873 20.0576 28.5813 20.0861Q28.6753 20.1146 28.766 20.1522Q28.8567 20.1897 28.9433 20.236Q29.0299 20.2823 29.1116 20.3369Q29.1932 20.3915 29.2692 20.4538Q29.3451 20.5161 29.4145 20.5855Q29.4839 20.6549 29.5462 20.7308Q29.6085 20.8068 29.6631 20.8884Q29.7177 20.9701 29.764 21.0567Q29.8103 21.1433 29.8478 21.234Q29.8854 21.3247 29.9139 21.4187Q29.9424 21.5127 29.9616 21.609Q29.9807 21.7053 29.9904 21.8031Q30 21.9008 30 21.999L30 22.001Q30 22.0992 29.9904 22.1969Q29.9807 22.2947 29.9616 22.391Q29.9424 22.4873 29.9139 22.5813Q29.8854 22.6753 29.8478 22.766Q29.8103 22.8567 29.764 22.9433Q29.7177 23.0299 29.6631 23.1116Q29.6085 23.1932 29.5462 23.2691Q29.4839 23.3451 29.4145 23.4145Q29.3451 23.4839 29.2691 23.5462Q29.1932 23.6085 29.1116 23.6631Q29.0299 23.7177 28.9433 23.764Q28.8567 23.8103 28.766 23.8478Q28.6753 23.8854 28.5813 23.9139Q28.4873 23.9424 28.391 23.9616Q28.2947 23.9807 28.1969 23.9904Q28.0992 24 28.001 24L9.999 24Q9.90079 24 9.80306 23.9904Q9.70533 23.9807 9.60901 23.9616Q9.5127 23.9424 9.41872 23.9139Q9.32474 23.8854 9.23401 23.8478Q9.14329 23.8103 9.05668 23.764Q8.97007 23.7177 8.88841 23.6631Q8.80676 23.6085 8.73085 23.5462Q8.65493 23.4839 8.58549 23.4145Q8.51605 23.3451 8.45375 23.2691Q8.39145 23.1932 8.33689 23.1116Q8.28233 23.0299 8.23604 22.9433Q8.18974 22.8567 8.15216 22.766Q8.11458 22.6753 8.08608 22.5813Q8.05757 22.4873 8.03841 22.391Q8.01925 22.2947 8.00963 22.1969Q8 22.0992 8 22.001L8 21.999Q8 21.9008 8.00963 21.8031Q8.01925 21.7053 8.03841 21.609Q8.05757 21.5127 8.08608 21.4187Q8.11458 21.3247 8.15216 21.234Q8.18974 21.1433 8.23604 21.0567Q8.28233 20.9701 8.33689 20.8884Q8.39145 20.8068 8.45375 20.7308Q8.51605 20.6549 8.58549 20.5855Q8.65493 20.5161 8.73085 20.4538Q8.80676 20.3915 8.88841 20.3369Q8.97007 20.2823 9.05668 20.236Q9.14329 20.1897 9.23401 20.1522Q9.32474 20.1146 9.41872 20.0861Q9.5127 20.0576 9.60901 20.0384Q9.70533 20.0193 9.80306 20.0096Q9.90079 20 9.999 20Z" transform="translate(0 3)" id="Combined-Shape" fill="url(#gradient_1)" fill-rule="evenodd" stroke="none" />
  </g>
</svg>