<?xml version="1.0" encoding="UTF-8"?>
<svg width="344px" height="347px" viewBox="0 0 344 347" version="1.1" xmlns="http://www.w3.org/2000/svg" xmlns:xlink="http://www.w3.org/1999/xlink">
    <title>43C38FCE-02A6-47F1-AF6E-385C81E32585</title>
    <g id="Desktop" stroke="none" stroke-width="1" fill="none" fill-rule="evenodd" stroke-linecap="round">
        <g id="Service---mobile-app" transform="translate(-1155.000000, -494.000000)" stroke="#FFFFFF" stroke-width="2">
            <g id="Group" transform="translate(1156.000000, 495.000000)">
                <rect id="Rectangle-Copy-3" x="295" y="156" width="46" height="56" rx="2"></rect>
                <rect id="Rectangle-Copy" x="136" y="0" width="205" height="345" rx="30"></rect>
                <path d="M200,0 L278,0 L278,12 C278,14.7614237 275.761424,17 273,17 L205,17 C202.238576,17 200,14.7614237 200,12 L200,0 L200,0 Z" id="Rectangle"></path>
                <g id="Group-6" transform="translate(0.000000, 43.000000)">
                    <rect id="Rectangle" x="0.375" y="0" width="207" height="86" rx="2"></rect>
                    <rect id="Rectangle" x="17.375" y="18" width="50" height="50" rx="2"></rect>
                    <line x1="87.375" y1="19" x2="172.375" y2="19" id="Path-3"></line>
                    <line x1="87.375" y1="42" x2="172.375" y2="42" id="Path-3-Copy"></line>
                    <line x1="87.375" y1="65" x2="137.375" y2="65" id="Path-3-Copy-2"></line>
                </g>
                <rect id="Rectangle" x="228.375" y="43" width="113" height="86" rx="2"></rect>
                <rect id="Rectangle" x="245.375" y="61" width="50" height="50" rx="2"></rect>
                <line x1="315.375" y1="62" x2="341.375" y2="62" id="Path-3"></line>
                <line x1="315.375" y1="85" x2="341.375" y2="85" id="Path-3-Copy"></line>
                <line x1="315.375" y1="108" x2="341" y2="108" id="Path-3-Copy-2"></line>
                <rect id="Rectangle-Copy-2" x="157" y="156" width="129" height="56" rx="2"></rect>
                <rect id="Rectangle-Copy-17" x="157" y="231" width="166" height="9" rx="1"></rect>
                <rect id="Rectangle-Copy-18" x="157" y="249" width="166" height="9" rx="1"></rect>
            </g>
        </g>
    </g>
</svg>