<?xml version="1.0" encoding="UTF-8"?>
<svg width="40px" height="40px" viewBox="0 0 40 40" version="1.1" xmlns="http://www.w3.org/2000/svg" xmlns:xlink="http://www.w3.org/1999/xlink">
    <title>E4078C46-FA30-4929-8568-D915198BDFE9</title>
    <defs>
        <linearGradient x1="0%" y1="0%" x2="100%" y2="100%" id="linearGradient-1">
            <stop stop-color="#009EFF" offset="0%"></stop>
            <stop stop-color="#30CCC6" offset="100%"></stop>
        </linearGradient>
    </defs>
    <g id="Desktop" stroke="none" stroke-width="1" fill="none" fill-rule="evenodd">
        <g id="Service---mobile-app" transform="translate(-1042.000000, -2844.000000)" fill="url(#linearGradient-1)">
            <g id="icon/code-copy-5" transform="translate(1042.000000, 2844.000000)">
                <path d="M35.1714286,0 C36.1813207,0 37,0.8954305 37,2 L37,20 L38,20 C39.1045695,20 40,20.8954305 40,22 L40,38 C40,39.1045695 39.1045695,40 38,40 L30,40 C28.8954305,40 28,39.1045695 28,38 L28,31 L20,31 L20,38 C20,39.1045695 19.1045695,40 18,40 L2,40 C0.8954305,40 0,39.1045695 0,38 L0,15 C0,13.8954305 0.8954305,13 2,13 L5,13 L5,2 C5,0.8954305 5.81867931,0 6.82857143,0 L35.1714286,0 Z M31,37 L37,37 L37,23 L31,23 L31,37 Z M17,16 L3,16 L3,37 L17,37 L17,16 Z M21,25 L20,25 L20,28 L21,28 L21,25 Z M28,25 L24,25 L24,28 L28,28 L28,25 Z M34,3 L8,3 L8,13 L18,13 C19.1045695,13 20,13.8954305 20,15 L20,22 L28,22 C28,20.8954305 28.8954305,20 30,20 L34,20 L34,3 Z" id="Combined-Shape"></path>
            </g>
        </g>
    </g>
</svg>