<?xml version="1.0" encoding="UTF-8"?>
<svg width="40px" height="40px" viewBox="0 0 40 40" version="1.1" xmlns="http://www.w3.org/2000/svg" xmlns:xlink="http://www.w3.org/1999/xlink">
    <title>C8BEE4CC-77DB-45C8-A1A7-CBC0B46AB143</title>
    <defs>
        <linearGradient x1="0%" y1="0%" x2="100%" y2="100%" id="linearGradient-1">
            <stop stop-color="#009EFF" offset="0%"></stop>
            <stop stop-color="#30CCC6" offset="100%"></stop>
        </linearGradient>
    </defs>
    <g id="Desktop" stroke="none" stroke-width="1" fill="none" fill-rule="evenodd">
        <g id="Service---mobile-app" transform="translate(-482.000000, -2844.000000)" fill="url(#linearGradient-1)" fill-rule="nonzero">
            <g id="icon/code-copy-4" transform="translate(482.000000, 2844.000000)">
                <path d="M25.3589838,3.55271368e-15 L28.8962214,4.59129255 L34.6410162,5.35898385 L35.4087074,11.1037786 L40,14.6410162 L37.7924428,20 L40,25.3589838 L35.4087074,28.8962214 L34.6410162,34.6410162 L28.8962214,35.4087074 L25.3589838,40 L20,37.7924428 L14.6410162,40 L11.1037786,35.4087074 L5.35898385,34.6410162 L4.59129255,28.8962214 L6.75015599e-14,25.3589838 L2.20755721,20 L6.75015599e-14,14.6410162 L4.59129255,11.1037786 L5.35898385,5.35898385 L11.1037786,4.59129255 L14.6410162,3.55271368e-15 L20,2.20755721 L25.3589838,3.55271368e-15 Z M24.3460894,3.7751517 L20,5.56658091 L15.6528753,3.7751517 L12.7832905,7.5002924 L8.12227638,8.12227638 L7.5002924,12.7832905 L3.7751517,15.6528753 L5.56658091,20 L3.7751517,24.3460894 L7.5002924,27.2167095 L8.12227638,31.8766883 L12.7832905,32.4997076 L15.6528753,36.223813 L20,34.4334191 L24.3460894,36.223813 L27.2167095,32.4997076 L31.8766883,31.8766883 L32.4997076,27.2167095 L36.223813,24.3460894 L34.4334191,20 L36.223813,15.6528753 L32.4997076,12.7832905 L31.8766883,8.12227638 L27.2167095,7.5002924 L24.3460894,3.7751517 Z M20,7.57668584 C26.861207,7.57668584 32.4233142,13.138793 32.4233142,20 C32.4233142,26.861207 26.861207,32.4233142 20,32.4233142 C13.138793,32.4233142 7.57668584,26.861207 7.57668584,20 C7.57668584,13.138793 13.138793,7.57668584 20,7.57668584 Z M20,10.6825144 C14.8540948,10.6825144 10.6825144,14.8540948 10.6825144,20 C10.6825144,25.1459052 14.8540948,29.3174856 20,29.3174856 C25.1459052,29.3174856 29.3174856,25.1459052 29.3174856,20 C29.3174856,14.8540948 25.1459052,10.6825144 20,10.6825144 Z M25.2480843,16.3227095 C25.8119843,16.8958669 25.8401925,17.795846 25.3377641,18.4017197 L25.2302048,18.5187891 L18.8797446,24.7666794 L14.7697952,20.7231121 C14.1584273,20.1216187 14.1504224,19.1384004 14.7519157,18.5270325 C15.3158158,17.953875 16.2152163,17.9110171 16.8291902,18.4035141 L16.9479954,18.509153 L18.8787959,20.4089341 L23.0520046,16.30483 C23.6633726,15.7033366 24.6465909,15.7113415 25.2480843,16.3227095 Z" id="Combined-Shape"></path>
            </g>
        </g>
    </g>
</svg>