<?xml version="1.0" encoding="UTF-8"?>
<svg width="90px" height="40px" viewBox="0 0 90 40" version="1.1" xmlns="http://www.w3.org/2000/svg" xmlns:xlink="http://www.w3.org/1999/xlink">
    <title>Group 10</title>
    <defs>
        <linearGradient x1="37.4979166%" y1="0%" x2="62.5020834%" y2="100%" id="linearGradient-1">
            <stop stop-color="#009EFF" offset="0%"></stop>
            <stop stop-color="#30CCC6" offset="100%"></stop>
        </linearGradient>
        <linearGradient x1="0%" y1="0%" x2="100%" y2="100%" id="linearGradient-2">
            <stop stop-color="#009EFF" offset="0%"></stop>
            <stop stop-color="#30CCC6" offset="100%"></stop>
        </linearGradient>
    </defs>
    <g id="Desktop" stroke="none" stroke-width="1" fill="none" fill-rule="evenodd">
        <g id="Service---mobile-app" transform="translate(-1042.000000, -2467.000000)">
            <g id="Group-10" transform="translate(1042.000000, 2467.000000)">
                <g id="Path" transform="translate(50.000000, 0.000000)" fill="url(#linearGradient-1)">
                    <path d="M26.4272917,6.64166667 L30.0789583,6.64166667 L30.0789583,0.281666667 C29.4489583,0.195 27.2822917,0 24.7589583,0 C19.4939583,0 15.8872917,3.31166667 15.8872917,9.39833333 L15.8872917,15 L10.0772917,15 L10.0772917,22.11 L15.8872917,22.11 L15.8872917,40 L23.010625,40 L23.010625,22.1116667 L28.585625,22.1116667 L29.470625,15.0016667 L23.0089583,15.0016667 L23.0089583,10.1033333 C23.010625,8.04833333 23.5639583,6.64166667 26.4272917,6.64166667 L26.4272917,6.64166667 Z"></path>
                </g>
                <g id="Group" fill="url(#linearGradient-2)" fill-rule="nonzero">
                    <g id="Combined-Shape">
                        <path d="M30,0 C35.5228475,0 40,4.4771525 40,10 L40,30 C40,35.5228475 35.5228475,40 30,40 L10,40 C4.4771525,40 0,35.5228475 0,30 L0,10 C0,4.4771525 4.4771525,0 10,0 L30,0 Z M30,3 L10,3 C6.21454828,3 3.13090132,6.00478338 3.00405902,9.75935025 L3,10 L3,30 C3,33.7854517 6.00478338,36.8690987 9.75935025,36.995941 L10,37 L30,37 C33.7854517,37 36.8690987,33.9952166 36.995941,30.2406498 L37,30 L37,10 C37,6.21454828 33.9952166,3.13090132 30.2406498,3.00405902 L30,3 Z M20,10 C25.5228475,10 30,14.4771525 30,20 C30,25.5228475 25.5228475,30 20,30 C14.4771525,30 10,25.5228475 10,20 C10,14.4771525 14.4771525,10 20,10 Z M20,12.8571429 C16.0551089,12.8571429 12.8571429,16.0551089 12.8571429,20 C12.8571429,23.9448911 16.0551089,27.1428571 20,27.1428571 C23.9448911,27.1428571 27.1428571,23.9448911 27.1428571,20 C27.1428571,16.0551089 23.9448911,12.8571429 20,12.8571429 Z M31,7 C32.1045695,7 33,7.8954305 33,9 C33,10.1045695 32.1045695,11 31,11 C29.8954305,11 29,10.1045695 29,9 C29,7.8954305 29.8954305,7 31,7 Z"></path>
                    </g>
                </g>
            </g>
        </g>
    </g>
</svg>