<?xml version="1.0" encoding="utf-8"?>
<svg width="80px" height="75px" viewBox="0 0 80 75" version="1.1" xmlns:xlink="http://www.w3.org/1999/xlink" xmlns="http://www.w3.org/2000/svg">
  <desc>Created with Lunacy</desc>
  <defs>
    <linearGradient x1="0" y1="0" x2="1" y2="1" id="gradient_1">
      <stop offset="0" stop-color="#009EFF" />
      <stop offset="1" stop-color="#30CCC6" />
    </linearGradient>
    <path d="M5.999 0L38.001 0Q38.1483 0 38.2954 0.00722606Q38.4424 0.0144521 38.589 0.0288868Q38.7356 0.0433215 38.8812 0.0649301Q39.0269 0.0865387 39.1713 0.115269Q39.3158 0.143999 39.4586 0.179782Q39.6015 0.215565 39.7424 0.258315Q39.8833 0.301064 40.022 0.350677Q40.1607 0.40029 40.2967 0.456647Q40.4328 0.513003 40.5659 0.575968Q40.699 0.638933 40.8289 0.708354Q40.9588 0.777776 41.0851 0.853486Q41.2114 0.929196 41.3339 1.01101Q41.4563 1.09283 41.5746 1.18056Q41.6929 1.26828 41.8067 1.36171Q41.9206 1.45514 42.0297 1.55403Q42.1388 1.65293 42.2429 1.75707Q42.3471 1.8612 42.446 1.97032Q42.5449 2.07944 42.6383 2.19327Q42.7317 2.30711 42.8194 2.4254Q42.9072 2.54369 42.989 2.66613Q43.0708 2.78858 43.1465 2.9149Q43.2222 3.04121 43.2916 3.17109Q43.3611 3.30097 43.424 3.4341Q43.487 3.56722 43.5433 3.70328Q43.5997 3.83934 43.6493 3.978Q43.6989 4.11666 43.7417 4.25758Q43.7844 4.39851 43.8202 4.54136Q43.856 4.68422 43.8847 4.82865Q43.9135 4.97309 43.9351 5.11876Q43.9567 5.26444 43.9711 5.411Q43.9855 5.55755 43.9928 5.70464Q44 5.85173 44 5.999L44 69.001Q44 69.1483 43.9928 69.2953Q43.9855 69.4424 43.9711 69.589Q43.9567 69.7356 43.9351 69.8812Q43.9135 70.0269 43.8847 70.1713Q43.856 70.3158 43.8202 70.4586Q43.7844 70.6015 43.7417 70.7424Q43.6989 70.8833 43.6493 71.022Q43.5997 71.1606 43.5433 71.2967Q43.487 71.4328 43.424 71.5659Q43.3611 71.699 43.2916 71.8289Q43.2222 71.9588 43.1465 72.0851Q43.0708 72.2114 42.989 72.3339Q42.9072 72.4563 42.8194 72.5746Q42.7317 72.6929 42.6383 72.8067Q42.5449 72.9205 42.446 73.0297Q42.3471 73.1388 42.2429 73.2429Q42.1388 73.3471 42.0297 73.446Q41.9206 73.5449 41.8067 73.6383Q41.6929 73.7317 41.5746 73.8194Q41.4563 73.9072 41.3339 73.989Q41.2114 74.0708 41.0851 74.1465Q40.9588 74.2222 40.8289 74.2916Q40.699 74.3611 40.5659 74.424Q40.4328 74.487 40.2967 74.5433Q40.1607 74.5997 40.022 74.6493Q39.8833 74.6989 39.7424 74.7417Q39.6015 74.7844 39.4586 74.8202Q39.3158 74.856 39.1713 74.8847Q39.0269 74.9134 38.8812 74.9351Q38.7356 74.9567 38.589 74.9711Q38.4424 74.9855 38.2954 74.9928Q38.1483 75 38.001 75L5.999 75Q5.85173 75 5.70464 74.9928Q5.55755 74.9855 5.411 74.9711Q5.26444 74.9567 5.11876 74.9351Q4.97309 74.9134 4.82865 74.8847Q4.68422 74.856 4.54136 74.8202Q4.39851 74.7844 4.25758 74.7417Q4.11666 74.6989 3.978 74.6493Q3.83934 74.5997 3.70328 74.5433Q3.56722 74.487 3.4341 74.424Q3.30097 74.3611 3.17109 74.2916Q3.04121 74.2222 2.9149 74.1465Q2.78858 74.0708 2.66613 73.989Q2.54369 73.9072 2.4254 73.8194Q2.30711 73.7317 2.19327 73.6383Q2.07944 73.5449 1.97032 73.446Q1.8612 73.3471 1.75707 73.2429Q1.65293 73.1388 1.55403 73.0297Q1.45514 72.9205 1.36171 72.8067Q1.26829 72.6929 1.18056 72.5746Q1.09283 72.4563 1.01101 72.3339Q0.929196 72.2114 0.853486 72.0851Q0.777776 71.9588 0.708354 71.8289Q0.638933 71.699 0.575968 71.5659Q0.513003 71.4328 0.456647 71.2967Q0.40029 71.1606 0.350677 71.022Q0.301064 70.8833 0.258315 70.7424Q0.215565 70.6015 0.179782 70.4586Q0.143999 70.3158 0.115269 70.1713Q0.0865387 70.0269 0.0649301 69.8812Q0.0433215 69.7356 0.0288868 69.589Q0.0144521 69.4424 0.00722606 69.2953Q0 69.1483 0 69.001L0 5.999Q0 5.85173 0.00722606 5.70464Q0.0144521 5.55755 0.0288868 5.411Q0.0433215 5.26444 0.0649301 5.11876Q0.0865387 4.97309 0.115269 4.82865Q0.143999 4.68422 0.179782 4.54136Q0.215565 4.39851 0.258315 4.25758Q0.301064 4.11666 0.350677 3.978Q0.40029 3.83934 0.456647 3.70328Q0.513003 3.56722 0.575968 3.4341Q0.638933 3.30097 0.708354 3.17109Q0.777776 3.04121 0.853486 2.9149Q0.929196 2.78858 1.01101 2.66613Q1.09283 2.54369 1.18056 2.4254Q1.26828 2.30711 1.36171 2.19327Q1.45514 2.07944 1.55403 1.97032Q1.65293 1.8612 1.75707 1.75707Q1.8612 1.65293 1.97032 1.55403Q2.07944 1.45514 2.19327 1.36171Q2.30711 1.26829 2.4254 1.18056Q2.54369 1.09283 2.66613 1.01101Q2.78858 0.929196 2.9149 0.853486Q3.04121 0.777776 3.17109 0.708354Q3.30097 0.638933 3.4341 0.575968Q3.56722 0.513003 3.70328 0.456647Q3.83934 0.40029 3.978 0.350677Q4.11666 0.301064 4.25758 0.258315Q4.39851 0.215565 4.54136 0.179782Q4.68422 0.143999 4.82865 0.115269Q4.97309 0.0865387 5.11876 0.0649301Q5.26444 0.0433215 5.411 0.0288868Q5.55755 0.0144521 5.70464 0.00722606Q5.85173 0 5.999 0L5.999 0Z" transform="translate(18 0)" id="path_1" />
    <path d="M1.999 0L12.001 0Q12.0992 0 12.1969 0.00962573Q12.2947 0.0192515 12.391 0.0384102Q12.4873 0.057569 12.5813 0.0860763Q12.6753 0.114584 12.766 0.152165Q12.8567 0.189746 12.9433 0.236039Q13.0299 0.282333 13.1116 0.336892Q13.1932 0.391452 13.2692 0.453752Q13.3451 0.516052 13.4145 0.585494Q13.4839 0.654935 13.5462 0.730848Q13.6085 0.806761 13.6631 0.888415Q13.7177 0.970069 13.764 1.05668Q13.8103 1.14329 13.8478 1.23402Q13.8854 1.32474 13.9139 1.41872Q13.9424 1.5127 13.9616 1.60901Q13.9807 1.70533 13.9904 1.80306Q14 1.9008 14 1.999L14 2.001Q14 2.0992 13.9904 2.19694Q13.9807 2.29467 13.9616 2.39099Q13.9424 2.4873 13.9139 2.58128Q13.8854 2.67525 13.8478 2.76598Q13.8103 2.85671 13.764 2.94332Q13.7177 3.02993 13.6631 3.11158Q13.6085 3.19324 13.5462 3.26915Q13.4839 3.34507 13.4145 3.41451Q13.3451 3.48395 13.2692 3.54625Q13.1932 3.60855 13.1116 3.66311Q13.0299 3.71767 12.9433 3.76396Q12.8567 3.81025 12.766 3.84783Q12.6753 3.88542 12.5813 3.91392Q12.4873 3.94243 12.391 3.96159Q12.2947 3.98075 12.1969 3.99037Q12.0992 4 12.001 4L1.999 4Q1.9008 4 1.80306 3.99037Q1.70533 3.98075 1.60901 3.96159Q1.5127 3.94243 1.41872 3.91392Q1.32474 3.88542 1.23402 3.84783Q1.14329 3.81025 1.05668 3.76396Q0.970069 3.71767 0.888415 3.66311Q0.806761 3.60855 0.730848 3.54625Q0.654935 3.48395 0.585494 3.41451Q0.516052 3.34507 0.453752 3.26915Q0.391452 3.19324 0.336892 3.11158Q0.282333 3.02993 0.236039 2.94332Q0.189746 2.85671 0.152165 2.76598Q0.114584 2.67525 0.0860763 2.58128Q0.057569 2.4873 0.0384102 2.39099Q0.0192515 2.29467 0.00962573 2.19694Q0 2.0992 0 2.001L0 1.999Q0 1.9008 0.00962573 1.80306Q0.0192515 1.70533 0.0384102 1.60901Q0.057569 1.5127 0.0860763 1.41872Q0.114584 1.32474 0.152165 1.23402Q0.189746 1.14329 0.236039 1.05668Q0.282333 0.970069 0.336892 0.888415Q0.391452 0.806761 0.453752 0.730848Q0.516052 0.654935 0.585494 0.585494Q0.654935 0.516052 0.730848 0.453752Q0.806761 0.391452 0.888415 0.336892Q0.970069 0.282333 1.05668 0.236039Q1.14329 0.189746 1.23402 0.152165Q1.32474 0.114584 1.41872 0.0860763Q1.5127 0.057569 1.60901 0.0384102Q1.70533 0.0192515 1.80306 0.00962573Q1.9008 0 1.999 0L1.999 0Z" transform="translate(33 0)" id="path_2" />
    <clipPath id="clip_1">
      <use xlink:href="#path_1" />
    </clipPath>
    <clipPath id="clip_2">
      <use xlink:href="#path_2" />
    </clipPath>
  </defs>
  <g id="icon/web-dev">
    <path d="M1.999 0L8.001 0Q8.09921 0 8.19694 0.00962573Q8.29467 0.0192515 8.39098 0.0384102Q8.4873 0.057569 8.58128 0.0860763Q8.67525 0.114584 8.76598 0.152165Q8.85671 0.189746 8.94332 0.236039Q9.02993 0.282333 9.11158 0.336892Q9.19324 0.391452 9.26915 0.453752Q9.34507 0.516052 9.41451 0.585494Q9.48395 0.654935 9.54625 0.730848Q9.60855 0.806761 9.66311 0.888415Q9.71767 0.970069 9.76396 1.05668Q9.81025 1.14329 9.84783 1.23402Q9.88542 1.32474 9.91392 1.41872Q9.94243 1.5127 9.96159 1.60901Q9.98075 1.70533 9.99037 1.80306Q10 1.9008 10 1.999L10 10.001Q10 10.0992 9.99037 10.1969Q9.98075 10.2947 9.96159 10.391Q9.94243 10.4873 9.91392 10.5813Q9.88542 10.6753 9.84783 10.766Q9.81025 10.8567 9.76396 10.9433Q9.71767 11.0299 9.66311 11.1116Q9.60855 11.1932 9.54625 11.2692Q9.48395 11.3451 9.41451 11.4145Q9.34507 11.4839 9.26915 11.5462Q9.19324 11.6085 9.11158 11.6631Q9.02993 11.7177 8.94332 11.764Q8.85671 11.8103 8.76598 11.8478Q8.67525 11.8854 8.58128 11.9139Q8.4873 11.9424 8.39098 11.9616Q8.29467 11.9807 8.19694 11.9904Q8.09921 12 8.001 12L1.999 12Q1.9008 12 1.80306 11.9904Q1.70533 11.9807 1.60901 11.9616Q1.5127 11.9424 1.41872 11.9139Q1.32474 11.8854 1.23402 11.8478Q1.14329 11.8103 1.05668 11.764Q0.970069 11.7177 0.888415 11.6631Q0.806761 11.6085 0.730848 11.5462Q0.654935 11.4839 0.585494 11.4145Q0.516052 11.3451 0.453752 11.2692Q0.391452 11.1932 0.336892 11.1116Q0.282333 11.0299 0.236039 10.9433Q0.189746 10.8567 0.152165 10.766Q0.114584 10.6753 0.0860763 10.5813Q0.057569 10.4873 0.0384102 10.391Q0.0192515 10.2947 0.00962573 10.1969Q0 10.0992 0 10.001L0 1.999Q0 1.9008 0.00962573 1.80306Q0.0192515 1.70533 0.0384102 1.60901Q0.057569 1.5127 0.0860763 1.41872Q0.114584 1.32474 0.152165 1.23402Q0.189746 1.14329 0.236039 1.05668Q0.282333 0.970069 0.336892 0.888415Q0.391452 0.806761 0.453752 0.730848Q0.516052 0.654935 0.585494 0.585494Q0.654935 0.516052 0.730848 0.453752Q0.806761 0.391452 0.888415 0.336892Q0.970069 0.282333 1.05668 0.236039Q1.14329 0.189746 1.23402 0.152165Q1.32474 0.114584 1.41872 0.0860763Q1.5127 0.057569 1.60901 0.0384102Q1.70533 0.0192515 1.80306 0.00962573Q1.9008 0 1.999 0L1.999 0Z" transform="translate(52 34)" id="Rectangle-Copy-3" fill="url(#gradient_1)" fill-rule="evenodd" stroke="none" />
    <g id="Rectangle-Copy">
      <g clip-path="url(#clip_1)">
        <use xlink:href="#path_1" fill="none" stroke="#262332" stroke-width="4" stroke-linecap="round" />
      </g>
    </g>
    <g id="Rectangle">
      <g clip-path="url(#clip_2)">
        <use xlink:href="#path_2" fill="none" stroke="#262332" stroke-width="4" stroke-linecap="round" />
      </g>
    </g>
    <path d="M1.999 0L62.001 0Q62.0992 0 62.1969 0.00962573Q62.2947 0.0192515 62.391 0.0384102Q62.4873 0.057569 62.5813 0.0860763Q62.6752 0.114584 62.766 0.152165Q62.8567 0.189746 62.9433 0.236039Q63.0299 0.282333 63.1116 0.336892Q63.1932 0.391452 63.2691 0.453752Q63.3451 0.516052 63.4145 0.585494Q63.4839 0.654935 63.5462 0.730848Q63.6085 0.806761 63.6631 0.888415Q63.7177 0.970069 63.764 1.05668Q63.8102 1.14329 63.8478 1.23402Q63.8854 1.32474 63.9139 1.41872Q63.9424 1.5127 63.9616 1.60901Q63.9807 1.70533 63.9904 1.80306Q64 1.9008 64 1.999L64 22.001Q64 22.0992 63.9904 22.1969Q63.9807 22.2947 63.9616 22.391Q63.9424 22.4873 63.9139 22.5813Q63.8854 22.6753 63.8478 22.766Q63.8102 22.8567 63.764 22.9433Q63.7177 23.0299 63.6631 23.1116Q63.6085 23.1932 63.5462 23.2691Q63.4839 23.3451 63.4145 23.4145Q63.3451 23.4839 63.2691 23.5462Q63.1932 23.6085 63.1116 23.6631Q63.0299 23.7177 62.9433 23.764Q62.8567 23.8103 62.766 23.8478Q62.6753 23.8854 62.5813 23.9139Q62.4873 23.9424 62.391 23.9616Q62.2947 23.9807 62.1969 23.9904Q62.0992 24 62.001 24L1.999 24Q1.9008 24 1.80306 23.9904Q1.70533 23.9807 1.60901 23.9616Q1.5127 23.9424 1.41872 23.9139Q1.32474 23.8854 1.23402 23.8478Q1.14329 23.8103 1.05668 23.764Q0.970069 23.7177 0.888415 23.6631Q0.806761 23.6085 0.730848 23.5462Q0.654935 23.4839 0.585494 23.4145Q0.516052 23.3451 0.453752 23.2691Q0.391452 23.1932 0.336892 23.1116Q0.282333 23.0299 0.236039 22.9433Q0.189746 22.8567 0.152165 22.766Q0.114584 22.6753 0.0860763 22.5813Q0.057569 22.4873 0.0384102 22.391Q0.0192515 22.2947 0.00962573 22.1969Q0 22.0992 0 22.001L0 1.999Q0 1.9008 0.00962573 1.80306Q0.0192515 1.70533 0.0384102 1.60901Q0.057569 1.5127 0.0860763 1.41872Q0.114584 1.32474 0.152165 1.23402Q0.189746 1.14329 0.236039 1.05668Q0.282333 0.970069 0.336892 0.888415Q0.391452 0.806761 0.453752 0.730848Q0.516052 0.654935 0.585494 0.585494Q0.654935 0.516052 0.730848 0.453752Q0.806761 0.391452 0.888415 0.336892Q0.970069 0.282333 1.05668 0.236039Q1.14329 0.189746 1.23402 0.152165Q1.32474 0.114584 1.41872 0.0860763Q1.5127 0.057569 1.60901 0.0384102Q1.70533 0.0192515 1.80306 0.00962573Q1.9008 0 1.999 0L1.999 0Z" transform="translate(8 8)" id="Rectangle" fill="url(#gradient_1)" fill-rule="evenodd" stroke="none" />
    <path d="M1.999 0L34.001 0Q34.0992 0 34.1969 0.00962573Q34.2947 0.0192515 34.391 0.0384102Q34.4873 0.057569 34.5813 0.0860763Q34.6753 0.114584 34.766 0.152165Q34.8567 0.189746 34.9433 0.236039Q35.0299 0.282333 35.1116 0.336892Q35.1932 0.391452 35.2692 0.453752Q35.3451 0.516052 35.4145 0.585494Q35.4839 0.654935 35.5462 0.730848Q35.6085 0.806761 35.6631 0.888415Q35.7177 0.970069 35.764 1.05668Q35.8102 1.14329 35.8478 1.23402Q35.8854 1.32474 35.9139 1.41872Q35.9424 1.5127 35.9616 1.60901Q35.9807 1.70533 35.9904 1.80306Q36 1.9008 36 1.999L36 6.001Q36 6.0992 35.9904 6.19694Q35.9807 6.29467 35.9616 6.39099Q35.9424 6.4873 35.9139 6.58128Q35.8854 6.67525 35.8478 6.76598Q35.8102 6.85671 35.764 6.94332Q35.7177 7.02993 35.6631 7.11158Q35.6085 7.19324 35.5462 7.26915Q35.4839 7.34507 35.4145 7.41451Q35.3451 7.48395 35.2692 7.54625Q35.1932 7.60855 35.1116 7.66311Q35.0299 7.71767 34.9433 7.76396Q34.8567 7.81025 34.766 7.84783Q34.6753 7.88542 34.5813 7.91392Q34.4873 7.94243 34.391 7.96159Q34.2947 7.98075 34.1969 7.99037Q34.0992 8 34.001 8L1.999 8Q1.9008 8 1.80306 7.99037Q1.70533 7.98075 1.60901 7.96159Q1.5127 7.94243 1.41872 7.91392Q1.32474 7.88542 1.23402 7.84783Q1.14329 7.81025 1.05668 7.76396Q0.970069 7.71767 0.888415 7.66311Q0.806761 7.60855 0.730848 7.54625Q0.654935 7.48395 0.585494 7.41451Q0.516052 7.34507 0.453752 7.26915Q0.391452 7.19324 0.336892 7.11158Q0.282333 7.02993 0.236039 6.94332Q0.189746 6.85671 0.152165 6.76598Q0.114584 6.67525 0.0860763 6.58128Q0.057569 6.4873 0.0384102 6.39098Q0.0192515 6.29467 0.00962573 6.19694Q0 6.0992 0 6.001L0 1.999Q0 1.9008 0.00962573 1.80306Q0.0192515 1.70533 0.0384102 1.60901Q0.057569 1.5127 0.0860763 1.41872Q0.114584 1.32474 0.152165 1.23402Q0.189746 1.14329 0.236039 1.05668Q0.282333 0.970069 0.336892 0.888415Q0.391452 0.806761 0.453752 0.730848Q0.516052 0.654935 0.585494 0.585494Q0.654935 0.516052 0.730848 0.453752Q0.806761 0.391452 0.888415 0.336892Q0.970069 0.282333 1.05668 0.236039Q1.14329 0.189746 1.23402 0.152165Q1.32474 0.114584 1.41872 0.0860763Q1.5127 0.057569 1.60901 0.0384102Q1.70533 0.0192515 1.80306 0.00962573Q1.9008 0 1.999 0Z" transform="translate(22 57)" id="Rectangle-Copy-5" fill="url(#gradient_1)" fill-rule="evenodd" stroke="none" />
    <path d="M1.999 0L26.001 0Q26.0992 0 26.1969 0.00962573Q26.2947 0.0192515 26.391 0.0384102Q26.4873 0.057569 26.5813 0.0860763Q26.6753 0.114584 26.766 0.152165Q26.8567 0.189746 26.9433 0.236039Q27.0299 0.282333 27.1116 0.336892Q27.1932 0.391452 27.2692 0.453752Q27.3451 0.516052 27.4145 0.585494Q27.4839 0.654935 27.5462 0.730848Q27.6085 0.806761 27.6631 0.888415Q27.7177 0.970069 27.764 1.05668Q27.8103 1.14329 27.8478 1.23402Q27.8854 1.32474 27.9139 1.41872Q27.9424 1.5127 27.9616 1.60901Q27.9807 1.70533 27.9904 1.80306Q28 1.9008 28 1.999L28 10.001Q28 10.0992 27.9904 10.1969Q27.9807 10.2947 27.9616 10.391Q27.9424 10.4873 27.9139 10.5813Q27.8854 10.6753 27.8478 10.766Q27.8103 10.8567 27.764 10.9433Q27.7177 11.0299 27.6631 11.1116Q27.6085 11.1932 27.5462 11.2692Q27.4839 11.3451 27.4145 11.4145Q27.3451 11.4839 27.2691 11.5462Q27.1932 11.6085 27.1116 11.6631Q27.0299 11.7177 26.9433 11.764Q26.8567 11.8103 26.766 11.8478Q26.6753 11.8854 26.5813 11.9139Q26.4873 11.9424 26.391 11.9616Q26.2947 11.9807 26.1969 11.9904Q26.0992 12 26.001 12L1.999 12Q1.9008 12 1.80306 11.9904Q1.70533 11.9807 1.60901 11.9616Q1.5127 11.9424 1.41872 11.9139Q1.32474 11.8854 1.23402 11.8478Q1.14329 11.8103 1.05668 11.764Q0.970069 11.7177 0.888415 11.6631Q0.806761 11.6085 0.730848 11.5462Q0.654935 11.4839 0.585494 11.4145Q0.516052 11.3451 0.453752 11.2692Q0.391452 11.1932 0.336892 11.1116Q0.282333 11.0299 0.236039 10.9433Q0.189746 10.8567 0.152165 10.766Q0.114584 10.6753 0.0860763 10.5813Q0.057569 10.4873 0.0384102 10.391Q0.0192515 10.2947 0.00962573 10.1969Q0 10.0992 0 10.001L0 1.999Q0 1.9008 0.00962573 1.80306Q0.0192515 1.70533 0.0384102 1.60901Q0.057569 1.5127 0.0860763 1.41872Q0.114584 1.32474 0.152165 1.23402Q0.189746 1.14329 0.236039 1.05668Q0.282333 0.970069 0.336892 0.888415Q0.391452 0.806761 0.453752 0.730848Q0.516052 0.654935 0.585494 0.585494Q0.654935 0.516052 0.730848 0.453752Q0.806761 0.391452 0.888415 0.336892Q0.970069 0.282333 1.05668 0.236039Q1.14329 0.189746 1.23402 0.152165Q1.32474 0.114584 1.41872 0.0860763Q1.5127 0.057569 1.60901 0.0384102Q1.70533 0.0192515 1.80306 0.00962573Q1.9008 0 1.999 0L1.999 0Z" transform="translate(22 34)" id="Rectangle-Copy-2" fill="url(#gradient_1)" fill-rule="evenodd" stroke="none" />
    <path d="M0.999 0L53.001 0Q53.0994 0 53.1959 0.0191955Q53.2924 0.038391 53.3833 0.0760443Q53.4742 0.113698 53.556 0.168362Q53.6378 0.223026 53.7074 0.2926Q53.777 0.362175 53.8316 0.443985Q53.8863 0.525796 53.9239 0.616699Q53.9616 0.707602 53.9808 0.804105Q54 0.900607 54 0.999L54 1.001Q54 1.09939 53.9808 1.1959Q53.9616 1.2924 53.9239 1.3833Q53.8863 1.4742 53.8316 1.55601Q53.777 1.63783 53.7074 1.7074Q53.6378 1.77697 53.556 1.83164Q53.4742 1.8863 53.3833 1.92396Q53.2924 1.96161 53.1959 1.9808Q53.0994 2 53.001 2L0.999 2Q0.900607 2 0.804105 1.9808Q0.707602 1.96161 0.616699 1.92396Q0.525796 1.8863 0.443985 1.83164Q0.362175 1.77697 0.2926 1.7074Q0.223026 1.63783 0.168362 1.55601Q0.113698 1.4742 0.0760443 1.3833Q0.038391 1.2924 0.0191955 1.1959Q0 1.09939 0 1.001L0 0.999Q0 0.900607 0.0191955 0.804105Q0.038391 0.707602 0.0760443 0.616699Q0.113698 0.525796 0.168362 0.443985Q0.223026 0.362175 0.2926 0.2926Q0.362175 0.223026 0.443985 0.168362Q0.525796 0.113698 0.616699 0.0760443Q0.707602 0.038391 0.804105 0.0191955Q0.900607 0 0.999 0Z" transform="translate(13 14)" id="Rectangle-Copy-13" fill="#FFFFFF" fill-rule="evenodd" stroke="none" />
    <path d="M0.999 0L53.001 0Q53.0994 0 53.1959 0.0191955Q53.2924 0.038391 53.3833 0.0760443Q53.4742 0.113698 53.556 0.168362Q53.6378 0.223026 53.7074 0.2926Q53.777 0.362175 53.8316 0.443985Q53.8863 0.525796 53.9239 0.616699Q53.9616 0.707602 53.9808 0.804105Q54 0.900607 54 0.999L54 1.001Q54 1.09939 53.9808 1.1959Q53.9616 1.2924 53.9239 1.3833Q53.8863 1.4742 53.8316 1.55601Q53.777 1.63783 53.7074 1.7074Q53.6378 1.77697 53.556 1.83164Q53.4742 1.8863 53.3833 1.92396Q53.2924 1.96161 53.1959 1.9808Q53.0994 2 53.001 2L0.999 2Q0.900607 2 0.804105 1.9808Q0.707602 1.96161 0.616699 1.92396Q0.525796 1.8863 0.443985 1.83164Q0.362175 1.77697 0.2926 1.7074Q0.223026 1.63783 0.168362 1.55601Q0.113698 1.4742 0.0760443 1.3833Q0.038391 1.2924 0.0191955 1.1959Q0 1.09939 0 1.001L0 0.999Q0 0.900607 0.0191955 0.804105Q0.038391 0.707602 0.0760443 0.616699Q0.113698 0.525796 0.168362 0.443985Q0.223026 0.362175 0.2926 0.2926Q0.362175 0.223026 0.443985 0.168362Q0.525796 0.113698 0.616699 0.0760443Q0.707602 0.038391 0.804105 0.0191955Q0.900607 0 0.999 0Z" transform="translate(13 19)" id="Rectangle-Copy-14" fill="#FFFFFF" fill-rule="evenodd" stroke="none" />
    <path d="M0.999 0L31.001 0Q31.0994 0 31.1959 0.0191955Q31.2924 0.038391 31.3833 0.0760443Q31.4742 0.113698 31.556 0.168362Q31.6378 0.223026 31.7074 0.2926Q31.777 0.362175 31.8316 0.443985Q31.8863 0.525796 31.924 0.616699Q31.9616 0.707602 31.9808 0.804105Q32 0.900607 32 0.999L32 1.001Q32 1.09939 31.9808 1.1959Q31.9616 1.2924 31.924 1.3833Q31.8863 1.4742 31.8316 1.55601Q31.777 1.63783 31.7074 1.7074Q31.6378 1.77697 31.556 1.83164Q31.4742 1.8863 31.3833 1.92396Q31.2924 1.96161 31.1959 1.9808Q31.0994 2 31.001 2L0.999 2Q0.900607 2 0.804105 1.9808Q0.707602 1.96161 0.616699 1.92396Q0.525796 1.8863 0.443985 1.83164Q0.362175 1.77697 0.2926 1.7074Q0.223026 1.63783 0.168362 1.55601Q0.113698 1.4742 0.0760443 1.3833Q0.038391 1.2924 0.0191955 1.1959Q0 1.09939 0 1.001L0 0.999Q0 0.900607 0.0191955 0.804105Q0.038391 0.707602 0.0760443 0.616699Q0.113698 0.525796 0.168362 0.443985Q0.223026 0.362175 0.2926 0.2926Q0.362175 0.223026 0.443985 0.168362Q0.525796 0.113698 0.616699 0.0760443Q0.707602 0.038391 0.804105 0.0191955Q0.900607 0 0.999 0Z" transform="translate(13 24)" id="Rectangle-Copy-15" fill="#FFFFFF" fill-rule="evenodd" stroke="none" />
    <path d="M0.999 0L35.001 0Q35.0994 0 35.1959 0.0191955Q35.2924 0.038391 35.3833 0.0760443Q35.4742 0.113698 35.556 0.168362Q35.6378 0.223026 35.7074 0.2926Q35.777 0.362175 35.8316 0.443985Q35.8863 0.525796 35.924 0.616699Q35.9616 0.707602 35.9808 0.804105Q36 0.900607 36 0.999L36 1.001Q36 1.09939 35.9808 1.1959Q35.9616 1.2924 35.924 1.3833Q35.8863 1.4742 35.8316 1.55601Q35.777 1.63783 35.7074 1.7074Q35.6378 1.77697 35.556 1.83164Q35.4742 1.8863 35.3833 1.92396Q35.2924 1.96161 35.1959 1.9808Q35.0994 2 35.001 2L0.999 2Q0.900607 2 0.804105 1.9808Q0.707602 1.96161 0.616699 1.92396Q0.525796 1.8863 0.443985 1.83164Q0.362175 1.77697 0.2926 1.7074Q0.223026 1.63783 0.168362 1.55601Q0.113698 1.4742 0.0760443 1.3833Q0.038391 1.2924 0.0191955 1.1959Q0 1.09939 0 1.001L0 0.999Q0 0.900607 0.0191955 0.804105Q0.038391 0.707602 0.0760443 0.616699Q0.113698 0.525796 0.168362 0.443985Q0.223026 0.362175 0.2926 0.2926Q0.362175 0.223026 0.443985 0.168362Q0.525796 0.113698 0.616699 0.0760443Q0.707602 0.038391 0.804105 0.0191955Q0.900607 0 0.999 0Z" transform="translate(22 48)" id="Rectangle-Copy-17" fill="url(#gradient_1)" fill-rule="evenodd" stroke="none" />
    <path d="M0.999 0L35.001 0Q35.0994 0 35.1959 0.0191955Q35.2924 0.038391 35.3833 0.0760443Q35.4742 0.113698 35.556 0.168362Q35.6378 0.223026 35.7074 0.2926Q35.777 0.362175 35.8316 0.443985Q35.8863 0.525796 35.924 0.616699Q35.9616 0.707602 35.9808 0.804105Q36 0.900607 36 0.999L36 1.001Q36 1.09939 35.9808 1.1959Q35.9616 1.2924 35.924 1.3833Q35.8863 1.4742 35.8316 1.55601Q35.777 1.63783 35.7074 1.7074Q35.6378 1.77697 35.556 1.83164Q35.4742 1.8863 35.3833 1.92396Q35.2924 1.96161 35.1959 1.9808Q35.0994 2 35.001 2L0.999 2Q0.900607 2 0.804105 1.9808Q0.707602 1.96161 0.616699 1.92396Q0.525796 1.8863 0.443985 1.83164Q0.362175 1.77697 0.2926 1.7074Q0.223026 1.63783 0.168362 1.55601Q0.113698 1.4742 0.0760443 1.3833Q0.038391 1.2924 0.0191955 1.1959Q0 1.09939 0 1.001L0 0.999Q0 0.900607 0.0191955 0.804105Q0.038391 0.707602 0.0760443 0.616699Q0.113698 0.525796 0.168362 0.443985Q0.223026 0.362175 0.2926 0.2926Q0.362175 0.223026 0.443985 0.168362Q0.525796 0.113698 0.616699 0.0760443Q0.707602 0.038391 0.804105 0.0191955Q0.900607 0 0.999 0Z" transform="translate(22 52)" id="Rectangle-Copy-18" fill="url(#gradient_1)" fill-rule="evenodd" stroke="none" />
    <path d="M0.999 0L23.001 0Q23.0994 0 23.1959 0.0191955Q23.2924 0.038391 23.3833 0.0760443Q23.4742 0.113698 23.556 0.168362Q23.6378 0.223026 23.7074 0.2926Q23.777 0.362175 23.8316 0.443985Q23.8863 0.525796 23.924 0.616699Q23.9616 0.707602 23.9808 0.804105Q24 0.900607 24 0.999L24 1.001Q24 1.09939 23.9808 1.1959Q23.9616 1.2924 23.924 1.3833Q23.8863 1.4742 23.8316 1.55601Q23.777 1.63783 23.7074 1.7074Q23.6378 1.77697 23.556 1.83164Q23.4742 1.8863 23.3833 1.92396Q23.2924 1.96161 23.1959 1.9808Q23.0994 2 23.001 2L0.999 2Q0.900607 2 0.804105 1.9808Q0.707602 1.96161 0.616699 1.92396Q0.525796 1.8863 0.443985 1.83164Q0.362175 1.77697 0.2926 1.7074Q0.223026 1.63783 0.168362 1.55601Q0.113698 1.4742 0.0760443 1.3833Q0.038391 1.2924 0.0191955 1.1959Q0 1.09939 0 1.001L0 0.999Q0 0.900607 0.0191955 0.804105Q0.038391 0.707602 0.0760443 0.616699Q0.113698 0.525796 0.168362 0.443985Q0.223026 0.362175 0.2926 0.2926Q0.362175 0.223026 0.443985 0.168362Q0.525796 0.113698 0.616699 0.0760443Q0.707602 0.038391 0.804105 0.0191955Q0.900607 0 0.999 0Z" transform="translate(28 60)" id="Rectangle-Copy-16" fill="#FFFFFF" fill-rule="evenodd" stroke="none" />
    <path d="M0 0.5L14 0.5" transform="translate(33 69.5)" id="Path-9-Copy-2" fill="none" fill-rule="evenodd" stroke="#262332" stroke-width="2" stroke-linecap="round" />
  </g>
</svg>