<?xml version="1.0" encoding="UTF-8"?>
<svg width="40px" height="40px" viewBox="0 0 40 40" version="1.1" xmlns="http://www.w3.org/2000/svg" xmlns:xlink="http://www.w3.org/1999/xlink">
    <title>D14DA3B0-16EC-40AC-BDE7-E76A1E3451A5</title>
    <defs>
        <linearGradient x1="0%" y1="10.059975%" x2="100%" y2="89.940025%" id="linearGradient-1">
            <stop stop-color="#009EFF" offset="0%"></stop>
            <stop stop-color="#30CCC6" offset="100%"></stop>
        </linearGradient>
    </defs>
    <g id="Desktop" stroke="none" stroke-width="1" fill="none" fill-rule="evenodd">
        <g id="Service---mobile-app" transform="translate(-1042.000000, -2090.000000)" fill="url(#linearGradient-1)" fill-rule="nonzero">
            <g id="icon/code-copy" transform="translate(1042.000000, 2090.000000)">
                <path d="M25.5000552,22.5 C26.2797514,22.5 26.9205039,23.0948881 26.9931887,23.85554 L27.0000552,24 L27,32.708 L29.5630127,30.6580154 L29.6876095,30.5682556 C30.3262322,30.1557286 31.1861888,30.285814 31.6713584,30.8922761 C32.1565281,31.4987382 32.0946697,32.3662756 31.5520189,32.8987674 L31.4370978,33.0006219 L25.5000552,37.7502559 L19.5630127,33.0006219 L19.4480916,32.8987674 C18.9416175,32.401775 18.853967,31.6129207 19.2389922,31.0168729 L19.328752,30.8922761 L19.4306065,30.777355 C19.9275989,30.2708809 20.7164531,30.1832304 21.312501,30.5682556 L21.4370978,30.6580154 L24,32.708 L24.0000552,24 C24.0000552,23.1715729 24.6716281,22.5 25.5000552,22.5 Z M14.5000552,18 L20.4370978,22.7496341 L20.5520189,22.8514885 C21.0946697,23.3839804 21.1565281,24.2515177 20.6713584,24.8579798 C20.1861888,25.4644419 19.3262322,25.5945273 18.6876095,25.1820003 L18.6876095,25.1820003 L18.5630127,25.0922405 L16,23.0422559 L16.0000552,31.7502559 L15.9931887,31.8947159 C15.9205039,32.6553678 15.2797514,33.2502559 14.5000552,33.2502559 C13.6716281,33.2502559 13.0000552,32.5786831 13.0000552,31.7502559 L13.0000552,31.7502559 L13,23.0422559 L10.4370978,25.0922405 L10.312501,25.1820003 C9.71645315,25.5670255 8.92759887,25.479375 8.43060649,24.9729009 L8.43060649,24.9729009 L8.32875202,24.8579798 L8.23899217,24.733383 C7.85396698,24.1373352 7.94161746,23.3484809 8.44809156,22.8514885 L8.44809156,22.8514885 L8.56301266,22.7496341 L14.5000552,18 Z M23.2361212,2 C28.5820382,2 32.9969803,5.99061617 33.6848241,11.1619311 L33.7180915,11.4400793 L33.732,11.594 L33.9027299,11.6560058 C37.3351365,12.9605625 39.7567959,16.1872793 39.9827232,19.9446249 L39.9959762,20.2423345 L40,20.5206204 C40,24.9043521 37.032505,28.5944271 33.0008746,29.6777779 L33.0003708,26.5155846 C35.3470064,25.5464431 37,23.2279772 37,20.5206204 C37,17.5511153 34.9946578,14.9918237 32.1925375,14.2537234 L31.9504327,14.1949506 L30.755264,13.9292365 L30.7761888,12.7050656 L30.7740647,12.3281729 C30.6451767,8.25793993 27.3185085,5 23.2361212,5 C19.7836069,5 16.8034322,7.34945579 15.9421809,10.6401484 L15.8815858,10.8886932 L15.4379844,12.8511606 L13.6838397,11.8657483 C13.0326145,11.4999146 12.3016946,11.3055254 11.5401344,11.3055254 C9.10743552,11.3055254 7.13322419,13.2866401 7.13322419,15.7330286 C7.13322419,15.7907613 7.13488485,15.8525253 7.13827348,15.921841 L7.14466079,16.0319184 L7.21825159,17.1464806 L6.17152498,17.5363881 C4.28140624,18.2404606 3,20.0565766 3,22.1165143 C3,24.5194765 4.72716006,26.5156056 7.00069238,26.923691 L7.00000079,29.9532322 C3.06263606,29.5230141 0,26.1775142 0,22.1165143 C0,19.272451 1.51613136,16.7146596 3.87033137,15.3233012 L4.11683104,15.1835645 L4.155,15.163 L4.16847805,15.0037798 C4.51810272,11.4066385 7.4270022,8.55998234 11.0476306,8.32168102 L11.2955728,8.30949688 L11.5401344,8.30552538 C12.0523012,8.30552538 12.5574022,8.35813082 13.0493098,8.4606742 L13.4156709,8.54690342 L13.479,8.564 L13.5579816,8.37479005 C15.1163924,4.7593625 18.6061281,2.24365762 22.6399874,2.0167321 L22.9513342,2.00381069 L23.2361212,2 Z" id="Combined-Shape"></path>
            </g>
        </g>
    </g>
</svg>