<?xml version="1.0" encoding="UTF-8"?>
<svg width="90px" height="41px" viewBox="0 0 90 41" version="1.1" xmlns="http://www.w3.org/2000/svg" xmlns:xlink="http://www.w3.org/1999/xlink">
    <title>Group 8</title>
    <defs>
        <linearGradient x1="21.4947356%" y1="0%" x2="78.5052644%" y2="100%" id="linearGradient-1">
            <stop stop-color="#009EFF" offset="0%"></stop>
            <stop stop-color="#30CCC6" offset="100%"></stop>
        </linearGradient>
        <linearGradient x1="13.5216514%" y1="0%" x2="86.4783486%" y2="100%" id="linearGradient-2">
            <stop stop-color="#009EFF" offset="0%"></stop>
            <stop stop-color="#30CCC6" offset="100%"></stop>
        </linearGradient>
    </defs>
    <g id="Desktop" stroke="none" stroke-width="1" fill="none" fill-rule="evenodd">
        <g id="Service---mobile-app" transform="translate(-482.000000, -2090.000000)">
            <g id="Group-8" transform="translate(482.000000, 2090.000000)">
                <g id="Group" fill="url(#linearGradient-1)" fill-rule="nonzero">
                    <g id="Combined-Shape">
                        <path d="M30,14 L30,34 L25,33.9996987 L25,38.5 C25,39.3284271 24.3284271,40 23.5,40 C22.6715729,40 22,39.3284271 22,38.5 L22,33.9996987 L18,33.9996987 L18,38.5 C18,39.3284271 17.3284271,40 16.5,40 C15.6715729,40 15,39.3284271 15,38.5 L15,33.9996987 L10,34 L10,14 L30,14 Z M27,17 L13,17 L13,31 L27,31 L27,17 Z M6.5,14 C7.32842712,14 8,14.6715729 8,15.5 L8,26.5 C8,27.3284271 7.32842712,28 6.5,28 C5.67157288,28 5,27.3284271 5,26.5 L5,15.5 C5,14.6715729 5.67157288,14 6.5,14 Z M33.5,14 C34.3284271,14 35,14.6715729 35,15.5 L35,26.5 C35,27.3284271 34.3284271,28 33.5,28 C32.6715729,28 32,27.3284271 32,26.5 L32,15.5 C32,14.6715729 32.6715729,14 33.5,14 Z M13.2990381,1.01794919 L15.1897545,4.29234016 C16.6169503,3.46857449 18.2563602,3 20,3 C21.7670526,3 23.4270574,3.4812426 24.8676218,4.3257155 L26.7009619,1.15192379 C27.1151755,0.434484853 28.0325611,0.188672121 28.75,0.602885683 C29.4674389,1.01709925 29.7132517,1.93448485 29.2990381,2.65192379 L29.2990381,2.65192379 L27.2265411,6.24227334 C28.6338647,7.7867529 29.5965536,9.78159492 29.8987505,12.0001492 L10.1012495,12.0001492 C10.4068047,9.75694047 11.3876133,7.74244379 12.8205414,6.19094982 L10.7009619,2.51794919 C10.2867483,1.80051026 10.5325611,0.883124649 11.25,0.468911087 C11.9674389,0.0546975244 12.8848245,0.300510257 13.2990381,1.01794919 Z M20,6 C17.7996106,6 15.797975,7.10286283 14.5039659,8.85371088 L14.399,9 L25.6,9 L25.4960341,8.85371088 C24.2482396,7.16539312 22.3424608,6.07960243 20.2349723,6.00419942 L20,6 Z"></path>
                    </g>
                </g>
                <g id="Combined-Shape" transform="translate(50.000000, 0.000000)" fill="url(#linearGradient-2)">
                    <path d="M28.3665627,9.3625 C31.0840627,9.3625 33.9615627,10.8525 36.0090627,13.42 C29.2965627,17.1225 30.3840627,26.7675 37.1665627,29.35 L36.8371877,30.0800146 C36.1623049,31.5621606 35.7052737,32.4540857 34.8009866,33.8647491 L34.5840627,34.2 C32.9065627,36.77 30.5440627,39.9725 27.6115627,39.995 C25.0090627,40.0225 24.3390627,38.29 20.8065627,38.31 C17.2740627,38.3275 16.5390627,40.025 13.9315627,40.000541 C11.0015627,39.975 8.76156273,37.085 7.08406273,34.515 C2.39656273,27.3325 1.90156273,18.9 4.79406273,14.415 C6.85156273,11.23 10.0965627,9.3675 13.1440627,9.3675 C16.2465627,9.3675 18.1990627,11.08 20.7690627,11.08 C23.2615627,11.08 24.7790627,9.3625 28.3665627,9.3625 Z M28.3665627,12.3625 C27.2727629,12.3625 26.5024991,12.543372 25.2151131,13.0285252 L24.4829062,13.3061349 C24.2801729,13.3815275 24.1084189,13.4433412 23.9365757,13.5022719 C22.8301461,13.8817032 21.8606062,14.08 20.7690627,14.08 C19.597474,14.08 18.5450905,13.8642202 17.2843042,13.4472912 L16.9026208,13.3176004 L16.1460734,13.0485584 C14.7217474,12.5392067 14.0164131,12.3675 13.1440627,12.3675 C11.1019638,12.3675 8.8033488,13.7373516 7.31522111,16.0409645 C4.99021741,19.6460264 5.6985448,26.902885 9.59626232,32.8752277 L9.96861395,33.4332627 C11.6188316,35.8497383 12.9281894,36.9915071 13.96001,37.0005595 C14.3339511,37.0039544 14.6015326,36.9458524 15.0780654,36.7490707 L15.8405808,36.4131749 C17.5152489,35.669854 18.8487136,35.3196624 20.7895779,35.3100481 C22.6382311,35.2995815 23.9331437,35.60892 25.4662171,36.2756074 L26.3237946,36.6647834 C26.9107603,36.9289082 27.1748127,36.9994476 27.5885455,36.9950883 C28.62222,36.9871573 30.1323815,35.5315946 32.0717736,32.5603649 L32.4267588,32.0090231 C32.700939,31.575829 32.9264338,31.198194 33.1438687,30.8004851 L33.2487502,30.603 L33.1178254,30.5069887 C27.7978096,26.4655462 26.9295505,18.5236258 31.2404102,13.4777717 L31.4047502,13.289 L31.2485829,13.1958528 C30.3762108,12.6986907 29.4650699,12.4127446 28.6009897,12.3685394 L28.3665627,12.3625 Z M27.5815627,-1.77635684e-14 C27.9390627,2.43 26.9515627,4.81 25.6465627,6.4925 C24.2515627,8.3 21.8440627,9.6975 19.5140627,9.625 C19.0890627,7.2975 20.1790627,4.9025 21.5040627,3.29 C22.9565627,1.5125 25.4490627,0.1475 27.5815627,-1.77635684e-14 Z"></path>
                </g>
            </g>
        </g>
    </g>
</svg>