<svg width="141" height="71" viewBox="0 0 141 71" fill="none" xmlns="http://www.w3.org/2000/svg">
<circle cx="27.5" cy="27.5" r="27.5" fill="#F5F5F5"/>
<path d="M25.25 69.8304L24.25 69.8308L24.2504 70.8308L25.2504 70.8304L25.25 69.8304ZM25.2332 28.9999L26.2332 28.9995L26.2328 27.9999H25.2332V28.9999ZM28.25 69.8291L28.2504 70.8291L29.2504 70.8287L29.25 69.8287L28.25 69.8291ZM28.2332 28.9999V27.9999H27.2328L27.2332 29.0004L28.2332 28.9999ZM171 28.9999V29.9999L172 29.9999V28.9999L171 28.9999ZM171 25.9999L172 25.9999V24.9999L171 24.9999V25.9999ZM28.2319 25.9999L27.2319 26.0004L27.2323 26.9999H28.2319V25.9999ZM28.2279 16.2792L29.2279 16.2788L29.2275 15.2788L28.2275 15.2792L28.2279 16.2792ZM25.2279 16.2804L25.2275 15.2804L24.2275 15.2808L24.2279 16.2808L25.2279 16.2804ZM25.2319 25.9999V26.9999H26.2323L26.2319 25.9995L25.2319 25.9999ZM16 25.9999V24.9999H15V25.9999H16ZM16 28.9999H15V29.9999H16V28.9999ZM26.25 69.83L26.2332 28.9995L24.2332 29.0004L24.25 69.8308L26.25 69.83ZM28.2496 68.8291L25.2496 68.8304L25.2504 70.8304L28.2504 70.8291L28.2496 68.8291ZM27.2332 29.0004L27.25 69.8295L29.25 69.8287L29.2332 28.9995L27.2332 29.0004ZM171 27.9999L28.2332 27.9999V29.9999L171 29.9999V27.9999ZM170 25.9999V28.9999L172 28.9999V25.9999L170 25.9999ZM28.2319 26.9999L171 26.9999V24.9999L28.2319 24.9999V26.9999ZM27.2279 16.2796L27.2319 26.0004L29.2319 25.9995L29.2279 16.2788L27.2279 16.2796ZM25.2283 17.2804L28.2283 17.2792L28.2275 15.2792L25.2275 15.2804L25.2283 17.2804ZM26.2319 25.9995L26.2279 16.28L24.2279 16.2808L24.2319 26.0004L26.2319 25.9995ZM16 26.9999H25.2319V24.9999H16V26.9999ZM17 28.9999V25.9999H15L15 28.9999H17ZM25.2332 27.9999H16V29.9999H25.2332V27.9999Z" fill="#262332"/>
</svg>
