<svg width="338" height="378" viewBox="0 0 338 378" fill="none" xmlns="http://www.w3.org/2000/svg">
<circle r="33.5" transform="matrix(-1 0 0 1 134.5 310.5)" fill="#F5F5F5"/>
<path d="M138.75 376.792L139.75 376.793L139.75 377.793L138.75 377.792L138.75 376.792ZM138.767 327L137.767 327L137.767 326H138.767V327ZM135.75 376.791L135.75 377.791L134.75 377.791L134.75 376.791L135.75 376.791ZM135.767 327V326H136.767L136.767 327L135.767 327ZM-39 327V328H-40V327H-39ZM-39 324H-40V323H-39V324ZM135.768 324L136.768 324L136.767 325H135.768V324ZM135.772 311.342L134.772 311.341L134.772 310.341L135.772 310.342L135.772 311.342ZM138.772 311.343L138.772 310.343L139.772 310.343L139.772 311.343L138.772 311.343ZM138.768 324V325H137.767L137.768 324L138.768 324ZM150 324V323H151V324H150ZM150 327H151V328H150V327ZM137.75 376.792L137.767 327L139.767 327L139.75 376.793L137.75 376.792ZM135.75 375.791L138.75 375.792L138.75 377.792L135.75 377.791L135.75 375.791ZM136.767 327L136.75 376.792L134.75 376.791L134.767 327L136.767 327ZM-39 326H135.767V328H-39V326ZM-38 324V327H-40V324H-38ZM135.768 325H-39V323H135.768V325ZM136.772 311.342L136.768 324L134.768 324L134.772 311.341L136.772 311.342ZM138.772 312.343L135.772 312.342L135.772 310.342L138.772 310.343L138.772 312.343ZM137.768 324L137.772 311.342L139.772 311.343L139.768 324L137.768 324ZM150 325H138.768V323H150V325ZM149 327V324H151V327H149ZM138.767 326H150V328H138.767V326Z" fill="#262332"/>
<path fill-rule="evenodd" clip-rule="evenodd" d="M184 162H137L149.902 232H184H218.097L231 162H184Z" fill="white"/>
<path fill-rule="evenodd" clip-rule="evenodd" d="M184 162H137L149.901 232H184H218.098L231 162H184Z" stroke="#262332" stroke-width="2" stroke-linecap="round"/>
<path fill-rule="evenodd" clip-rule="evenodd" d="M237.787 35C237.787 35 238.522 51.9004 240.728 61.2634C242.935 70.6264 231.011 86.7671 230.722 94.1096C230.433 101.453 232.638 116.584 226.021 123.119C219.402 129.657 214.296 134.233 211.355 144.23C208.413 154.229 189.253 162 189.253 162C189.253 162 181 148.661 181 141.398C181 134.135 188.264 120.228 187.782 108.595C187.086 91.8111 198.118 83.1412 201.06 74.3218C204.002 65.5032 208.004 52.6718 215.359 48.3142C222.712 43.9566 230.433 40.5691 237.787 35Z" fill="url(#paint0_linear)"/>
<path fill-rule="evenodd" clip-rule="evenodd" d="M232.787 35C232.787 35 233.522 51.9004 235.728 61.2634C237.935 70.6264 226.011 86.7671 225.722 94.1096C225.433 101.453 227.638 116.584 221.021 123.119C214.402 129.657 209.296 134.233 206.355 144.23C203.413 154.229 184.253 162 184.253 162C184.253 162 176 148.661 176 141.398C176 134.135 183.264 120.228 182.782 108.595C182.086 91.8111 193.118 83.1412 196.06 74.3218C199.002 65.5032 203.004 52.6718 210.359 48.3142C217.712 43.9566 225.433 40.5691 232.787 35Z" stroke="#262332" stroke-width="2" stroke-linecap="round"/>
<path d="M185 162C185 162 193.357 114.281 218 57" stroke="#262332" stroke-width="2" stroke-linecap="round"/>
<path fill-rule="evenodd" clip-rule="evenodd" d="M129.017 2C129.017 2 128.099 23.2925 125.34 35.0881C122.583 46.8846 137.486 67.2191 137.848 76.4697C138.21 85.7213 135.451 104.783 143.724 113.017C151.998 121.253 158.381 127.017 162.058 139.613C165.735 152.209 189.685 162 189.685 162C189.685 162 200 145.195 200 136.044C200 126.894 190.921 109.374 191.524 94.7179C192.393 73.5722 178.603 62.6507 174.926 51.5399C171.25 40.4291 166.245 24.2641 157.054 18.7744C147.861 13.2847 138.21 9.01573 129.017 2Z" fill="url(#paint1_linear)"/>
<path fill-rule="evenodd" clip-rule="evenodd" d="M124.017 2C124.017 2 123.099 23.2925 120.34 35.0881C117.583 46.8846 132.486 67.2191 132.848 76.4697C133.21 85.7213 130.451 104.783 138.724 113.017C146.998 121.253 153.381 127.017 157.058 139.613C160.735 152.209 184.685 162 184.685 162C184.685 162 195 145.195 195 136.044C195 126.894 185.921 109.374 186.524 94.7179C187.393 73.5722 173.603 62.6507 169.926 51.5399C166.25 40.4291 161.245 24.2641 152.054 18.7744C142.861 13.2847 133.21 9.01573 124.017 2Z" stroke="#262332" stroke-width="2" stroke-linecap="round"/>
<path d="M142 30C173.362 102.011 184 162 184 162" stroke="#262332" stroke-width="2" stroke-linecap="round"/>
<path d="M180 139L170 133" stroke="#262332" stroke-width="2" stroke-linecap="round"/>
<path d="M167 96L147 88" stroke="#262332" stroke-width="2" stroke-linecap="round"/>
<path d="M151 52L142 49" stroke="#262332" stroke-width="2" stroke-linecap="round"/>
<path d="M157 67L161 56" stroke="#262332" stroke-width="2" stroke-linecap="round"/>
<path d="M175 118L180 109" stroke="#262332" stroke-width="2" stroke-linecap="round"/>
<path d="M149 172.5H229" stroke="#262332" stroke-width="2" stroke-linecap="round"/>
<path d="M219 227.5H150" stroke="#262332" stroke-width="2" stroke-linecap="round"/>
<circle cx="326.5" cy="360.5" r="10" stroke="#262332" stroke-width="2" stroke-linecap="round"/>
<path d="M322 232.5H140" stroke="#262332" stroke-width="2" stroke-linecap="round"/>
<defs>
<linearGradient id="paint0_linear" x1="151" y1="98.5" x2="249.103" y2="144.848" gradientUnits="userSpaceOnUse">
<stop stop-color="#4C00FF"/>
<stop offset="1" stop-color="#AA00FD"/>
</linearGradient>
<linearGradient id="paint1_linear" x1="87.5" y1="82" x2="210.478" y2="139.646" gradientUnits="userSpaceOnUse">
<stop stop-color="#4C00FF"/>
<stop offset="1" stop-color="#AA00FD"/>
</linearGradient>
</defs>
</svg>
