<?xml version="1.0" encoding="UTF-8"?>
<svg width="40px" height="40px" viewBox="0 0 40 40" version="1.1" xmlns="http://www.w3.org/2000/svg" xmlns:xlink="http://www.w3.org/1999/xlink">
    <title>E47786EA-7CC8-4CF5-89A8-8029A3C213B7@</title>
    <defs>
        <linearGradient x1="0%" y1="8.82297821%" x2="100%" y2="91.1770218%" id="linearGradient-1">
            <stop stop-color="#009EFF" offset="0%"></stop>
            <stop stop-color="#30CCC6" offset="100%"></stop>
        </linearGradient>
    </defs>
    <g id="Desktop" stroke="none" stroke-width="1" fill="none" fill-rule="evenodd">
        <g id="Service---seo" transform="translate(-1042.000000, -2090.000000)" fill="url(#linearGradient-1)" fill-rule="nonzero">
            <g id="icon/code-copy" transform="translate(1042.000000, 2090.000000)">
                <path d="M18.5,35 C19.3284271,35 20,35.6715729 20,36.5 C20,37.3284271 19.3284271,38 18.5,38 L1.5,38 C0.671572875,38 2.07666026e-15,37.3284271 1.9752072e-15,36.5 C1.87375414e-15,35.6715729 0.671572875,35 1.5,35 L18.5,35 Z M21,2 C29.2842712,2 36,8.71572875 36,17 C36,20.2459636 34.9689688,23.251117 33.2165327,25.7058337 C33.3855114,25.8109735 33.5467229,25.9333258 33.6981635,26.0725031 L38.7448822,30.7105494 C39.9080914,31.7795644 39.9844509,33.5891395 38.9154359,34.7523487 C38.8713802,34.8002863 38.8257006,34.8467059 38.7784771,34.8915263 C37.527783,36.0785749 35.5714442,36.0942944 34.3018365,34.9274969 L29.2551178,30.2894506 C29.0910277,30.1386482 28.9485658,29.9731088 28.8278962,29.7967258 C26.5508155,31.1942541 23.8695038,32 21,32 C20.3524723,32 19.7145276,31.95897 19.088624,31.8793681 C18.9079376,31.9572728 18.7089586,32 18.5,32 L1.5,32 C0.671572875,32 3.00303422e-16,31.3284271 1.9885036e-16,30.5 C9.7397297e-17,29.6715729 0.671572875,29 1.5,29 L12.0000239,29.0011165 C10.8639818,28.1478057 9.85303993,27.1369469 8.99963647,26.0009785 L1.5,26 C0.671572875,26 1.18848184e-15,25.3284271 1.08702878e-15,24.5 C9.85575717e-16,23.6715729 0.671572875,23 1.5,23 L7.24851863,23.000887 C6.83221097,22.0482289 6.5119971,21.0439725 6.30012951,20.0003703 L1.5,20 C0.671572875,20 -1.43785787e-16,19.3284271 1.9885036e-16,18.5 C9.7397297e-17,17.6715729 0.671572875,17 1.5,17 L6,17 L6,17 C6,8.71572875 12.7157288,2 21,2 Z M21,5 C14.372583,5 9,10.372583 9,17 C9,23.627417 14.372583,29 21,29 C27.627417,29 33,23.627417 33,17 C33,10.372583 27.627417,5 21,5 Z M23.3597005,8.54376666 C26.5666061,9.33589627 28.6545115,11.4238017 29.4554688,14.6372184 C29.6558276,15.4410517 29.1666148,16.2551101 28.3627816,16.4554688 C27.5589483,16.6558276 26.7448899,16.1666148 26.5445312,15.3627816 C26.0121551,13.2269048 24.7667272,11.9814768 22.6402995,11.4562333 C21.836044,11.2575762 21.3451096,10.444555 21.5437667,9.6402995 C21.7424238,8.83604403 22.555445,8.34510956 23.3597005,8.54376666 Z" id="Combined-Shape"></path>
            </g>
        </g>
    </g>
</svg>