<?xml version="1.0" encoding="UTF-8"?>
<svg width="41px" height="40px" viewBox="0 0 41 40" version="1.1" xmlns="http://www.w3.org/2000/svg" xmlns:xlink="http://www.w3.org/1999/xlink">
    <title>DC5F06CE-6B89-45EC-B133-842DBD7C61F7@</title>
    <defs>
        <linearGradient x1="0%" y1="0.131983662%" x2="100%" y2="99.8680163%" id="linearGradient-1">
            <stop stop-color="#009EFF" offset="0%"></stop>
            <stop stop-color="#30CCC6" offset="100%"></stop>
        </linearGradient>
    </defs>
    <g id="Desktop" stroke="none" stroke-width="1" fill="none" fill-rule="evenodd">
        <g id="Service---seo" transform="translate(-481.000000, -3216.000000)" fill="url(#linearGradient-1)" fill-rule="nonzero">
            <g id="icon/code-copy-6" transform="translate(481.000000, 3216.000000)">
                <path d="M12.3321015,2.39115831 C14.1213508,0.601908935 17.0265234,0.606135117 18.8209861,2.40059775 L18.8209861,2.40059775 L39.0379942,22.6176059 C40.8324568,24.4120685 40.836683,27.3172411 39.0474336,29.1064905 C37.2581843,30.8957399 34.3530117,30.8915137 32.558549,29.097051 L32.558549,29.097051 L30.4287458,26.9679851 L15.8867981,39.3691083 C14.9223694,40.1913265 13.5072532,40.172378 12.5617025,39.3500603 L12.4299176,39.2271253 L11.4247458,38.2219851 L11.0989287,38.5497229 C9.36559336,40.2830582 6.58499024,40.3332588 4.78146105,38.7032694 L4.61004409,38.5402834 L2.44393608,36.3741754 C0.649473445,34.5797128 0.645247263,31.6745402 2.43449664,29.8852908 L2.43449664,29.8852908 L2.76074583,29.5579851 L1.7299881,28.5271958 C0.831244665,27.6284524 0.734070731,26.2163219 1.47626347,25.2110574 L1.58800507,25.0703153 L13.9867458,10.5259851 L12.3415409,8.88004291 C10.6031552,7.14165723 10.5448645,4.36089629 12.1696136,2.56210179 Z M4.92674583,31.7239851 L4.60060465,32.0513988 C4.03927151,32.612732 4.00749979,33.5035649 4.50438932,34.1051115 L4.50438932,34.1051115 L4.60375113,34.2143604 L6.76985915,36.3804684 C7.36801336,36.9786226 8.33640422,36.9800313 8.93282068,36.3836149 L8.93282068,36.3836149 L9.25974583,36.0569851 L4.92674583,31.7239851 Z M16.1501635,12.7106036 L4.22234062,26.7005613 L4.92074583,27.3979851 L4.95428086,27.3655066 L13.6187129,36.0299387 L13.5847458,36.0619851 L14.2557529,36.7339736 L28.2457107,24.8061507 L16.1501635,12.7106036 Z M16.661171,4.5604128 C16.0630168,3.96225859 15.0946259,3.96084987 14.4982095,4.55726632 C13.901793,5.15368278 13.9032018,6.12207364 14.501356,6.72022786 L14.501356,6.72022786 L34.7183641,26.937236 C35.3165183,27.5353902 36.2849092,27.5367989 36.8813256,26.9403825 C37.4777421,26.343966 37.4763334,25.3755751 36.8781792,24.7774209 L36.8781792,24.7774209 Z M35.7158523,11.1685122 L39.4334425,11.1739203 C40.3001454,11.1751811 41.003726,11.8787616 41.0049867,12.7454428 C41.0063214,13.6121008 40.3046444,14.3137778 39.4380081,14.3124432 L39.4380081,14.3124432 L35.7204397,14.3070352 C34.8536543,14.3058482 34.1499865,13.6021804 34.1488737,12.7354474 L34.1488737,12.7354474 L34.1567555,12.5750418 C34.2360302,11.7838884 34.9034379,11.1673304 35.7158523,11.1685122 L35.7158523,11.1685122 Z M34.6095192,4.18727784 C35.2214506,3.57534649 36.2150936,3.57679195 36.8288079,4.19050626 C37.4425222,4.80422058 37.4439677,5.79786357 36.8320363,6.40979492 L36.8320363,6.40979492 L34.0478997,9.19393151 C33.4359684,9.80586287 32.4423254,9.8044174 31.8286111,9.19070309 C31.2148968,8.57698878 31.2134513,7.58334579 31.8253826,6.97141443 L31.8253826,6.97141443 Z M28.2914267,0.0049868264 C29.1581296,0.0062476274 29.8617101,0.709828162 29.8629709,1.5765311 L29.8629709,1.5765311 L29.868379,5.29412123 C29.8696396,6.16073934 29.1680642,6.86236061 28.3014003,6.86109987 C27.4346974,6.85983907 26.7311169,6.15625853 26.7298561,5.2895556 L26.7298561,5.2895556 L26.724448,1.5719437 C26.7232613,0.7053162 27.4248513,0.00372621095 28.2914267,0.0049868264 Z" id="Combined-Shape"></path>
            </g>
        </g>
    </g>
</svg>