<?xml version="1.0" encoding="UTF-8"?>
<svg width="40px" height="40px" viewBox="0 0 40 40" version="1.1" xmlns="http://www.w3.org/2000/svg" xmlns:xlink="http://www.w3.org/1999/xlink">
    <title>240E0E8E-2D62-4F1A-A712-C494A6C72C74@</title>
    <defs>
        <linearGradient x1="0%" y1="0%" x2="100%" y2="100%" id="linearGradient-1">
            <stop stop-color="#009EFF" offset="0%"></stop>
            <stop stop-color="#30CCC6" offset="100%"></stop>
        </linearGradient>
    </defs>
    <g id="Desktop" stroke="none" stroke-width="1" fill="none" fill-rule="evenodd">
        <g id="Service---seo" transform="translate(-482.000000, -2834.000000)" fill="url(#linearGradient-1)" fill-rule="nonzero">
            <g id="icon/code-copy-4" transform="translate(482.000000, 2834.000000)">
                <path d="M38,0 C39.1045695,0 40,0.8954305 40,2 L40,38 C40,39.1045695 39.1045695,40 38,40 L2,40 C0.8954305,40 0,39.1045695 0,38 L0,2 C0,0.8954305 0.8954305,0 2,0 L38,0 Z M37,12 L3,12 L3,37 L37,37 L37,12 Z M24,31 C24.5522847,31 25,31.4477153 25,32 C25,32.5522847 24.5522847,33 24,33 L6,33 C5.44771525,33 5,32.5522847 5,32 C5,31.4477153 5.44771525,31 6,31 L24,31 Z M34,27 C34.5522847,27 35,27.4477153 35,28 C35,28.5522847 34.5522847,29 34,29 L6,29 C5.44771525,29 5,28.5522847 5,28 C5,27.4477153 5.44771525,27 6,27 L34,27 Z M34,23 C34.5522847,23 35,23.4477153 35,24 C35,24.5522847 34.5522847,25 34,25 L6,25 C5.44771525,25 5,24.5522847 5,24 C5,23.4477153 5.44771525,23 6,23 L34,23 Z M34,19 C34.5522847,19 35,19.4477153 35,20 C35,20.5522847 34.5522847,21 34,21 L6,21 C5.44771525,21 5,20.5522847 5,20 C5,19.4477153 5.44771525,19 6,19 L34,19 Z M34,15 C34.5522847,15 35,15.4477153 35,16 C35,16.5522847 34.5522847,17 34,17 L6,17 C5.44771525,17 5,16.5522847 5,16 C5,15.4477153 5.44771525,15 6,15 L34,15 Z M37,3 L3,3 L3,9 L37,9 L37,3 Z M6,5 C6.55228475,5 7,5.44771525 7,6 C7,6.55228475 6.55228475,7 6,7 C5.44771525,7 5,6.55228475 5,6 C5,5.44771525 5.44771525,5 6,5 Z M9,5 C9.55228475,5 10,5.44771525 10,6 C10,6.55228475 9.55228475,7 9,7 C8.44771525,7 8,6.55228475 8,6 C8,5.44771525 8.44771525,5 9,5 Z M12,5 C12.5522847,5 13,5.44771525 13,6 C13,6.55228475 12.5522847,7 12,7 C11.4477153,7 11,6.55228475 11,6 C11,5.44771525 11.4477153,5 12,5 Z" id="Combined-Shape"></path>
            </g>
        </g>
    </g>
</svg>