<?xml version="1.0" encoding="UTF-8"?>
<svg width="406px" height="252px" viewBox="0 0 406 252" version="1.1" xmlns="http://www.w3.org/2000/svg" xmlns:xlink="http://www.w3.org/1999/xlink">
    <title>D03BA4A9-479C-4AAB-9F17-A4608776B3CD</title>
    <g id="Desktop" stroke="none" stroke-width="1" fill="none" fill-rule="evenodd">
        <g id="Service---seo" transform="translate(-1096.000000, -525.000000)" stroke="#FFFFFF" stroke-width="2">
            <g id="Group" transform="translate(1097.000000, 526.000000)">
                <path d="M10.7429109,250 C4.81054242,250 0,245.204226 0,239.287424 L0,10.7125759 C0,4.79577375 4.81054242,0 10.7429109,0 L393.257089,0 C399.189458,0 404,4.79577375 404,10.7125759 L404,239.287424 C404,245.204226 399.189458,250 393.257089,250 L10.7429109,250 Z" id="Fill-1" stroke-linecap="round"></path>
                <path d="M18.5,15 C20.4331723,15 22,16.5668277 22,18.5 C22,20.4331723 20.4331723,22 18.5,22 C16.5668277,22 15,20.4331723 15,18.5 C15,16.5668277 16.5668277,15 18.5,15 Z M31.5,15 C33.4331723,15 35,16.5668277 35,18.5 C35,20.4331723 33.4331723,22 31.5,22 C29.5668277,22 28,20.4331723 28,18.5 C28,16.5668277 29.5668277,15 31.5,15 Z M44.5,15 C46.4331723,15 48,16.5668277 48,18.5 C48,20.4331723 46.4331723,22 44.5,22 C42.5668277,22 41,20.4331723 41,18.5 C41,16.5668277 42.5668277,15 44.5,15 Z" id="Combined-Shape" stroke-linecap="round"></path>
                <line x1="0" y1="35.5" x2="374" y2="35.5" id="Stroke-10" stroke-linecap="round"></line>
                <circle id="Oval-Copy" cx="293" cy="113" r="54"></circle>
                <path d="M337.047901,158.048357 C340.940283,154.155724 347.251284,154.155519 351.143918,158.047901 C351.143958,158.047941 351.143998,158.047981 351.144038,158.048021 L366.951764,173.855264 C370.844417,177.747799 370.844567,184.058923 366.952099,187.951643 C363.059717,191.844276 356.748716,191.844481 352.856082,187.952099 C352.856042,187.952059 352.856002,187.952019 352.855962,187.951979 L337.048236,172.144736 C333.155583,168.252201 333.155433,161.941077 337.047901,158.048357 Z" id="Rectangle" stroke-linecap="round"></path>
                <path d="M298,79 C312.793153,83.1931485 322.45982,92.8598151 327,108" id="Path-17" stroke-linecap="round"></path>
                <rect id="Rectangle" stroke-linecap="round" x="113" y="107" width="180" height="26"></rect>
                <rect id="Rectangle-Copy-6" stroke-linecap="round" x="182" y="78" width="44" height="9"></rect>
            </g>
        </g>
    </g>
</svg>