<?xml version="1.0" encoding="UTF-8"?>
<svg width="40px" height="40px" viewBox="0 0 40 40" version="1.1" xmlns="http://www.w3.org/2000/svg" xmlns:xlink="http://www.w3.org/1999/xlink">
    <title>48D898AE-8379-4388-8971-15F666E833F8@</title>
    <defs>
        <linearGradient x1="0%" y1="24.5935049%" x2="100%" y2="75.4064951%" id="linearGradient-1">
            <stop stop-color="#009EFF" offset="0%"></stop>
            <stop stop-color="#30CCC6" offset="100%"></stop>
        </linearGradient>
    </defs>
    <g id="Desktop" stroke="none" stroke-width="1" fill="none" fill-rule="evenodd">
        <g id="Service---seo" transform="translate(-482.000000, -2462.000000)" fill="url(#linearGradient-1)" fill-rule="nonzero">
            <g id="icon/code-copy-2" transform="translate(482.000000, 2462.000000)">
                <path d="M23.3209789,6.40625939 C25.1805467,5.54704673 26.7096826,5.47273057 28.516113,6.53559075 C31.0057602,8.00043932 32.1660277,12.2847431 32.4449564,17.3576511 L32.4431747,17.3254719 L32.4431747,17.3254719 C37.0477077,19.0655024 40,21.7506305 40,24.7632924 C40,30.0099975 31.045695,34.2632924 20,34.2632924 C8.954305,34.2632924 0,30.0099975 0,24.7632924 C0,21.7507268 2.9521036,19.065674 7.55716412,17.3252288 L7.57703239,16.9878996 C7.89136153,12.07743 9.05496285,7.96471131 11.483887,6.53559075 C13.3688578,5.42651926 14.9518974,5.55565868 16.9234973,6.52275286 L16.9234973,6.52275286 L17.8540713,6.99753092 C18.8469582,7.49901243 19.3732953,7.67159317 20,7.67159317 L20,7.67159317 L20.1528564,7.66740857 C20.7288438,7.63588287 21.2247866,7.46319608 22.1457365,6.99767472 L22.1457365,6.99767472 L22.7429764,6.69028274 Z M7.49088336,20.5698615 C4.68609404,21.7966891 3,23.3412366 3,24.7632924 C3,27.7441795 10.4086586,31.2632924 20,31.2632924 C29.5913414,31.2632924 37,27.7441795 37,24.7632924 C37,23.3412366 35.313906,21.7966891 32.5091066,20.5701586 L32.5108956,20.402144 C32.5085566,20.6608434 32.5043284,20.9204763 32.4982631,21.1808071 L32.4982631,21.1808071 L32.4746076,21.9636572 C32.3472642,25.4009433 28.2036263,26.7157677 20.4100821,26.7620914 L20.4100821,26.7620914 L20,26.7632924 C11.929201,26.7632924 7.65479921,25.4566402 7.52539236,21.9636572 C7.50601712,21.4406757 7.49378243,20.9195427 7.48910435,20.402144 L7.49088336,20.5698615 L7.49088336,20.5698615 Z M15.3928932,9.11627613 C14.3778026,8.64728776 13.8283384,8.63692995 13.0052176,9.12123445 C11.3059385,10.1210494 10.3919829,15.7577954 10.503509,21.1640566 L10.503509,21.1640566 L10.5233357,21.8525904 C10.5360774,22.1965194 10.9823646,22.5967342 12.2689309,22.9900277 C13.9285831,23.4973708 16.518577,23.7632989 19.9955834,23.7632989 L19.9955834,23.7632989 L20.8687456,23.7575519 C23.9764208,23.7155398 26.3041172,23.4433294 27.8184899,22.9628014 C29.0433479,22.5741398 29.464263,22.1873287 29.4766643,21.8525904 C29.4985702,21.2613001 29.5079557,20.6647196 29.5051398,20.0693185 C26.1445114,20.7462995 22.7824838,21.0844281 19.4195678,21.0844281 C18.5911407,21.0844281 17.9195678,20.4128552 17.9195678,19.5844281 C17.9195678,18.756001 18.5911407,18.0844281 19.4195678,18.0844281 C22.7393139,18.0844281 26.060038,17.7339591 29.3833124,17.0324482 C29.0861086,13.1657149 28.2571446,9.86397796 26.9947824,9.12123445 C26.1167869,8.60464299 25.5501518,8.6508673 24.3976613,9.2161782 L24.3976613,9.2161782 L23.4476587,9.70105529 C22.2002069,10.3286462 21.3976366,10.6037278 20.2758668,10.6646055 L20.2758668,10.6646055 L20,10.6715932 C18.7102932,10.6715932 17.7960108,10.3459605 16.2562228,9.5499061 L16.2562228,9.5499061 L15.8262128,9.32798588 Z" id="Combined-Shape"></path>
            </g>
        </g>
    </g>
</svg>