<?xml version="1.0" encoding="UTF-8"?>
<svg width="42px" height="40px" viewBox="0 0 42 40" version="1.1" xmlns="http://www.w3.org/2000/svg" xmlns:xlink="http://www.w3.org/1999/xlink">
    <title>BB0D0EB6-59C9-49F1-B11D-7A7EB7B4A235@</title>
    <defs>
        <linearGradient x1="0%" y1="7.23028684%" x2="100%" y2="92.7697132%" id="linearGradient-1">
            <stop stop-color="#009EFF" offset="0%"></stop>
            <stop stop-color="#30CCC6" offset="100%"></stop>
        </linearGradient>
    </defs>
    <g id="Desktop" stroke="none" stroke-width="1" fill="none" fill-rule="evenodd">
        <g id="Service---seo" transform="translate(-1041.000000, -2834.000000)" fill="url(#linearGradient-1)">
            <g id="icon/code-copy-5" transform="translate(1041.000000, 2834.000000)">
                <path d="M21.2013425,0.899319723 C22.5254647,0.919965036 23.8628999,1.26920699 25.0903367,1.97992115 C26.7977949,2.96857874 28.006842,4.48813795 28.6292421,6.20929626 L40.0361526,26.0261042 C42.2526168,29.8762556 40.9349226,34.7939751 37.0903367,37.0200789 C33.3313115,39.1966409 28.5406218,37.9829892 26.2592423,34.3218737 L26.1227314,34.0946737 L20.9989497,25.1963197 L16.5221952,32.9760875 C16.4094702,33.2599675 16.2795561,33.5401948 16.1320983,33.815446 L16.0048095,34.0442286 C14.728564,36.2547506 12.5664652,37.6349568 10.2258225,37.9953243 C8.45707799,38.2854896 6.58135425,37.9880264 4.90966333,37.0200789 C1.36009705,34.9647983 -0.0355070591,30.6151423 1.51557419,26.9296049 C1.60645557,26.7094391 1.70768815,26.4914112 1.8195029,26.2762566 L1.99519053,25.9557714 L2.12967765,25.7311447 C2.14121752,25.7125481 2.15282165,25.6940139 2.16448958,25.6755423 L13.3707579,6.20929626 C13.993158,4.48813795 15.2022051,2.96857874 16.9096633,1.97992115 C18.1371001,1.26920699 19.4745353,0.919965036 20.7986575,0.899319723 L21.2013425,0.899319723 Z M15.8886342,9.00169313 L15.8917708,9.14138697 C15.8924733,9.16073509 15.8932875,9.18008602 15.8942135,9.19943878 C15.8951004,9.21791381 15.8960426,9.23559519 15.8970784,9.25327736 C15.900659,9.31456642 15.9054384,9.37664676 15.9113796,9.4387051 C15.9136274,9.46216096 15.9159892,9.48514134 15.9185109,9.50811707 C15.9245077,9.56279269 15.9314604,9.61779945 15.9393358,9.67275736 L15.948291,9.73267532 L15.948291,9.73267532 L15.9579849,9.79257946 C15.9623077,9.8183064 15.9668343,9.84401904 15.9715653,9.8697151 L15.9948938,9.98837665 L15.9948938,9.98837665 L15.9991878,10.0086987 C16.0322701,10.1636768 16.0728659,10.3178973 16.1211108,10.4708535 C16.1310608,10.5023881 16.141174,10.5333884 16.1516036,10.5643323 C16.1664894,10.6085055 16.1821151,10.6528224 16.1983966,10.6970105 C16.2094089,10.7269006 16.2207762,10.7568728 16.2324474,10.7867816 C16.2553121,10.8453736 16.2793317,10.9036958 16.3045246,10.9617453 C16.3123246,10.9797151 16.3201166,10.9973899 16.3280179,11.0150386 C16.3487683,11.0613953 16.3704212,11.1078779 16.3928425,11.1541619 L16.4338705,11.2369375 L16.4338705,11.2369375 L16.452464,11.2732534 C16.4878564,11.3417067 16.5249636,11.4096891 16.5637993,11.4771493 L16.5637993,11.4771493 L22.7299497,22.1893197 L28.7126315,32.5805122 L28.8396092,32.7895271 C29.7722168,34.2449256 31.3452803,35.0672629 32.9721389,35.1001318 L33.1942616,35.0997058 L33.1942616,35.0997058 L33.4167206,35.0894049 C34.1584438,35.0385124 34.9002624,34.8215688 35.5870808,34.4238852 C37.9333324,33.0653515 38.7803232,30.1098226 37.5470205,27.7257497 L37.4362007,27.5228507 L28.5081991,12.0132956 L28.5079497,12.0133197 L25.2801343,6.40695542 C25.240889,6.33917689 25.2003028,6.27265826 25.1584289,6.20741365 L25.2801343,6.40695542 C25.2149451,6.29437057 25.1460564,6.18526197 25.0737109,6.07969434 L25.0331549,6.02139625 L25.0331549,6.02139625 L25.0119643,5.99161654 L25.0119643,5.99161654 L24.8987297,5.83980619 C24.8960876,5.83639968 24.8934417,5.83299734 24.890792,5.82959916 C24.8607297,5.79105007 24.830388,5.75328775 24.7995799,5.71605844 C24.7798583,5.69222715 24.7599937,5.66867022 24.7399425,5.6453316 C24.7094577,5.60984429 24.6783276,5.57462654 24.6467729,5.53992381 C24.6268141,5.51797535 24.6068128,5.4963682 24.586647,5.47496535 C24.5590243,5.44564898 24.5311418,5.41676538 24.5029598,5.38826595 C24.4723419,5.35729329 24.4408041,5.3262311 24.4089107,5.29564193 C24.3882083,5.27578451 24.3672176,5.25599826 24.3460782,5.23641478 C24.3135289,5.20626467 24.2808415,5.17678357 24.2478171,5.14777994 C24.2198963,5.12325578 24.191523,5.09889547 24.162912,5.0748834 C24.1311065,5.04819222 24.0991479,5.0220436 24.0669073,4.99632402 C24.0435333,4.97767575 24.019809,4.95909765 23.9959375,4.94074989 C23.9578373,4.91147019 23.9196484,4.88298438 23.8811046,4.8550805 C23.856373,4.83717411 23.8312866,4.81936207 23.8060554,4.80179468 C23.7678812,4.77521507 23.729335,4.74916887 23.6904702,4.72368747 C23.6679619,4.70893346 23.645799,4.69465514 23.6235359,4.68055944 C23.5666772,4.64454833 23.5085504,4.60937339 23.4497985,4.57542632 C23.4421023,4.57097945 23.4344176,4.56656638 23.4267223,4.56217428 C23.3968526,4.54512767 23.3670123,4.52849962 23.3370202,4.51218507 C23.2121946,4.44428827 23.0848361,4.3818641 22.955242,4.32496614 C22.8429724,4.27569265 22.7296719,4.2307955 22.6149622,4.1900657 C22.5822506,4.17845221 22.5496053,4.16723768 22.5168523,4.15635984 C22.4777834,4.14338256 22.4383601,4.13082294 22.3987918,4.11874991 C22.372906,4.11085367 22.3473005,4.10326415 22.3216373,4.09587813 C22.269502,4.08086948 22.2167934,4.06661594 22.1638659,4.05321904 C22.1479819,4.04919832 22.1320201,4.04524066 22.1160391,4.04136089 C22.0646185,4.02887935 22.0131875,4.01724373 21.9615789,4.00641394 C21.9324608,4.00030055 21.9027839,3.99434758 21.8730523,3.98866105 C21.8325248,3.98091452 21.792477,3.9737596 21.7523399,3.96708818 C21.7150162,3.96087954 21.6769845,3.95499876 21.6388808,3.94955238 C21.6044114,3.9446295 21.5704614,3.94013265 21.5364599,3.93598096 C21.4959042,3.93102543 21.4548427,3.92651881 21.4137161,3.92251633 C21.3867431,3.91989122 21.3597294,3.91748194 21.3326905,3.91529044 C21.2845989,3.9113936 21.2365273,3.90819095 21.1883915,3.90567847 C21.1440748,3.90336652 21.0998371,3.90164301 21.055557,3.90050416 L21.0006832,3.89939266 L21.0006832,3.89939266 C20.1179911,3.88738488 19.2268353,4.10483871 18.4129192,4.57611483 C17.1934457,5.28221807 16.3789888,6.4197402 16.0511303,7.6842123 L16.1165154,7.45438508 C16.0872113,7.54889945 16.06067,7.6442486 16.0369272,7.74030024 C16.0225783,7.79834223 16.0092231,7.85677466 15.9969023,7.91543541 C15.9922653,7.93751459 15.9877939,7.95952934 15.9834681,7.98157461 C15.972652,8.03669225 15.9627331,8.09208287 15.9537341,8.14764054 C15.9486326,8.17912956 15.9438058,8.21081881 15.9392784,8.24255775 C15.9326517,8.2890252 15.9266871,8.33542222 15.9213632,8.38191101 C15.9181133,8.41027382 15.9150698,8.43899849 15.9122713,8.46775486 C15.8975129,8.6195443 15.889581,8.77176645 15.88856,8.9243894 L15.8884489,8.96262175 C15.8884603,8.97564302 15.888522,8.98866691 15.8886342,9.00169313 Z M4.72927136,27.2333247 L4.56379932,27.5228507 C4.45751961,27.7074659 4.36418501,27.8959914 4.28351368,28.0873755 C3.34100847,30.4049219 4.22832188,33.1207147 6.45577137,34.4067333 C7.51575121,35.0187129 8.70439137,35.2059833 9.82464165,35.021344 C11.1430245,34.7819205 12.3586476,34.0200364 13.138216,32.8239953 L13.2791937,32.5946714 L13.8005012,31.6902185 C14.6012882,29.4240437 13.700947,26.8384487 11.5442286,25.5932667 C9.18616031,24.2318354 6.1913519,24.9722904 4.72927136,27.2333247 Z M13.4918009,12.0132956 L7.73596074,22.0106527 C9.50295218,21.7299899 11.3740653,22.0309213 13.0442286,22.9951905 C14.6771437,23.9379545 15.8569727,25.3641104 16.5073198,26.9885461 L19.2689497,22.1893197 L13.9638474,12.9738958 C13.7832056,12.6601084 13.6260385,12.33923 13.4918009,12.0132956 Z" id="Combined-Shape"></path>
            </g>
        </g>
    </g>
</svg>