<?xml version="1.0" encoding="utf-8"?>
<svg width="80px" height="75px" viewBox="0 0 80 75" version="1.1" xmlns:xlink="http://www.w3.org/1999/xlink" xmlns="http://www.w3.org/2000/svg">
  <desc>Created with Lunacy</desc>
  <defs>
    <linearGradient x1="0" y1="0" x2="1" y2="1" id="gradient_1">
      <stop offset="0" stop-color="#009EFF" />
      <stop offset="1" stop-color="#30CCC6" />
    </linearGradient>
    <path d="M1.999 0L22.001 0Q22.0992 0 22.1969 0.00962573Q22.2947 0.0192515 22.391 0.0384102Q22.4873 0.057569 22.5813 0.0860763Q22.6753 0.114584 22.766 0.152165Q22.8567 0.189746 22.9433 0.236039Q23.0299 0.282333 23.1116 0.336892Q23.1932 0.391452 23.2691 0.453752Q23.3451 0.516052 23.4145 0.585494Q23.4839 0.654935 23.5462 0.730848Q23.6085 0.806761 23.6631 0.888415Q23.7177 0.970069 23.764 1.05668Q23.8103 1.14329 23.8478 1.23402Q23.8854 1.32474 23.9139 1.41872Q23.9424 1.5127 23.9616 1.60901Q23.9807 1.70533 23.9904 1.80306Q24 1.9008 24 1.999L24 5.001Q24 5.0992 23.9904 5.19694Q23.9807 5.29467 23.9616 5.39099Q23.9424 5.4873 23.9139 5.58128Q23.8854 5.67525 23.8478 5.76598Q23.8103 5.85671 23.764 5.94332Q23.7177 6.02993 23.6631 6.11158Q23.6085 6.19324 23.5462 6.26915Q23.4839 6.34507 23.4145 6.41451Q23.3451 6.48395 23.2691 6.54625Q23.1932 6.60855 23.1116 6.66311Q23.0299 6.71767 22.9433 6.76396Q22.8567 6.81025 22.766 6.84783Q22.6753 6.88542 22.5813 6.91392Q22.4873 6.94243 22.391 6.96159Q22.2947 6.98075 22.1969 6.99037Q22.0992 7 22.001 7L1.999 7Q1.9008 7 1.80306 6.99037Q1.70533 6.98075 1.60901 6.96159Q1.5127 6.94243 1.41872 6.91392Q1.32474 6.88542 1.23402 6.84783Q1.14329 6.81025 1.05668 6.76396Q0.970069 6.71767 0.888415 6.66311Q0.806761 6.60855 0.730848 6.54625Q0.654935 6.48395 0.585494 6.41451Q0.516052 6.34506 0.453752 6.26915Q0.391452 6.19324 0.336892 6.11158Q0.282333 6.02993 0.236039 5.94332Q0.189746 5.85671 0.152165 5.76598Q0.114584 5.67525 0.0860763 5.58128Q0.057569 5.4873 0.0384102 5.39098Q0.0192515 5.29467 0.00962573 5.19694Q0 5.0992 0 5.001L0 1.999Q0 1.9008 0.00962573 1.80306Q0.0192515 1.70533 0.0384102 1.60901Q0.057569 1.5127 0.0860763 1.41872Q0.114584 1.32474 0.152165 1.23402Q0.189746 1.14329 0.236039 1.05668Q0.282333 0.970069 0.336892 0.888415Q0.391452 0.806761 0.453752 0.730848Q0.516052 0.654935 0.585494 0.585494Q0.654935 0.516052 0.730848 0.453752Q0.806761 0.391452 0.888415 0.336892Q0.970069 0.282333 1.05668 0.236039Q1.14329 0.189746 1.23402 0.152165Q1.32474 0.114584 1.41872 0.0860763Q1.5127 0.057569 1.60901 0.0384102Q1.70533 0.0192515 1.80306 0.00962573Q1.9008 0 1.999 0Z" transform="translate(28 68)" id="path_1" />
    <path d="M1.999 0L70.001 0Q70.0992 0 70.1969 0.00962573Q70.2947 0.0192515 70.391 0.0384102Q70.4873 0.057569 70.5813 0.0860763Q70.6753 0.114584 70.766 0.152165Q70.8567 0.189746 70.9433 0.236039Q71.0299 0.282333 71.1116 0.336892Q71.1932 0.391452 71.2691 0.453752Q71.3451 0.516052 71.4145 0.585494Q71.4839 0.654935 71.5462 0.730848Q71.6085 0.806761 71.6631 0.888415Q71.7177 0.970069 71.764 1.05668Q71.8103 1.14329 71.8478 1.23402Q71.8854 1.32474 71.9139 1.41872Q71.9424 1.5127 71.9616 1.60901Q71.9807 1.70533 71.9904 1.80306Q72 1.9008 72 1.999L72 49.001Q72 49.0992 71.9904 49.1969Q71.9807 49.2947 71.9616 49.391Q71.9424 49.4873 71.9139 49.5813Q71.8854 49.6753 71.8478 49.766Q71.8103 49.8567 71.764 49.9433Q71.7177 50.0299 71.6631 50.1116Q71.6085 50.1932 71.5462 50.2691Q71.4839 50.3451 71.4145 50.4145Q71.3451 50.4839 71.2691 50.5462Q71.1932 50.6085 71.1116 50.6631Q71.0299 50.7177 70.9433 50.764Q70.8567 50.8102 70.766 50.8478Q70.6753 50.8854 70.5813 50.9139Q70.4873 50.9424 70.391 50.9616Q70.2947 50.9807 70.1969 50.9904Q70.0992 51 70.001 51L1.999 51Q1.9008 51 1.80306 50.9904Q1.70533 50.9808 1.60901 50.9616Q1.5127 50.9424 1.41872 50.9139Q1.32474 50.8854 1.23402 50.8478Q1.14329 50.8103 1.05668 50.764Q0.970069 50.7177 0.888415 50.6631Q0.806761 50.6085 0.730848 50.5462Q0.654935 50.4839 0.585494 50.4145Q0.516052 50.3451 0.453752 50.2691Q0.391452 50.1932 0.336892 50.1116Q0.282333 50.0299 0.236039 49.9433Q0.189746 49.8567 0.152165 49.766Q0.114584 49.6753 0.0860763 49.5813Q0.057569 49.4873 0.0384102 49.391Q0.0192515 49.2947 0.00962573 49.1969Q0 49.0992 0 49.001L0 1.999Q0 1.9008 0.00962573 1.80306Q0.0192515 1.70533 0.0384102 1.60901Q0.057569 1.5127 0.0860763 1.41872Q0.114584 1.32474 0.152165 1.23402Q0.189746 1.14329 0.236039 1.05668Q0.282333 0.970069 0.336892 0.888415Q0.391452 0.806761 0.453752 0.730848Q0.516052 0.654935 0.585494 0.585494Q0.654935 0.516052 0.730848 0.453752Q0.806761 0.391452 0.888415 0.336892Q0.970069 0.282333 1.05668 0.236039Q1.14329 0.189746 1.23402 0.152165Q1.32474 0.114584 1.41872 0.0860763Q1.5127 0.057569 1.60901 0.0384102Q1.70533 0.0192515 1.80306 0.00962573Q1.9008 0 1.999 0Z" transform="translate(4 12)" id="path_2" />
    <path d="M1.999 0L8.001 0Q8.09921 0 8.19694 0.00962573Q8.29467 0.0192515 8.39098 0.0384102Q8.4873 0.057569 8.58128 0.0860763Q8.67525 0.114584 8.76598 0.152165Q8.85671 0.189746 8.94332 0.236039Q9.02993 0.282333 9.11158 0.336892Q9.19324 0.391452 9.26915 0.453752Q9.34507 0.516052 9.41451 0.585494Q9.48395 0.654935 9.54625 0.730848Q9.60855 0.806761 9.66311 0.888415Q9.71767 0.970069 9.76396 1.05668Q9.81025 1.14329 9.84783 1.23402Q9.88542 1.32474 9.91392 1.41872Q9.94243 1.5127 9.96159 1.60901Q9.98075 1.70533 9.99037 1.80306Q10 1.9008 10 1.999L10 7.001Q10 7.0992 9.99037 7.19694Q9.98075 7.29467 9.96159 7.39099Q9.94243 7.4873 9.91392 7.58128Q9.88542 7.67525 9.84783 7.76598Q9.81025 7.85671 9.76396 7.94332Q9.71767 8.02993 9.66311 8.11158Q9.60855 8.19324 9.54625 8.26915Q9.48395 8.34506 9.41451 8.41451Q9.34507 8.48395 9.26915 8.54625Q9.19324 8.60855 9.11158 8.66311Q9.02993 8.71767 8.94332 8.76396Q8.85671 8.81025 8.76598 8.84783Q8.67525 8.88542 8.58128 8.91392Q8.4873 8.94243 8.39098 8.96159Q8.29467 8.98075 8.19694 8.99037Q8.09921 9 8.001 9L1.999 9Q1.9008 9 1.80306 8.99037Q1.70533 8.98075 1.60901 8.96159Q1.5127 8.94243 1.41872 8.91392Q1.32474 8.88542 1.23402 8.84783Q1.14329 8.81025 1.05668 8.76396Q0.970069 8.71767 0.888415 8.66311Q0.806761 8.60855 0.730848 8.54625Q0.654935 8.48395 0.585494 8.41451Q0.516052 8.34506 0.453752 8.26915Q0.391452 8.19324 0.336892 8.11158Q0.282333 8.02993 0.236039 7.94332Q0.189746 7.85671 0.152165 7.76598Q0.114584 7.67525 0.0860763 7.58128Q0.057569 7.4873 0.0384102 7.39098Q0.0192515 7.29467 0.00962573 7.19694Q0 7.0992 0 7.001L0 1.999Q0 1.9008 0.00962573 1.80306Q0.0192515 1.70533 0.0384102 1.60901Q0.057569 1.5127 0.0860763 1.41872Q0.114584 1.32474 0.152165 1.23402Q0.189746 1.14329 0.236039 1.05668Q0.282333 0.970069 0.336892 0.888415Q0.391452 0.806761 0.453752 0.730848Q0.516052 0.654935 0.585494 0.585494Q0.654935 0.516052 0.730848 0.453752Q0.806761 0.391452 0.888415 0.336892Q0.970069 0.282333 1.05668 0.236039Q1.14329 0.189746 1.23402 0.152165Q1.32474 0.114584 1.41872 0.0860763Q1.5127 0.057569 1.60901 0.0384102Q1.70533 0.0192515 1.80306 0.00962573Q1.9008 0 1.999 0L1.999 0Z" transform="translate(35 61)" id="path_3" />
    <path d="M53 9C53 13.9706 48.9706 18 44 18C41.3345 18 38.9396 16.8412 37.2917 15L1.999 15Q1.9008 15 1.80306 14.9904Q1.70533 14.9807 1.60901 14.9616Q1.5127 14.9424 1.41872 14.9139Q1.32474 14.8854 1.23402 14.8478Q1.14329 14.8103 1.05668 14.764Q0.970069 14.7177 0.888415 14.6631Q0.806761 14.6085 0.730848 14.5462Q0.654935 14.4839 0.585494 14.4145Q0.516052 14.3451 0.453752 14.2692Q0.391452 14.1932 0.336892 14.1116Q0.282333 14.0299 0.236039 13.9433Q0.189746 13.8567 0.152165 13.766Q0.114584 13.6753 0.0860763 13.5813Q0.057569 13.4873 0.0384102 13.391Q0.0192515 13.2947 0.00962573 13.1969Q0 13.0992 0 13.001L0 4.999Q0 4.9008 0.00962573 4.80306Q0.0192515 4.70533 0.0384102 4.60901Q0.057569 4.5127 0.0860762 4.41872Q0.114584 4.32474 0.152165 4.23401Q0.189746 4.14329 0.236039 4.05668Q0.282333 3.97007 0.336892 3.88841Q0.391452 3.80676 0.453752 3.73085Q0.516052 3.65493 0.585493 3.58549Q0.654935 3.51605 0.730848 3.45375Q0.806761 3.39145 0.888415 3.33689Q0.970069 3.28233 1.05668 3.23604Q1.14329 3.18975 1.23402 3.15216Q1.32474 3.11458 1.41872 3.08608Q1.5127 3.05757 1.60901 3.03841Q1.70533 3.01925 1.80306 3.00963Q1.9008 3 1.999 3L37.2917 3C38.9396 1.15875 41.3345 0 44 0C48.9706 0 53 4.02944 53 9Z" transform="translate(12 25)" id="path_4" />
    <path d="M9 18C13.9706 18 18 13.9706 18 9C18 4.02944 13.9706 0 9 0C4.02944 0 0 4.02944 0 9C0 13.9706 4.02944 18 9 18Z" transform="translate(47 25)" id="path_5" />
    <clipPath id="clip_1">
      <use xlink:href="#path_1" />
    </clipPath>
    <clipPath id="clip_2">
      <use xlink:href="#path_2" />
    </clipPath>
    <clipPath id="clip_3">
      <use xlink:href="#path_3" />
    </clipPath>
    <clipPath id="clip_4">
      <use xlink:href="#path_4" />
    </clipPath>
    <clipPath id="clip_5">
      <use xlink:href="#path_5" />
    </clipPath>
  </defs>
  <g id="icon/web-dev-copy">
    <g id="Rectangle">
      <g clip-path="url(#clip_1)">
        <use xlink:href="#path_1" fill="none" stroke="#262332" stroke-width="4" stroke-linecap="round" />
      </g>
    </g>
    <g id="Rectangle-Copy">
      <g clip-path="url(#clip_2)">
        <use xlink:href="#path_2" fill="none" stroke="#262332" stroke-width="4" stroke-linecap="round" />
      </g>
    </g>
    <g id="Rectangle-Copy-14">
      <g clip-path="url(#clip_3)">
        <use xlink:href="#path_3" fill="none" stroke="#262332" stroke-width="4" stroke-linecap="round" />
      </g>
    </g>
    <path d="M1.999 0L78.001 0Q78.0992 0 78.1969 0.00962573Q78.2947 0.0192515 78.391 0.0384102Q78.4873 0.057569 78.5813 0.0860763Q78.6753 0.114584 78.766 0.152165Q78.8567 0.189746 78.9433 0.236039Q79.0299 0.282333 79.1116 0.336892Q79.1932 0.391452 79.2691 0.453752Q79.3451 0.516052 79.4145 0.585494Q79.4839 0.654935 79.5462 0.730848Q79.6085 0.806761 79.6631 0.888415Q79.7177 0.970069 79.764 1.05668Q79.8102 1.14329 79.8478 1.23402Q79.8854 1.32474 79.9139 1.41872Q79.9424 1.5127 79.9616 1.60901Q79.9807 1.70533 79.9904 1.80306Q80 1.9008 80 1.999L80 39.001Q80 39.0992 79.9904 39.1969Q79.9807 39.2947 79.9616 39.391Q79.9424 39.4873 79.9139 39.5813Q79.8854 39.6753 79.8478 39.766Q79.8102 39.8567 79.764 39.9433Q79.7177 40.0299 79.6631 40.1116Q79.6085 40.1932 79.5462 40.2691Q79.4839 40.3451 79.4145 40.4145Q79.3451 40.4839 79.2692 40.5462Q79.1932 40.6085 79.1116 40.6631Q79.0299 40.7177 78.9433 40.764Q78.8567 40.8102 78.766 40.8478Q78.6753 40.8854 78.5813 40.9139Q78.4873 40.9424 78.391 40.9616Q78.2947 40.9808 78.1969 40.9904Q78.0992 41 78.001 41L1.999 41Q1.9008 41 1.80306 40.9904Q1.70533 40.9808 1.60901 40.9616Q1.5127 40.9424 1.41872 40.9139Q1.32474 40.8854 1.23402 40.8478Q1.14329 40.8102 1.05668 40.764Q0.970069 40.7177 0.888415 40.6631Q0.806761 40.6085 0.730848 40.5462Q0.654935 40.4839 0.585494 40.4145Q0.516052 40.3451 0.453752 40.2691Q0.391452 40.1932 0.336892 40.1116Q0.282333 40.0299 0.236039 39.9433Q0.189746 39.8567 0.152165 39.766Q0.114584 39.6753 0.0860763 39.5813Q0.057569 39.4873 0.0384102 39.391Q0.0192515 39.2947 0.00962573 39.1969Q0 39.0992 0 39.001L0 1.999Q0 1.9008 0.00962573 1.80306Q0.0192515 1.70533 0.0384102 1.60901Q0.057569 1.5127 0.0860763 1.41872Q0.114584 1.32474 0.152165 1.23402Q0.189746 1.14329 0.236039 1.05668Q0.282333 0.970069 0.336892 0.888415Q0.391452 0.806761 0.453752 0.730848Q0.516052 0.654935 0.585494 0.585494Q0.654935 0.516052 0.730848 0.453752Q0.806761 0.391452 0.888415 0.336892Q0.970069 0.282333 1.05668 0.236039Q1.14329 0.189746 1.23402 0.152165Q1.32474 0.114584 1.41872 0.0860763Q1.5127 0.057569 1.60901 0.0384102Q1.70533 0.0192515 1.80306 0.00962573Q1.9008 0 1.999 0L1.999 0Z" transform="translate(0 17)" id="Rectangle-Copy" fill="url(#gradient_1)" fill-rule="evenodd" stroke="none" />
    <g id="Combined-Shape">
      <g clip-path="url(#clip_4)">
        <use xlink:href="#path_4" fill="none" stroke="#FFFFFF" stroke-width="4" stroke-linecap="round" />
      </g>
    </g>
    <g id="Oval-Copy">
      <g clip-path="url(#clip_5)">
        <use xlink:href="#path_5" fill="none" stroke="#FFFFFF" stroke-width="4" stroke-linecap="round" />
      </g>
    </g>
    <path d="M1.999 0L2.001 0Q2.0992 0 2.19694 0.00962573Q2.29467 0.0192515 2.39099 0.0384102Q2.4873 0.057569 2.58128 0.0860763Q2.67525 0.114584 2.76598 0.152165Q2.85671 0.189746 2.94332 0.236039Q3.02993 0.282333 3.11158 0.336892Q3.19324 0.391452 3.26915 0.453752Q3.34507 0.516052 3.41451 0.585494Q3.48395 0.654935 3.54625 0.730848Q3.60855 0.806761 3.66311 0.888415Q3.71767 0.970069 3.76396 1.05668Q3.81025 1.14329 3.84783 1.23402Q3.88542 1.32474 3.91392 1.41872Q3.94243 1.5127 3.96159 1.60901Q3.98075 1.70533 3.99037 1.80306Q4 1.9008 4 1.999L4 8.001Q4 8.09921 3.99037 8.19694Q3.98075 8.29467 3.96159 8.39098Q3.94243 8.4873 3.91392 8.58128Q3.88542 8.67525 3.84783 8.76598Q3.81025 8.85671 3.76396 8.94332Q3.71767 9.02993 3.66311 9.11158Q3.60855 9.19324 3.54625 9.26915Q3.48395 9.34507 3.41451 9.41451Q3.34507 9.48395 3.26915 9.54625Q3.19324 9.60855 3.11158 9.66311Q3.02993 9.71767 2.94332 9.76396Q2.85671 9.81025 2.76598 9.84783Q2.67525 9.88542 2.58128 9.91392Q2.4873 9.94243 2.39099 9.96159Q2.29467 9.98075 2.19694 9.99037Q2.0992 10 2.001 10L1.999 10Q1.9008 10 1.80306 9.99037Q1.70533 9.98075 1.60901 9.96159Q1.5127 9.94243 1.41872 9.91392Q1.32474 9.88542 1.23402 9.84783Q1.14329 9.81025 1.05668 9.76396Q0.970069 9.71767 0.888415 9.66311Q0.806761 9.60855 0.730848 9.54625Q0.654935 9.48395 0.585494 9.41451Q0.516052 9.34507 0.453752 9.26915Q0.391452 9.19324 0.336892 9.11158Q0.282333 9.02993 0.236039 8.94332Q0.189746 8.85671 0.152165 8.76598Q0.114584 8.67525 0.0860763 8.58128Q0.057569 8.4873 0.0384102 8.39098Q0.0192515 8.29467 0.00962573 8.19694Q0 8.09921 0 8.001L0 1.999Q0 1.9008 0.00962573 1.80306Q0.0192515 1.70533 0.0384102 1.60901Q0.057569 1.5127 0.0860763 1.41872Q0.114584 1.32474 0.152165 1.23402Q0.189746 1.14329 0.236039 1.05668Q0.282333 0.970069 0.336892 0.888415Q0.391452 0.806761 0.453752 0.730848Q0.516052 0.654935 0.585494 0.585494Q0.654935 0.516052 0.730848 0.453752Q0.806761 0.391452 0.888415 0.336892Q0.970069 0.282333 1.05668 0.236039Q1.14329 0.189746 1.23402 0.152165Q1.32474 0.114584 1.41872 0.0860763Q1.5127 0.057569 1.60901 0.0384102Q1.70533 0.0192515 1.80306 0.00962573Q1.9008 0 1.999 0L1.999 0Z" transform="matrix(0.70710677 -0.70710677 0.70710677 0.70710677 59.75736 40.58579)" id="Rectangle" fill="#FFFFFF" fill-rule="evenodd" stroke="none" />
    <path d="M0.999 0L1.001 0Q1.09939 0 1.1959 0.0191955Q1.2924 0.038391 1.3833 0.0760443Q1.4742 0.113698 1.55601 0.168362Q1.63783 0.223026 1.7074 0.2926Q1.77697 0.362175 1.83164 0.443985Q1.8863 0.525796 1.92396 0.616699Q1.96161 0.707602 1.9808 0.804105Q2 0.900607 2 0.999L2 11.001Q2 11.0994 1.9808 11.1959Q1.96161 11.2924 1.92396 11.3833Q1.8863 11.4742 1.83164 11.556Q1.77697 11.6378 1.7074 11.7074Q1.63783 11.777 1.55601 11.8316Q1.4742 11.8863 1.3833 11.924Q1.2924 11.9616 1.1959 11.9808Q1.09939 12 1.001 12L0.999 12Q0.900607 12 0.804105 11.9808Q0.707602 11.9616 0.616699 11.924Q0.525796 11.8863 0.443985 11.8316Q0.362175 11.777 0.2926 11.7074Q0.223026 11.6378 0.168362 11.556Q0.113698 11.4742 0.0760443 11.3833Q0.038391 11.2924 0.0191955 11.1959Q0 11.0994 0 11.001L0 0.999Q0 0.900607 0.0191955 0.804105Q0.038391 0.707602 0.0760443 0.616699Q0.113698 0.525796 0.168362 0.443985Q0.223026 0.362175 0.2926 0.2926Q0.362175 0.223026 0.443985 0.168362Q0.525796 0.113698 0.616699 0.0760443Q0.707602 0.038391 0.804105 0.0191955Q0.900607 0 0.999 0Z" transform="matrix(-4.371139E-08 -1 1 -4.371139E-08 18 35)" id="Rectangle-Copy-2" fill="#FFFFFF" fill-rule="evenodd" stroke="none" />
    <path d="M0.999 0L1.001 0Q1.09939 0 1.1959 0.0191955Q1.2924 0.038391 1.3833 0.0760443Q1.4742 0.113698 1.55601 0.168362Q1.63783 0.223026 1.7074 0.2926Q1.77697 0.362175 1.83164 0.443985Q1.8863 0.525796 1.92396 0.616699Q1.96161 0.707602 1.9808 0.804105Q2 0.900607 2 0.999L2 21.001Q2 21.0994 1.9808 21.1959Q1.96161 21.2924 1.92396 21.3833Q1.8863 21.4742 1.83164 21.556Q1.77697 21.6378 1.7074 21.7074Q1.63783 21.777 1.55601 21.8316Q1.4742 21.8863 1.3833 21.924Q1.2924 21.9616 1.1959 21.9808Q1.09939 22 1.001 22L0.999 22Q0.900607 22 0.804105 21.9808Q0.707602 21.9616 0.616699 21.924Q0.525796 21.8863 0.443985 21.8316Q0.362175 21.777 0.2926 21.7074Q0.223026 21.6378 0.168362 21.556Q0.113698 21.4742 0.0760443 21.3833Q0.038391 21.2924 0.0191955 21.1959Q0 21.0994 0 21.001L0 0.999Q0 0.900607 0.0191955 0.804105Q0.038391 0.707602 0.0760443 0.616699Q0.113698 0.525796 0.168362 0.443985Q0.223026 0.362175 0.2926 0.2926Q0.362175 0.223026 0.443985 0.168362Q0.525796 0.113698 0.616699 0.0760443Q0.707602 0.038391 0.804105 0.0191955Q0.900607 0 0.999 0Z" transform="matrix(-4.371139E-08 -1 1 -4.371139E-08 18 45)" id="Rectangle-Copy-3" fill="#FFFFFF" fill-rule="evenodd" stroke="none" />
    <path d="M0.999 0L1.001 0Q1.09939 0 1.1959 0.0191955Q1.2924 0.038391 1.3833 0.0760443Q1.4742 0.113698 1.55601 0.168362Q1.63783 0.223026 1.7074 0.2926Q1.77697 0.362175 1.83164 0.443985Q1.8863 0.525796 1.92396 0.616699Q1.96161 0.707602 1.9808 0.804105Q2 0.900607 2 0.999L2 15.001Q2 15.0994 1.9808 15.1959Q1.96161 15.2924 1.92396 15.3833Q1.8863 15.4742 1.83164 15.556Q1.77697 15.6378 1.7074 15.7074Q1.63783 15.777 1.55601 15.8316Q1.4742 15.8863 1.3833 15.924Q1.2924 15.9616 1.1959 15.9808Q1.09939 16 1.001 16L0.999 16Q0.900607 16 0.804105 15.9808Q0.707602 15.9616 0.616699 15.924Q0.525796 15.8863 0.443985 15.8316Q0.362175 15.777 0.2926 15.7074Q0.223026 15.6378 0.168362 15.556Q0.113698 15.4742 0.0760443 15.3833Q0.038391 15.2924 0.0191955 15.1959Q0 15.0994 0 15.001L0 0.999Q0 0.900607 0.0191955 0.804105Q0.038391 0.707602 0.0760443 0.616699Q0.113698 0.525796 0.168362 0.443985Q0.223026 0.362175 0.2926 0.2926Q0.362175 0.223026 0.443985 0.168362Q0.525796 0.113698 0.616699 0.0760443Q0.707602 0.038391 0.804105 0.0191955Q0.900607 0 0.999 0Z" transform="matrix(-4.371139E-08 -1 1 -4.371139E-08 18 50)" id="Rectangle-Copy-4" fill="#FFFFFF" fill-rule="evenodd" stroke="none" />
    <path d="M0 0C0 0 3.66121 0.408708 4 4" transform="translate(55.90592 30.094082)" id="Path-17" fill="none" fill-rule="evenodd" stroke="#FFFFFF" stroke-width="2" stroke-linecap="round" />
  </g>
</svg>