<?xml version="1.0" encoding="UTF-8"?>
<svg width="40px" height="40px" viewBox="0 0 40 40" version="1.1" xmlns="http://www.w3.org/2000/svg" xmlns:xlink="http://www.w3.org/1999/xlink">
    <title>22B92849-5408-4AF1-9751-A31629769DAF@</title>
    <defs>
        <linearGradient x1="0%" y1="21.875%" x2="100%" y2="78.125%" id="linearGradient-1">
            <stop stop-color="#009EFF" offset="0%"></stop>
            <stop stop-color="#30CCC6" offset="100%"></stop>
        </linearGradient>
    </defs>
    <g id="Desktop" stroke="none" stroke-width="1" fill="none" fill-rule="evenodd">
        <g id="Service---graphic-design" transform="translate(-1042.000000, -2841.000000)" fill="url(#linearGradient-1)" fill-rule="nonzero">
            <g id="icon/code-copy-7" transform="translate(1042.000000, 2841.000000)">
                <path d="M38,5 C39.1045695,5 40,5.8954305 40,7 L40,33 C40,34.1045695 39.1045695,35 38,35 L2,35 C0.8954305,35 0,34.1045695 0,33 L0,7 C0,5.8954305 0.8954305,5 2,5 L38,5 Z M37,9.368 L20,19.7579186 L3,9.369 L3,32 L37,32 L37,9.368 Z M33.486,8 L6.513,8 L20,16.242 L33.486,8 Z" id="Combined-Shape"></path>
            </g>
        </g>
    </g>
</svg>