<?xml version="1.0" encoding="UTF-8"?>
<svg width="40px" height="40px" viewBox="0 0 40 40" version="1.1" xmlns="http://www.w3.org/2000/svg" xmlns:xlink="http://www.w3.org/1999/xlink">
    <title>68463C85-271C-4DB3-A650-1692D3C1BB0E@</title>
    <defs>
        <linearGradient x1="0%" y1="18%" x2="100%" y2="82%" id="linearGradient-1">
            <stop stop-color="#009EFF" offset="0%"></stop>
            <stop stop-color="#30CCC6" offset="100%"></stop>
        </linearGradient>
    </defs>
    <g id="Desktop" stroke="none" stroke-width="1" fill="none" fill-rule="evenodd">
        <g id="Service---graphic-design" transform="translate(-462.000000, -2841.000000)" fill="url(#linearGradient-1)" fill-rule="nonzero">
            <g id="icon/code-copy-5" transform="translate(462.000000, 2841.000000)">
                <path d="M29,4 C30.1045695,4 31,4.8954305 31,6 L31,16 L38,16 C39.1045695,16 40,16.8954305 40,18 L40,34 C40,35.1045695 39.1045695,36 38,36 L11,36 C9.8954305,36 9,35.1045695 9,34 L9,24 L2,24 C0.8954305,24 0,23.1045695 0,22 L0,6 C0,4.8954305 0.8954305,4 2,4 L29,4 Z M37,19 L12,19 L12,33 L37,33 L37,19 Z M25,27 L25,30 L15,30 L15,27 L25,27 Z M34,22 L34,25 L15,25 L15,22 L34,22 Z M28,7 L3,7 L3,21 L9,21 L9,18 C9,16.8954305 9.8954305,16 11,16 L28,16 L28,7 Z M17,10 L17,13 L14,13 L14,10 L17,10 Z" id="Combined-Shape"></path>
            </g>
        </g>
    </g>
</svg>