<?xml version="1.0" encoding="UTF-8"?>
<svg width="40px" height="40px" viewBox="0 0 40 40" version="1.1" xmlns="http://www.w3.org/2000/svg" xmlns:xlink="http://www.w3.org/1999/xlink">
    <title>8C68CE2E-FBA5-4681-9EB3-48D514D60366@</title>
    <defs>
        <linearGradient x1="0%" y1="0%" x2="100%" y2="100%" id="linearGradient-1">
            <stop stop-color="#009EFF" offset="0%"></stop>
            <stop stop-color="#30CCC6" offset="100%"></stop>
        </linearGradient>
    </defs>
    <g id="Desktop" stroke="none" stroke-width="1" fill="none" fill-rule="evenodd">
        <g id="Service---graphic-design" transform="translate(-462.000000, -2511.000000)" fill="url(#linearGradient-1)" fill-rule="nonzero">
            <g id="icon/code-copy-2" transform="translate(462.000000, 2511.000000)">
                <path d="M29.5,0 L29.4998748,0.0271209308 C29.9085533,0.0951276903 30.2890044,0.289004397 30.5857864,0.585786438 L39.4142136,9.41421356 C39.7109956,9.7109956 39.9048723,10.0914467 39.9728791,10.5001252 L40,10.5 L39.9998782,10.8063386 C39.9999594,10.8136971 40,10.82106 40,10.8284271 L40,38 C40,39.1045695 39.1045695,40 38,40 L12,40 C10.8954305,40 10,39.1045695 10,38 L10,34 L2,34 C0.8954305,34 1.3527075e-16,33.1045695 0,32 L0,24 C-1.3527075e-16,22.8954305 0.8954305,22 2,22 L10,22 L10,2 C10,0.8954305 10.8954305,2.02906125e-16 12,0 L29.5,0 Z M26.499,3 L13,3 L13,22 L32,22 C33.1045695,22 34,22.8954305 34,24 L34,32 C34,33.1045695 33.1045695,34 32,34 L13,34 L13,37 L37,37 L37,13.5 L28.5,13.5 C27.3954305,13.5 26.5,12.6045695 26.5,11.5 L26.499,3 Z M10,25 L3,25 L3,31 L6,31 L6,29 L8,29 L8,31 L10,31 L10,25 Z M31,25 L13,25 L13,31 L16,31 L16,29 L18,29 L18,31 L21,31 L21,29 L23,29 L23,31 L26,31 L26,29 L28,29 L28,31 L31,31 L31,25 Z M29.499,3.742 L29.499,10.5 L36.257,10.5 L29.499,3.742 Z" id="Combined-Shape"></path>
            </g>
        </g>
    </g>
</svg>