<?xml version="1.0" encoding="UTF-8"?>
<svg width="40px" height="40px" viewBox="0 0 40 40" version="1.1" xmlns="http://www.w3.org/2000/svg" xmlns:xlink="http://www.w3.org/1999/xlink">
    <title>17009BE9-11E8-47DB-8639-178BB25C99E3@</title>
    <defs>
        <linearGradient x1="21.875%" y1="0%" x2="78.125%" y2="100%" id="linearGradient-1">
            <stop stop-color="#009EFF" offset="0%"></stop>
            <stop stop-color="#30CCC6" offset="100%"></stop>
        </linearGradient>
    </defs>
    <g id="Desktop" stroke="none" stroke-width="1" fill="none" fill-rule="evenodd">
        <g id="Service---graphic-design" transform="translate(-1042.000000, -2676.000000)" fill="url(#linearGradient-1)" fill-rule="nonzero">
            <g id="icon/code-copy-6" transform="translate(1042.000000, 2676.000000)">
                <path d="M25,0 C26.1045695,-2.02906125e-16 27,0.8954305 27,2 L33,2 C34.1045695,2 35,2.8954305 35,4 L35,38 C35,39.1045695 34.1045695,40 33,40 L7,40 C5.8954305,40 5,39.1045695 5,38 L5,4 C5,2.8954305 5.8954305,2 7,2 L13,2 C13,0.8954305 13.8954305,2.02906125e-16 15,0 L25,0 Z M32,5 L27,5 C27,6.1045695 26.1045695,7 25,7 L15,7 C13.8954305,7 13,6.1045695 13,5 L8,5 L8,37 L32,37 L32,5 Z M28,23 L28,26 L12,26 L12,23 L28,23 Z M28,17 L28,20 L12,20 L12,17 L28,17 Z M28,11 L28,14 L12,14 L12,11 L28,11 Z" id="Combined-Shape"></path>
            </g>
        </g>
    </g>
</svg>