<?xml version="1.0" encoding="UTF-8"?>
<svg width="40px" height="40px" viewBox="0 0 40 40" version="1.1" xmlns="http://www.w3.org/2000/svg" xmlns:xlink="http://www.w3.org/1999/xlink">
    <title>0DF873D2-2185-4CA7-BD40-2F5F116A6567@</title>
    <defs>
        <linearGradient x1="0%" y1="49.382716%" x2="100%" y2="50.617284%" id="linearGradient-1">
            <stop stop-color="#009EFF" offset="0%"></stop>
            <stop stop-color="#30CCC6" offset="100%"></stop>
        </linearGradient>
        <linearGradient x1="0%" y1="0%" x2="100%" y2="100%" id="linearGradient-2">
            <stop stop-color="#009EFF" offset="0%"></stop>
            <stop stop-color="#30CCC6" offset="100%"></stop>
        </linearGradient>
    </defs>
    <g id="Desktop" stroke="none" stroke-width="1" fill="none" fill-rule="evenodd">
        <g id="Service---graphic-design" transform="translate(-462.000000, -3006.000000)">
            <g id="icon/code-copy-11" transform="translate(462.000000, 3006.000000)">
                <rect id="Rectangle" fill="url(#linearGradient-1)" x="13" y="0" width="27" height="3" rx="1.5"></rect>
                <path d="M38.5,37 C39.3284271,37 40,37.6715729 40,38.5 C40,39.3284271 39.3284271,40 38.5,40 L14.5,40 C13.6715729,40 13,39.3284271 13,38.5 C13,37.6715729 13.6715729,37 14.5,37 L38.5,37 Z M8,30 C9.1045695,30 10,30.8954305 10,32 L10,38 C10,39.1045695 9.1045695,40 8,40 L2,40 C0.8954305,40 0,39.1045695 0,38 L0,32 C0,30.8954305 0.8954305,30 2,30 L8,30 Z M7,33 L3,33 L3,37 L7,37 L7,33 Z M38.5,30 C39.3284271,30 40,30.6715729 40,31.5 C40,32.3284271 39.3284271,33 38.5,33 L14.5,33 C13.6715729,33 13,32.3284271 13,31.5 C13,30.6715729 13.6715729,30 14.5,30 L38.5,30 Z M25.5,22 C26.3284271,22 27,22.6715729 27,23.5 C27,24.3284271 26.3284271,25 25.5,25 L1.5,25 C0.671572875,25 1.01453063e-16,24.3284271 0,23.5 C-1.01453063e-16,22.6715729 0.671572875,22 1.5,22 L25.5,22 Z M38,15 C39.1045695,15 40,15.8954305 40,17 L40,23 C40,24.1045695 39.1045695,25 38,25 L32,25 C30.8954305,25 30,24.1045695 30,23 L30,17 C30,15.8954305 30.8954305,15 32,15 L38,15 Z M37,18 L33,18 L33,22 L37,22 L37,18 Z M25.5,15 C26.3284271,15 27,15.6715729 27,16.5 C27,17.3284271 26.3284271,18 25.5,18 L1.5,18 C0.671572875,18 1.01453063e-16,17.3284271 0,16.5 C-1.01453063e-16,15.6715729 0.671572875,15 1.5,15 L25.5,15 Z M38.5,7 C39.3284271,7 40,7.67157288 40,8.5 C40,9.32842712 39.3284271,10 38.5,10 L14.5,10 C13.6715729,10 13,9.32842712 13,8.5 C13,7.67157288 13.6715729,7 14.5,7 L38.5,7 Z M8,0 C9.1045695,0 10,0.8954305 10,2 L10,8 C10,9.1045695 9.1045695,10 8,10 L2,10 C0.8954305,10 0,9.1045695 0,8 L0,2 C0,0.8954305 0.8954305,0 2,0 L8,0 Z M7,3 L3,3 L3,7 L7,7 L7,3 Z" id="Combined-Shape" fill="url(#linearGradient-2)"></path>
            </g>
        </g>
    </g>
</svg>