<?xml version="1.0" encoding="UTF-8"?>
<svg width="40px" height="40px" viewBox="0 0 40 40" version="1.1" xmlns="http://www.w3.org/2000/svg" xmlns:xlink="http://www.w3.org/1999/xlink">
    <title>5F21911C-CBB6-4A82-A0EB-76F80F61E0A8@</title>
    <defs>
        <linearGradient x1="0%" y1="0%" x2="100%" y2="100%" id="linearGradient-1">
            <stop stop-color="#009EFF" offset="0%"></stop>
            <stop stop-color="#30CCC6" offset="100%"></stop>
        </linearGradient>
    </defs>
    <g id="Desktop" stroke="none" stroke-width="1" fill="none" fill-rule="evenodd">
        <g id="Service---graphic-design" transform="translate(-1042.000000, -2346.000000)" fill="url(#linearGradient-1)" fill-rule="nonzero">
            <g id="icon/code-copy" transform="translate(1042.000000, 2346.000000)">
                <path d="M6,40 L3,40 L3,29 L2,29 C0.8954305,29 0,28.1045695 0,27 L0,5 C0,3.8954305 0.8954305,3 2,3 L3,3 L3,0 L6,0 L6,3 L34,3 L34,0 L37,0 L37,3 L38,3 C39.1045695,3 40,3.8954305 40,5 L40,27 C40,28.1045695 39.1045695,29 38,29 L37,29 L37,40 L34,40 L34,29 L6,29 L6,40 Z M37,6 L3,6 L3,26 L37,26 L37,6 Z M20,19 L20,22 L7,22 L7,19 L20,19 Z M33,10 L33,13 L7,13 L7,10 L33,10 Z" id="Combined-Shape"></path>
            </g>
        </g>
    </g>
</svg>