<?xml version="1.0" encoding="UTF-8"?>
<svg width="40px" height="40px" viewBox="0 0 40 40" version="1.1" xmlns="http://www.w3.org/2000/svg" xmlns:xlink="http://www.w3.org/1999/xlink">
    <title>D319FF0C-8CF2-4742-8C98-D3AEE48190DD@</title>
    <defs>
        <linearGradient x1="0%" y1="7.69702503%" x2="100%" y2="92.302975%" id="linearGradient-1">
            <stop stop-color="#009EFF" offset="0%"></stop>
            <stop stop-color="#30CCC6" offset="100%"></stop>
        </linearGradient>
    </defs>
    <g id="Desktop" stroke="none" stroke-width="1" fill="none" fill-rule="evenodd">
        <g id="Service---graphic-design" transform="translate(-1042.000000, -3006.000000)" fill="url(#linearGradient-1)" fill-rule="nonzero">
            <g id="icon/code-copy-9" transform="translate(1042.000000, 3006.000000)">
                <path d="M3.20691657,8.3519006 C3.98386413,8.46071949 4.53933192,9.14293763 4.50559947,9.91105242 L4.49228017,10.0559615 L3.19678556,19.2966449 L19.7176216,35.8160579 C20.2723688,36.3708052 20.305001,37.2499532 19.8155181,37.8428652 L19.7176216,37.9505328 C19.1628743,38.5052801 18.2837263,38.5379123 17.6908142,38.0484294 L17.5831466,37.9505328 L-2.42472709e-13,20.3673862 L1.50285563,9.63726419 C1.61847571,8.8117574 2.38140978,8.23628052 3.20691657,8.3519006 Z M22.8600141,2.18943696 L39.410581,18.7400039 C40.196473,19.5258959 40.196473,20.8000785 39.410581,21.5859705 L25.8922398,35.1043117 C25.1063478,35.8902037 23.8321652,35.8902037 23.0462732,35.1043117 L6.50017846,18.558217 C6.05448972,18.1125282 5.84336275,17.4837676 5.92975063,16.8594167 L7.58217588,4.91684828 C7.70617842,4.02064503 8.41301453,3.31736658 9.30983207,3.19788775 L21.1712759,1.61764276 C21.7925155,1.5348779 22.4168501,1.74627295 22.8600141,2.18943696 Z M21.0754413,4.67523705 L10.4663894,6.08897095 L8.98719829,16.7777099 L24.4678335,32.2583451 L36.5631915,20.1629872 L21.0754413,4.67523705 Z M14.518274,9.95385789 C16.0900579,8.38207395 18.6384232,8.38207395 20.2102071,9.95385789 C21.7819911,11.5256418 21.7819911,14.0740071 20.2102071,15.645791 C18.6384232,17.217575 16.0900579,17.217575 14.518274,15.645791 C12.94649,14.0740071 12.94649,11.5256418 14.518274,9.95385789 Z M18.0757322,12.0883328 C17.6827862,11.6953868 17.0456949,11.6953868 16.6527489,12.0883328 C16.2598029,12.4812788 16.2598029,13.1183701 16.6527489,13.5113161 C17.0456949,13.9042621 17.6827862,13.9042621 18.0757322,13.5113161 C18.4686782,13.1183701 18.4686782,12.4812788 18.0757322,12.0883328 Z" id="Combined-Shape"></path>
            </g>
        </g>
    </g>
</svg>