<svg width="30" height="24" viewBox="0 0 30 24" fill="none" xmlns="http://www.w3.org/2000/svg">
<path fill-rule="evenodd" clip-rule="evenodd" d="M8 2C8 0.895431 8.89543 0 10 0H28C29.1046 0 30 0.895431 30 2C30 3.10457 29.1046 4 28 4H10C8.89543 4 8 3.10457 8 2ZM8 22C8 20.8954 8.89543 20 10 20H28C29.1046 20 30 20.8954 30 22C30 23.1046 29.1046 24 28 24H10C8.89543 24 8 23.1046 8 22ZM2 10C0.895431 10 0 10.8954 0 12C0 13.1046 0.89543 14 2 14H28C29.1046 14 30 13.1046 30 12C30 10.8954 29.1046 10 28 10H2Z" fill="white"/>
</svg>
