<?xml version="1.0" encoding="utf-8"?>
<svg width="378px" height="377px" viewBox="0 0 378 377" version="1.1" xmlns:xlink="http://www.w3.org/1999/xlink" xmlns="http://www.w3.org/2000/svg">
  <desc>Created with Lunacy</desc>
  <defs>
    <linearGradient x1="0" y1="0" x2="1" y2="1" id="gradient_1">
      <stop offset="0" stop-color="#009EFF" />
      <stop offset="1" stop-color="#30CCC6" />
    </linearGradient>
  </defs>
  <g id="Group-10" transform="translate(1 1)">
    <path d="M33.5 67C52.0015 67 67 52.0015 67 33.5C67 14.9985 52.0015 0 33.5 0C14.9985 0 0 14.9985 0 33.5C0 52.0015 14.9985 67 33.5 67Z" transform="matrix(-1 0 0 1 207 275)" id="Oval-Copy-5" fill="#F5F5F5" fill-rule="evenodd" stroke="none" />
    <path d="M12.7279 -1.72853e-06L12.75 65.4499M-2.18557e-08 14.158L189 14.158" transform="matrix(-1 0 0 1 189 309.34204)" id="Combined-Shape-Copy-5" fill="none" fill-rule="evenodd" stroke="#262332" stroke-width="2" stroke-linecap="round" />
    <g id="Group-9" transform="translate(159 0)">
      <path d="M47 0L0 0L12.9018 70L47 70L81.0973 70L94 0L47 0Z" transform="translate(17 160)" id="Fill-1" fill="#FFFFFF" fill-rule="evenodd" stroke="none" />
      <path d="M46.9995 0L0 0L12.9009 70L46.9995 70L81.0981 70L94 0L46.9995 0Z" transform="translate(17 160)" id="Stroke-2" fill="none" fill-rule="evenodd" stroke="#262332" stroke-width="2" stroke-linecap="round" />
      <path d="M56.7866 0C56.7866 0 57.5216 16.9004 59.7277 26.2634C61.9347 35.6264 50.0111 51.7671 49.7217 59.1096C49.4334 66.453 51.6385 81.584 45.0213 88.1194C38.4021 94.6568 33.2961 99.2326 30.355 109.23C27.4129 119.229 8.2534 127 8.2534 127C8.2534 127 0 113.661 0 106.398C0 99.1351 7.26424 85.2282 6.78237 73.5947C6.08644 56.8111 17.1177 48.1412 20.0597 39.3218C23.0018 30.5032 27.0044 17.6718 34.3585 13.3142C41.7117 8.95655 49.4334 5.56913 56.7866 0" transform="translate(61 33)" id="Fill-4" fill="url(#gradient_1)" fill-rule="evenodd" stroke="none" />
      <path d="M56.7866 0C56.7866 0 57.5216 16.9004 59.7277 26.2634C61.9347 35.6264 50.0111 51.7671 49.7217 59.1096C49.4334 66.453 51.6385 81.584 45.0213 88.1194C38.4021 94.6568 33.2961 99.2326 30.355 109.23C27.4129 119.229 8.2534 127 8.2534 127C8.2534 127 0 113.661 0 106.398C0 99.1351 7.26424 85.2282 6.78237 73.5947C6.08644 56.8111 17.1177 48.1412 20.0597 39.3218C23.0018 30.5032 27.0044 17.6718 34.3585 13.3142C41.7117 8.95655 49.4334 5.56913 56.7866 0Z" transform="translate(56 33)" id="Stroke-6" fill="none" fill-rule="evenodd" stroke="#262332" stroke-width="2" stroke-linecap="round" />
      <path d="M0 105C0 105 8.35735 57.2813 33 0" transform="translate(65 55)" id="Stroke-8" fill="none" fill-rule="evenodd" stroke="#262332" stroke-width="2" stroke-linecap="round" />
      <path d="M4.0175 0C4.0175 0 3.09865 21.2925 0.340151 33.0881C-2.41737 44.8846 12.4861 65.2191 12.848 74.4697C13.2099 83.7213 10.4514 102.783 18.724 111.017C26.9975 119.253 33.381 125.017 37.0583 137.613C40.7347 150.209 64.685 160 64.685 160C64.685 160 75 143.195 75 134.045C75 124.894 65.9211 107.374 66.5237 92.7179C67.393 71.5722 53.6035 60.6507 49.9261 49.5399C46.2497 38.4291 41.2451 22.2641 32.0536 16.7744C22.8612 11.2847 13.2099 7.01573 4.0175 0" transform="translate(5 0)" id="Fill-10" fill="url(#gradient_1)" fill-rule="evenodd" stroke="none" />
      <path d="M4.0175 0C4.0175 0 3.09865 21.2925 0.340151 33.0881C-2.41737 44.8846 12.4861 65.2191 12.848 74.4697C13.2099 83.7213 10.4514 102.783 18.724 111.017C26.9975 119.253 33.381 125.017 37.0583 137.613C40.7347 150.209 64.685 160 64.685 160C64.685 160 75 143.195 75 134.045C75 124.894 65.9211 107.374 66.5237 92.7179C67.393 71.5722 53.6035 60.6507 49.9261 49.5399C46.2497 38.4291 41.2451 22.2641 32.0536 16.7744C22.8612 11.2847 13.2099 7.01573 4.0175 0Z" id="Stroke-12" fill="none" fill-rule="evenodd" stroke="#262332" stroke-width="2" stroke-linecap="round" />
      <path d="M0 0C31.362 72.0111 42 132 42 132" transform="translate(22 28)" id="Stroke-14" fill="none" fill-rule="evenodd" stroke="#262332" stroke-width="2" stroke-linecap="round" />
      <path d="M10 6L0 0" transform="translate(50 131)" id="Stroke-16" fill="none" fill-rule="evenodd" stroke="#262332" stroke-width="2" stroke-linecap="round" />
      <path d="M20 8L0 0" transform="translate(27 86)" id="Stroke-18" fill="none" fill-rule="evenodd" stroke="#262332" stroke-width="2" stroke-linecap="round" />
      <path d="M9 3L0 0" transform="translate(22 47)" id="Stroke-20" fill="none" fill-rule="evenodd" stroke="#262332" stroke-width="2" stroke-linecap="round" />
      <path d="M0 11L4 0" transform="translate(37 54)" id="Stroke-22" fill="none" fill-rule="evenodd" stroke="#262332" stroke-width="2" stroke-linecap="round" />
      <path d="M0 9L5 0" transform="translate(55 107)" id="Stroke-24" fill="none" fill-rule="evenodd" stroke="#262332" stroke-width="2" stroke-linecap="round" />
      <path d="M0 0.5L80 0.5" transform="translate(29 170)" id="Stroke-28" fill="none" fill-rule="evenodd" stroke="#262332" stroke-width="2" stroke-linecap="round" />
      <path d="M69 0.5L0 0.5" transform="translate(30 225)" id="Stroke-32" fill="none" fill-rule="evenodd" stroke="#262332" stroke-width="2" stroke-linecap="round" />
    </g>
    <path d="M10 20C15.5228 20 20 15.5228 20 10C20 4.47715 15.5228 0 10 0C4.47715 0 0 4.47715 0 10C0 15.5228 4.47715 20 10 20Z" transform="translate(355.5 348.5)" id="Oval-Copy-6" fill="none" fill-rule="evenodd" stroke="#262332" stroke-width="2" stroke-linecap="round" />
    <path d="M182 0.5L0 0.5" transform="translate(179 230)" id="Path-15" fill="none" fill-rule="evenodd" stroke="#262332" stroke-width="2" stroke-linecap="round" />
  </g>
</svg>