<?xml version="1.0" encoding="UTF-8"?>
<svg width="40px" height="40px" viewBox="0 0 40 40" version="1.1" xmlns="http://www.w3.org/2000/svg" xmlns:xlink="http://www.w3.org/1999/xlink">
    <title>F8B6939A-8695-47DA-8CDA-271A98C7C57B</title>
    <defs>
        <linearGradient x1="11.5580501%" y1="0%" x2="88.4419499%" y2="100%" id="linearGradient-1">
            <stop stop-color="#009EFF" offset="0%"></stop>
            <stop stop-color="#30CCC6" offset="100%"></stop>
        </linearGradient>
    </defs>
    <g id="Desktop" stroke="none" stroke-width="1" fill="none" fill-rule="evenodd">
        <g id="Service---website" transform="translate(-1042.000000, -2162.000000)" fill="url(#linearGradient-1)">
            <g id="icon/code-copy" transform="translate(1042.000000, 2162.000000)">
                <path d="M19.997011,0.000420335947 C20.3553407,-0.00784297375 20.706711,0.112431351 20.9843182,0.339573119 L37.5339524,8.87404874 L37.4090334,10.4390492 C35.9473264,27.6801298 30.3023347,37.6531646 20.2976156,39.9619019 L20.5919575,39.8926692 C20.4431956,39.9524746 20.2840595,39.9888152 20.1201215,39.9982085 L20.0167744,39.9995265 C19.8025713,40.0078295 19.5936717,39.9697272 19.401995,39.8926692 L19.6963368,39.9619019 C9.69161776,37.6531646 4.04662606,27.6801298 2.58491901,10.4390492 L2.46,8.87404874 L19.0096342,0.339573119 C19.2875003,0.112219589 19.6392669,-0.00806714226 19.997011,0.000420335947 Z M19.997,3.207 L5.61261999,10.6233137 L5.62296642,10.7417491 C7.03086477,26.238151 11.8764198,34.8516239 19.997014,36.9473709 C28.0212529,34.8758745 32.8473189,26.4416722 34.3192448,11.2922438 L34.370986,10.7417491 L34.3813324,10.6233137 L19.997,3.207 Z M28.0550848,13.9337936 C28.6071312,14.4800817 28.6460105,15.3489522 28.168578,15.9406241 L28.0662064,16.0550848 L18.0864813,26.1400053 L12.926525,20.8530487 C12.3479026,20.2601849 12.3594475,19.3105076 12.9523114,18.7318851 C13.5081213,18.1894266 14.3775367,18.1656699 14.9608127,18.653324 L15.073475,18.7576715 L18.1,21.859 L25.9337936,13.9449152 C26.5165009,13.3560657 27.4662353,13.3510864 28.0550848,13.9337936 Z" id="Combined-Shape"></path>
            </g>
        </g>
    </g>
</svg>