<?xml version="1.0" encoding="UTF-8"?>
<svg width="40px" height="40px" viewBox="0 0 40 40" version="1.1" xmlns="http://www.w3.org/2000/svg" xmlns:xlink="http://www.w3.org/1999/xlink">
    <title>65422238-2505-482D-BFD8-B289C6F6C638</title>
    <defs>
        <linearGradient x1="28.875%" y1="0%" x2="71.125%" y2="100%" id="linearGradient-1">
            <stop stop-color="#009EFF" offset="0%"></stop>
            <stop stop-color="#30CCC6" offset="100%"></stop>
        </linearGradient>
    </defs>
    <g id="Desktop" stroke="none" stroke-width="1" fill="none" fill-rule="evenodd">
        <g id="Service---website" transform="translate(-482.000000, -2534.000000)" fill="url(#linearGradient-1)">
            <g id="icon/code-copy-2" transform="translate(482.000000, 2534.000000)">
                <path d="M31,0 C32.1045695,0 33,0.8954305 33,2 L33,38 C33,39.1045695 32.1045695,40 31,40 L9,40 C7.8954305,40 7,39.1045695 7,38 L7,2 C7,0.8954305 7.8954305,0 9,0 L31,0 Z M30,34.5 L10,34.5 L10,37 L30,37 L30,34.5 Z M30,3 L10,3 L10,31.5 L30,31.5 L30,3 Z M25,5.5 C25.8284271,5.5 26.5,6.17157288 26.5,7 C26.5,7.77969612 25.9051119,8.42044868 25.14446,8.49313342 L25,8.5 L15,8.5 C14.1715729,8.5 13.5,7.82842712 13.5,7 C13.5,6.22030388 14.0948881,5.57955132 14.85554,5.50686658 L15,5.5 L25,5.5 Z" id="Combined-Shape"></path>
            </g>
        </g>
    </g>
</svg>