<?xml version="1.0" encoding="UTF-8"?>
<svg width="40px" height="40px" viewBox="0 0 40 40" version="1.1" xmlns="http://www.w3.org/2000/svg" xmlns:xlink="http://www.w3.org/1999/xlink">
    <title>7A2E5FD3-3564-45B8-91F5-AEC5BFD5C3A4</title>
    <defs>
        <linearGradient x1="0%" y1="0%" x2="100%" y2="100%" id="linearGradient-1">
            <stop stop-color="#009EFF" offset="0%"></stop>
            <stop stop-color="#30CCC6" offset="100%"></stop>
        </linearGradient>
    </defs>
    <g id="Desktop" stroke="none" stroke-width="1" fill="none" fill-rule="evenodd">
        <g id="Service---website" transform="translate(-482.000000, -2906.000000)" fill="url(#linearGradient-1)">
            <g id="icon/code-copy-4" transform="translate(482.000000, 2906.000000)">
                <path d="M40,0 L40,27 L26.9908717,27.0011127 C26.7272764,34.2247926 20.7880742,40 13.5,40 C6.04415588,40 0,33.9558441 0,26.5 C0,19.2115896 5.77574026,13.2721756 12.999887,13.0090918 L13,0 L40,0 Z M13.0002034,16.0116856 C7.43329121,16.2725596 3,20.8685545 3,26.5 C3,32.2989899 7.70101013,37 13.5,37 C19.1311084,37 23.7268901,32.5672395 23.9882675,27.0007963 L13,27 Z M16.0005755,16.2995863 L16,24 L23.7006591,24.0004292 C22.7749578,20.209631 19.7912311,17.2256512 16.0005755,16.2995863 Z M37,3 L16,3 L16.0008748,13.2311921 C21.4517605,14.2522058 25.7483835,18.5491003 26.7689956,24.0001274 L37,24 L37,3 Z" id="Combined-Shape"></path>
            </g>
        </g>
    </g>
</svg>