<?xml version="1.0" encoding="UTF-8"?>
<svg width="40px" height="40px" viewBox="0 0 40 40" version="1.1" xmlns="http://www.w3.org/2000/svg" xmlns:xlink="http://www.w3.org/1999/xlink">
    <title>A2F7270D-54C9-474B-B8A3-21760706A66D</title>
    <defs>
        <linearGradient x1="11.1800583%" y1="0%" x2="88.8199417%" y2="100%" id="linearGradient-1">
            <stop stop-color="#009EFF" offset="0%"></stop>
            <stop stop-color="#30CCC6" offset="100%"></stop>
        </linearGradient>
    </defs>
    <g id="Desktop" stroke="none" stroke-width="1" fill="none" fill-rule="evenodd">
        <g id="Service---website" transform="translate(-1042.000000, -2906.000000)" fill="url(#linearGradient-1)">
            <g id="icon/code-copy-5" transform="translate(1042.000000, 2906.000000)">
                <path d="M19.9926994,0 C29.6022095,0 37.4395035,7.73052173 37.6124793,17.2994629 L37.6153988,17.6226994 L37.6153988,26.9785276 C37.6153988,29.0188434 36.0078954,30.6901066 33.9926379,30.7925681 L33.7963804,30.797546 L33.0134356,30.797546 L33.0141718,31.5797546 C33.0141718,34.8044591 30.5078032,37.4541478 27.3405811,37.6833059 L27.1185631,37.6953431 L26.8945399,37.6993865 L23.4939264,37.6991411 L23.4402788,37.8220924 C22.8739436,39.0095871 21.7269874,39.8343335 20.4052489,39.9777254 L20.19516,39.9946575 L19.9926994,40 C17.886567,40 16.173681,38.287114 16.173681,36.1809816 C16.173681,34.0748492 17.886567,32.3619632 19.9926994,32.3619632 C21.4140727,32.3619632 22.6886573,33.1496181 23.3463157,34.3558438 L23.4402788,34.5398708 L23.4939264,34.6620859 L26.8945399,34.6625767 C27.941215,34.6625767 28.8875503,34.132935 29.4483234,33.3048766 L29.5552527,33.1353546 L29.5866871,33.0758282 L29.4215719,33.0914716 L29.1951534,33.0981595 C27.1548376,33.0981595 25.4835744,31.4906562 25.3811129,29.4753987 L25.376135,29.2791411 L25.376135,19.9233129 C25.376135,17.8171805 27.089021,16.1042945 29.1951534,16.1042945 C30.6165267,16.1042945 31.8911113,16.8919494 32.5487697,18.0981751 L32.6427327,18.2822021 L32.6963804,18.4039264 L33.7963804,18.404908 C33.9714783,18.404908 34.1451458,18.4168698 34.316546,18.4404568 L34.5780982,18.4863804 L34.578589,17.6226994 C34.578589,9.78793591 28.3684489,3.37558285 20.6123285,3.04979988 L20.3012702,3.04002579 L19.9926994,3.03680982 C12.0534724,3.03680982 5.57483964,9.41365761 5.41002579,17.3141285 L5.40680982,17.6226994 L5.40607362,18.4863804 C5.52367869,18.4617175 5.63915124,18.442976 5.75446076,18.4297027 L5.92754895,18.4138373 L6.1890184,18.404908 L7.28680982,18.404908 L7.34266602,18.2822021 C7.90900114,17.0947073 9.05595734,16.269961 10.3776959,16.1265691 L10.5877848,16.1096369 L10.7902454,16.1042945 C12.8305612,16.1042945 14.5018244,17.7117978 14.6042859,19.7270553 L14.6092638,19.9233129 L14.6092638,29.2791411 C14.6092638,31.3852735 12.8963778,33.0981595 10.7902454,33.0981595 C9.36887208,33.0981595 8.09428746,32.3105046 7.43662907,31.1042789 L7.34266602,30.9202519 L7.28779141,30.797546 L6.1890184,30.797546 C4.21451926,30.797546 2.58564687,29.2920798 2.3897507,27.3684969 L2.37497795,27.1747852 L2.37,26.9785276 L2.37,17.6226994 C2.37,7.90521727 10.2752173,0 19.9926994,0 Z M19.9926994,35.398773 C19.5617152,35.398773 19.2104908,35.7499975 19.2104908,36.1809816 C19.2104908,36.6119657 19.5617152,36.9631902 19.9926994,36.9631902 C20.4236835,36.9631902 20.774908,36.6119657 20.774908,36.1809816 C20.774908,35.7499975 20.4236835,35.398773 19.9926994,35.398773 Z M10.7902454,19.1411043 C10.3924139,19.1411043 10.0625433,19.4403725 10.014148,19.8253944 L10.0080368,19.9233129 L10.0080368,29.2791411 C10.0080368,29.7101252 10.3592613,30.0613497 10.7902454,30.0613497 C11.1880769,30.0613497 11.5179475,29.7620815 11.5663428,29.3770596 L11.572454,29.2791411 L11.572454,19.9233129 C11.572454,19.4923287 11.2212295,19.1411043 10.7902454,19.1411043 Z M29.1951534,19.1411043 C28.7973219,19.1411043 28.4674513,19.4403725 28.419056,19.8253944 L28.4129448,19.9233129 L28.4129448,29.2791411 C28.4129448,29.7101252 28.7641692,30.0613497 29.1951534,30.0613497 C29.5929849,30.0613497 29.9228555,29.7620815 29.9712508,29.3770596 L29.977362,29.2791411 L29.977362,19.9233129 C29.977362,19.4923287 29.6261375,19.1411043 29.1951534,19.1411043 Z M6.9707362,21.4409816 L6.1890184,21.4417178 C5.79118689,21.4417178 5.4613163,21.740986 5.41292101,22.1260079 L5.40680982,22.2239264 L5.40680982,26.9785276 C5.40680982,27.3763591 5.70607798,27.7062297 6.09109994,27.754625 L6.1890184,27.7607362 L6.9707362,27.7604908 L6.9707362,21.4409816 Z M33.0134356,21.4409816 L33.0134356,27.7604908 L33.7963804,27.7607362 C34.1942119,27.7607362 34.5240825,27.461468 34.5724778,27.0764461 L34.578589,26.9785276 L34.578589,22.2239264 C34.578589,21.8260949 34.2793208,21.4962243 33.8942988,21.447829 L33.7963804,21.4417178 L33.0134356,21.4409816 Z" id="Combined-Shape"></path>
            </g>
        </g>
    </g>
</svg>