<?xml version="1.0" encoding="UTF-8"?>
<svg width="464px" height="238px" viewBox="0 0 464 238" version="1.1" xmlns="http://www.w3.org/2000/svg" xmlns:xlink="http://www.w3.org/1999/xlink">
    <title>E5FA1A90-7ABF-49FC-890A-D5A8CF15E67E</title>
    <g id="Desktop" stroke="none" stroke-width="1" fill="none" fill-rule="evenodd" stroke-linecap="round">
        <g id="Service---website" transform="translate(-1038.000000, -557.000000)" stroke="#FFFFFF" stroke-width="2">
            <g id="Group" transform="translate(1039.000000, 558.000000)">
                <path d="M91.1313096,236 C85.5366749,236 81,231.47279 81,225.887328 L81,10.1126717 C81,4.52721042 85.5366749,0 91.1313096,0 L451.86869,0 C457.463325,0 462,4.52721042 462,10.1126717 L462,225.887328 C462,231.47279 457.463325,236 451.86869,236 L91.1313096,236 Z" id="Fill-1"></path>
                <path d="M98.7714286,14 C100.85452,14 102.542857,15.5668277 102.542857,17.5 C102.542857,19.4331723 100.85452,21 98.7714286,21 C96.6883368,21 95,19.4331723 95,17.5 C95,15.5668277 96.6883368,14 98.7714286,14 Z M111.028571,14 C113.111663,14 114.8,15.5668277 114.8,17.5 C114.8,19.4331723 113.111663,21 111.028571,21 C108.94548,21 107.257143,19.4331723 107.257143,17.5 C107.257143,15.5668277 108.94548,14 111.028571,14 Z M124.228571,14 C126.311663,14 128,15.5668277 128,17.5 C128,19.4331723 126.311663,21 124.228571,21 C122.14548,21 120.457143,19.4331723 120.457143,17.5 C120.457143,15.5668277 122.14548,14 124.228571,14 Z" id="Combined-Shape"></path>
                <line x1="160.5" y1="21" x2="160.5" y2="222" id="Stroke-85"></line>
                <rect id="Rectangle" x="182" y="152" width="72" height="27" rx="2"></rect>
                <rect id="Rectangle-Copy-28" x="273" y="152" width="72" height="27" rx="2"></rect>
                <rect id="Rectangle-Copy-29" x="363" y="152" width="72" height="27" rx="2"></rect>
                <path d="M184,56 L431,56 C432.104569,56 433,56.8954305 433,58 L433,133 C433,134.104569 432.104569,135 431,135 L184,135 C182.895431,135 182,134.104569 182,133 L182,95.5 L182,95.5 L182,58 C182,56.8954305 182.895431,56 184,56 Z" id="Rectangle"></path>
                <g id="Group-6" transform="translate(0.000000, 54.000000)">
                    <rect id="Rectangle" x="0" y="0" width="121.393035" height="50.3949153" rx="2"></rect>
                    <rect id="Rectangle" x="10.4322139" y="10.459322" width="29.3998756" height="29.4762712" rx="2"></rect>
                    <line x1="51.2126866" y1="11.4101695" x2="101.338749" y2="11.4101695" id="Path-3"></line>
                    <line x1="51.2126866" y1="24.7220339" x2="101.338749" y2="24.7220339" id="Path-3-Copy"></line>
                    <line x1="51.2126866" y1="38.0338983" x2="80.6125622" y2="38.0338983" id="Path-3-Copy-2"></line>
                </g>
                <line x1="81" y1="33.5" x2="434" y2="33.5" id="Stroke-10"></line>
            </g>
        </g>
    </g>
</svg>