<?xml version="1.0" encoding="UTF-8"?>
<svg width="40px" height="40px" viewBox="0 0 40 40" version="1.1" xmlns="http://www.w3.org/2000/svg" xmlns:xlink="http://www.w3.org/1999/xlink">
    <title>CFA3D7C3-13FE-4AFF-AC2B-4ED2213C3EF6</title>
    <defs>
        <linearGradient x1="0%" y1="31.9986745%" x2="100%" y2="68.0013255%" id="linearGradient-1">
            <stop stop-color="#009EFF" offset="0%"></stop>
            <stop stop-color="#30CCC6" offset="100%"></stop>
        </linearGradient>
    </defs>
    <g id="Desktop" stroke="none" stroke-width="1" fill="none" fill-rule="evenodd">
        <g id="Service---website" transform="translate(-482.000000, -2162.000000)" fill="url(#linearGradient-1)">
            <g id="icon/code" transform="translate(482.000000, 2162.000000)">
                <path d="M24.0343982,8.09867363 C24.7630147,8.3762418 25.1500127,9.16026234 24.9471472,9.89695764 L24.9021368,10.0343982 L16.9021368,31.0343982 C16.6072206,31.8085532 15.7405672,32.197053 14.9664122,31.9021368 C14.2377958,31.6245687 13.8507977,30.8405481 14.0536633,30.1038528 L14.0986736,29.9664122 L22.0986736,8.96641224 C22.3935898,8.19225725 23.2602432,7.80375744 24.0343982,8.09867363 Z M11.0879207,10.4077043 C11.6534776,10.9399931 11.7141084,11.8076171 11.2516461,12.4110623 L11.1521737,12.5280514 L4.11987368,20 L11.1521737,27.4719573 C11.6844625,28.0375141 11.692447,28.9072174 11.1942944,29.481553 L11.0879207,29.5923043 C10.5223639,30.1245931 9.6526606,30.1325776 9.07832495,29.634425 L8.96757369,29.5280514 L3.19744231e-13,20 L8.96757369,10.4719573 C9.5353484,9.86869663 10.4846601,9.83992961 11.0879207,10.4077043 Z M28.9119573,10.4077043 C29.5152179,9.83992961 30.4645296,9.86869663 31.0323043,10.4719573 L31.0323043,10.4719573 L39.999878,20 L31.0323043,29.5280514 L30.921553,29.634425 C30.3472174,30.1325776 29.4775141,30.1245931 28.9119573,29.5923043 L28.9119573,29.5923043 L28.8055836,29.481553 C28.307431,28.9072174 28.3154155,28.0375141 28.8477043,27.4719573 L28.8477043,27.4719573 L35.8800043,20 L28.8477043,12.5280514 L28.7482319,12.4110623 C28.2857696,11.8076171 28.3464004,10.9399931 28.9119573,10.4077043 Z" id="Combined-Shape"></path>
            </g>
        </g>
    </g>
</svg>