<?xml version="1.0" encoding="UTF-8"?>
<svg width="40px" height="40px" viewBox="0 0 40 40" version="1.1" xmlns="http://www.w3.org/2000/svg" xmlns:xlink="http://www.w3.org/1999/xlink">
    <title>1CD4A4D3-28BB-4FD3-AC67-78FB4A41D065</title>
    <defs>
        <linearGradient x1="14.9529995%" y1="0%" x2="85.0470005%" y2="100%" id="linearGradient-1">
            <stop stop-color="#009EFF" offset="0%"></stop>
            <stop stop-color="#30CCC6" offset="100%"></stop>
        </linearGradient>
    </defs>
    <g id="Desktop" stroke="none" stroke-width="1" fill="none" fill-rule="evenodd">
        <g id="Service---website" transform="translate(-1042.000000, -2534.000000)" fill="url(#linearGradient-1)">
            <g id="icon/code-copy-3" transform="translate(1042.000000, 2534.000000)">
                <path d="M20.1241355,0.000457146288 C20.4218849,0.00472346675 20.770024,0.0477443021 21.1595479,0.150842168 C21.8522782,0.33419165 22.5326515,0.676622865 23.1563173,1.20762094 C23.278189,1.31117863 23.2425564,1.32042706 23.2654132,1.29709071 C23.9912255,0.556051572 25.2770781,-0.0941031016 26.7228403,0.0128573012 C28.7029716,0.160873763 30.7986094,1.51950806 30.3841699,3.33077166 L30.3395058,3.49665781 L28.629,9 L29.5652174,9 C30.3576259,9 31,9.67157288 31,10.5 C31,11.2796961 30.4309766,11.9204487 29.7033965,11.9931334 L29.5652174,12 L28.349,12 L34.9081436,21.7103037 C35.0965137,21.9931693 35.3221484,22.3854867 35.5544325,22.8763978 L35.6709869,23.1300193 L35.7877991,23.3997714 C37.1509131,26.6448213 37.1802849,30.2425194 34.9776118,33.7331151 C31.9995953,38.452909 27.6500266,39.9085837 21.1056082,39.9931293 L20.6937167,39.9966452 L19.2859499,39.9966452 C12.5178527,39.9678201 8.04849867,38.551238 5.00847872,33.7331763 C2.80576707,30.2425194 2.83513887,26.6448213 4.19825287,23.3997714 C4.51322847,22.6499357 4.83468434,22.0731908 5.07207818,21.7182007 L5.14797185,21.6081505 L11.635,12 L10.4347826,12 C9.64237405,12 9,11.3284271 9,10.5 C9,9.72030388 9.56902338,9.07955132 10.2966035,9.00686658 L10.4347826,9 L11.355,9 L9.64611276,3.49526007 C9.0947861,1.71427291 10.9781459,0.336062115 12.9035295,0.0528639304 L13.0840843,0.0295432708 L13.2644473,0.0127654528 C14.6248179,-0.0877935039 15.8427341,0.481814891 16.5867668,1.16733305 L16.7206387,1.29709071 L16.7319574,1.30731459 C16.7371168,1.30388828 16.7481142,1.27697634 16.8286168,1.20857176 C17.4737441,0.659301993 18.1770067,0.312673496 18.8901468,0.134340621 C19.2810612,0.0365857907 19.6267761,-0.000671616761 19.9107052,9.14546634e-06 L19.989,0.002 L20.1241355,0.000457146288 Z M24.728,12 L15.257,12 L7.61320559,23.3173259 C7.48674579,23.4950503 7.27563888,23.8557947 7.04950785,24.3641327 L6.96414044,24.5616087 C5.94932337,26.9774976 5.92816563,29.5690715 7.54561184,32.1322529 C9.83092455,35.7541955 13.2980054,36.9189572 18.8981543,36.9932292 L19.2923353,36.9966588 L20.6873313,36.9966588 C26.5261479,36.9718032 30.1019806,35.8384268 32.4404787,32.1321918 C34.0578863,29.5690715 34.0367286,26.9774976 33.0219115,24.5616087 C32.7931123,24.0169259 32.5706344,23.6154083 32.4094398,23.3713363 L32.3519719,23.2872175 L24.728,12 Z M21.48,15.682 L21.48,18.31 C22.956,18.472 24.36,18.976 25.422,19.66 L25.422,19.66 L24.18,22.27 C22.848,21.514 21.156,20.92 20.112,20.92 C19.32,20.92 18.798,21.208 18.798,21.784 C18.798,23.872 25.44,22.684 25.44,27.22 C25.44,29.434 23.748,30.73 21.48,31.036 L21.48,31.036 L21.48,33.79 L19.086,33.79 L19.086,31.018 C17.394,30.784 15.756,30.082 14.55,29.092 L14.55,29.092 L15.828,26.518 C17.124,27.634 19.086,28.426 20.4,28.426 C21.372,28.426 21.984,28.066 21.984,27.4 C21.984,25.258 15.342,26.554 15.342,22.09 C15.342,20.092 16.782,18.706 19.086,18.328 L19.086,18.328 L19.086,15.682 L21.48,15.682 Z M19.826548,2.99969204 C19.6140921,3.01007914 19.2790387,3.10912121 18.9114937,3.38277438 L18.7723173,3.4937471 L18.6034731,3.630383 C17.0825484,4.80043633 15.5334493,4.37237014 14.5774132,3.39627733 C14.5586621,3.37713281 14.4084761,3.26689444 14.2328989,3.17809114 C13.9778302,3.04908261 13.7232302,2.98703724 13.4868403,3.00451073 C13.3279411,3.01638858 13.1540196,3.05551086 12.987711,3.11300882 L12.8247784,3.17630354 L12.705826,3.23328402 L14.497,9 L25.488,9 L27.279826,3.23328402 L27.161316,3.17630669 C27.0555461,3.13046784 26.9430818,3.09148523 26.8306721,3.06198977 L26.6629421,3.02519083 L26.5003559,3.00459582 C26.2632237,2.98705238 26.0086247,3.04910878 25.7533596,3.17817629 C25.6654712,3.22261456 25.5838961,3.27243811 25.5219905,3.31350295 L25.4671361,3.35112436 L25.4086387,3.39627733 C24.4171939,4.40852173 22.787942,4.83139318 21.2126168,3.49279628 C20.9423636,3.26269922 20.6656141,3.12341143 20.3919496,3.05097886 C20.264661,3.01728855 20.1650076,3.00378166 20.1030865,3.00074336 L20.0638782,3.00027569 L19.826548,2.99969204 Z" id="Combined-Shape"></path>
            </g>
        </g>
    </g>
</svg>