<?xml version="1.0" encoding="UTF-8"?>
<svg width="30px" height="24px" viewBox="0 0 30 24" version="1.1" xmlns="http://www.w3.org/2000/svg" xmlns:xlink="http://www.w3.org/1999/xlink">
    <title>icon/menu</title>
    <g id="Symbols" stroke="none" stroke-width="1" fill="none" fill-rule="evenodd">
        <g id="header/primary-light" transform="translate(-1730.000000, -38.000000)" fill="#FFFFFF">
            <g id="icon/menu" transform="translate(1730.000000, 35.000000)">
                <path d="M28,23 C29.1045695,23 30,23.8954305 30,25 C30,26.1045695 29.1045695,27 28,27 L10,27 C8.8954305,27 8,26.1045695 8,25 C8,23.8954305 8.8954305,23 10,23 L28,23 Z M28,13 C29.1045695,13 30,13.8954305 30,15 C30,16.1045695 29.1045695,17 28,17 L2,17 C0.8954305,17 1.3527075e-16,16.1045695 0,15 C-1.3527075e-16,13.8954305 0.8954305,13 2,13 L28,13 Z M28,3 C29.1045695,3 30,3.8954305 30,5 C30,6.1045695 29.1045695,7 28,7 L10,7 C8.8954305,7 8,6.1045695 8,5 C8,3.8954305 8.8954305,3 10,3 L28,3 Z" id="Combined-Shape"></path>
            </g>
        </g>
    </g>
</svg>