<?xml version="1.0" encoding="utf-8"?>
<svg width="80px" height="75px" viewBox="0 0 80 75" version="1.1" xmlns:xlink="http://www.w3.org/1999/xlink" xmlns="http://www.w3.org/2000/svg">
  <desc>Created with Lunacy</desc>
  <defs>
    <linearGradient x1="0" y1="0" x2="1" y2="1" id="gradient_1">
      <stop offset="0" stop-color="#009EFF" />
      <stop offset="1" stop-color="#30CCC6" />
    </linearGradient>
    <path d="M1.999 0L22.001 0Q22.0992 0 22.1969 0.00962573Q22.2947 0.0192515 22.391 0.0384102Q22.4873 0.057569 22.5813 0.0860763Q22.6753 0.114584 22.766 0.152165Q22.8567 0.189746 22.9433 0.236039Q23.0299 0.282333 23.1116 0.336892Q23.1932 0.391452 23.2691 0.453752Q23.3451 0.516052 23.4145 0.585494Q23.4839 0.654935 23.5462 0.730848Q23.6085 0.806761 23.6631 0.888415Q23.7177 0.970069 23.764 1.05668Q23.8103 1.14329 23.8478 1.23402Q23.8854 1.32474 23.9139 1.41872Q23.9424 1.5127 23.9616 1.60901Q23.9807 1.70533 23.9904 1.80306Q24 1.9008 24 1.999L24 5.001Q24 5.0992 23.9904 5.19694Q23.9807 5.29467 23.9616 5.39099Q23.9424 5.4873 23.9139 5.58128Q23.8854 5.67525 23.8478 5.76598Q23.8103 5.85671 23.764 5.94332Q23.7177 6.02993 23.6631 6.11158Q23.6085 6.19324 23.5462 6.26915Q23.4839 6.34507 23.4145 6.41451Q23.3451 6.48395 23.2691 6.54625Q23.1932 6.60855 23.1116 6.66311Q23.0299 6.71767 22.9433 6.76396Q22.8567 6.81025 22.766 6.84783Q22.6753 6.88542 22.5813 6.91392Q22.4873 6.94243 22.391 6.96159Q22.2947 6.98075 22.1969 6.99037Q22.0992 7 22.001 7L1.999 7Q1.9008 7 1.80306 6.99037Q1.70533 6.98075 1.60901 6.96159Q1.5127 6.94243 1.41872 6.91392Q1.32474 6.88542 1.23402 6.84783Q1.14329 6.81025 1.05668 6.76396Q0.970069 6.71767 0.888415 6.66311Q0.806761 6.60855 0.730848 6.54625Q0.654935 6.48395 0.585494 6.41451Q0.516052 6.34506 0.453752 6.26915Q0.391452 6.19324 0.336892 6.11158Q0.282333 6.02993 0.236039 5.94332Q0.189746 5.85671 0.152165 5.76598Q0.114584 5.67525 0.0860763 5.58128Q0.057569 5.4873 0.0384102 5.39098Q0.0192515 5.29467 0.00962573 5.19694Q0 5.0992 0 5.001L0 1.999Q0 1.9008 0.00962573 1.80306Q0.0192515 1.70533 0.0384102 1.60901Q0.057569 1.5127 0.0860763 1.41872Q0.114584 1.32474 0.152165 1.23402Q0.189746 1.14329 0.236039 1.05668Q0.282333 0.970069 0.336892 0.888415Q0.391452 0.806761 0.453752 0.730848Q0.516052 0.654935 0.585494 0.585494Q0.654935 0.516052 0.730848 0.453752Q0.806761 0.391452 0.888415 0.336892Q0.970069 0.282333 1.05668 0.236039Q1.14329 0.189746 1.23402 0.152165Q1.32474 0.114584 1.41872 0.0860763Q1.5127 0.057569 1.60901 0.0384102Q1.70533 0.0192515 1.80306 0.00962573Q1.9008 0 1.999 0Z" transform="translate(28 68)" id="path_1" />
    <path d="M1.999 0L70.001 0Q70.0992 0 70.1969 0.00962573Q70.2947 0.0192515 70.391 0.0384102Q70.4873 0.057569 70.5813 0.0860763Q70.6753 0.114584 70.766 0.152165Q70.8567 0.189746 70.9433 0.236039Q71.0299 0.282333 71.1116 0.336892Q71.1932 0.391452 71.2691 0.453752Q71.3451 0.516052 71.4145 0.585494Q71.4839 0.654935 71.5462 0.730848Q71.6085 0.806761 71.6631 0.888415Q71.7177 0.970069 71.764 1.05668Q71.8103 1.14329 71.8478 1.23402Q71.8854 1.32474 71.9139 1.41872Q71.9424 1.5127 71.9616 1.60901Q71.9807 1.70533 71.9904 1.80306Q72 1.9008 72 1.999L72 49.001Q72 49.0992 71.9904 49.1969Q71.9807 49.2947 71.9616 49.391Q71.9424 49.4873 71.9139 49.5813Q71.8854 49.6753 71.8478 49.766Q71.8103 49.8567 71.764 49.9433Q71.7177 50.0299 71.6631 50.1116Q71.6085 50.1932 71.5462 50.2691Q71.4839 50.3451 71.4145 50.4145Q71.3451 50.4839 71.2691 50.5462Q71.1932 50.6085 71.1116 50.6631Q71.0299 50.7177 70.9433 50.764Q70.8567 50.8102 70.766 50.8478Q70.6753 50.8854 70.5813 50.9139Q70.4873 50.9424 70.391 50.9616Q70.2947 50.9807 70.1969 50.9904Q70.0992 51 70.001 51L1.999 51Q1.9008 51 1.80306 50.9904Q1.70533 50.9808 1.60901 50.9616Q1.5127 50.9424 1.41872 50.9139Q1.32474 50.8854 1.23402 50.8478Q1.14329 50.8103 1.05668 50.764Q0.970069 50.7177 0.888415 50.6631Q0.806761 50.6085 0.730848 50.5462Q0.654935 50.4839 0.585494 50.4145Q0.516052 50.3451 0.453752 50.2691Q0.391452 50.1932 0.336892 50.1116Q0.282333 50.0299 0.236039 49.9433Q0.189746 49.8567 0.152165 49.766Q0.114584 49.6753 0.0860763 49.5813Q0.057569 49.4873 0.0384102 49.391Q0.0192515 49.2947 0.00962573 49.1969Q0 49.0992 0 49.001L0 1.999Q0 1.9008 0.00962573 1.80306Q0.0192515 1.70533 0.0384102 1.60901Q0.057569 1.5127 0.0860763 1.41872Q0.114584 1.32474 0.152165 1.23402Q0.189746 1.14329 0.236039 1.05668Q0.282333 0.970069 0.336892 0.888415Q0.391452 0.806761 0.453752 0.730848Q0.516052 0.654935 0.585494 0.585494Q0.654935 0.516052 0.730848 0.453752Q0.806761 0.391452 0.888415 0.336892Q0.970069 0.282333 1.05668 0.236039Q1.14329 0.189746 1.23402 0.152165Q1.32474 0.114584 1.41872 0.0860763Q1.5127 0.057569 1.60901 0.0384102Q1.70533 0.0192515 1.80306 0.00962573Q1.9008 0 1.999 0Z" transform="translate(4 12)" id="path_2" />
    <path d="M1.999 0L8.001 0Q8.09921 0 8.19694 0.00962573Q8.29467 0.0192515 8.39098 0.0384102Q8.4873 0.057569 8.58128 0.0860763Q8.67525 0.114584 8.76598 0.152165Q8.85671 0.189746 8.94332 0.236039Q9.02993 0.282333 9.11158 0.336892Q9.19324 0.391452 9.26915 0.453752Q9.34507 0.516052 9.41451 0.585494Q9.48395 0.654935 9.54625 0.730848Q9.60855 0.806761 9.66311 0.888415Q9.71767 0.970069 9.76396 1.05668Q9.81025 1.14329 9.84783 1.23402Q9.88542 1.32474 9.91392 1.41872Q9.94243 1.5127 9.96159 1.60901Q9.98075 1.70533 9.99037 1.80306Q10 1.9008 10 1.999L10 7.001Q10 7.0992 9.99037 7.19694Q9.98075 7.29467 9.96159 7.39099Q9.94243 7.4873 9.91392 7.58128Q9.88542 7.67525 9.84783 7.76598Q9.81025 7.85671 9.76396 7.94332Q9.71767 8.02993 9.66311 8.11158Q9.60855 8.19324 9.54625 8.26915Q9.48395 8.34506 9.41451 8.41451Q9.34507 8.48395 9.26915 8.54625Q9.19324 8.60855 9.11158 8.66311Q9.02993 8.71767 8.94332 8.76396Q8.85671 8.81025 8.76598 8.84783Q8.67525 8.88542 8.58128 8.91392Q8.4873 8.94243 8.39098 8.96159Q8.29467 8.98075 8.19694 8.99037Q8.09921 9 8.001 9L1.999 9Q1.9008 9 1.80306 8.99037Q1.70533 8.98075 1.60901 8.96159Q1.5127 8.94243 1.41872 8.91392Q1.32474 8.88542 1.23402 8.84783Q1.14329 8.81025 1.05668 8.76396Q0.970069 8.71767 0.888415 8.66311Q0.806761 8.60855 0.730848 8.54625Q0.654935 8.48395 0.585494 8.41451Q0.516052 8.34506 0.453752 8.26915Q0.391452 8.19324 0.336892 8.11158Q0.282333 8.02993 0.236039 7.94332Q0.189746 7.85671 0.152165 7.76598Q0.114584 7.67525 0.0860763 7.58128Q0.057569 7.4873 0.0384102 7.39098Q0.0192515 7.29467 0.00962573 7.19694Q0 7.0992 0 7.001L0 1.999Q0 1.9008 0.00962573 1.80306Q0.0192515 1.70533 0.0384102 1.60901Q0.057569 1.5127 0.0860763 1.41872Q0.114584 1.32474 0.152165 1.23402Q0.189746 1.14329 0.236039 1.05668Q0.282333 0.970069 0.336892 0.888415Q0.391452 0.806761 0.453752 0.730848Q0.516052 0.654935 0.585494 0.585494Q0.654935 0.516052 0.730848 0.453752Q0.806761 0.391452 0.888415 0.336892Q0.970069 0.282333 1.05668 0.236039Q1.14329 0.189746 1.23402 0.152165Q1.32474 0.114584 1.41872 0.0860763Q1.5127 0.057569 1.60901 0.0384102Q1.70533 0.0192515 1.80306 0.00962573Q1.9008 0 1.999 0L1.999 0Z" transform="translate(35 61)" id="path_3" />
    <clipPath id="clip_1">
      <use xlink:href="#path_1" />
    </clipPath>
    <clipPath id="clip_2">
      <use xlink:href="#path_2" />
    </clipPath>
    <clipPath id="clip_3">
      <use xlink:href="#path_3" />
    </clipPath>
  </defs>
  <g id="icon/web-dev">
    <g id="Rectangle">
      <g clip-path="url(#clip_1)">
        <use xlink:href="#path_1" fill="none" stroke="#262332" stroke-width="4" stroke-linecap="round" />
      </g>
    </g>
    <g id="Rectangle-Copy">
      <g clip-path="url(#clip_2)">
        <use xlink:href="#path_2" fill="none" stroke="#262332" stroke-width="4" stroke-linecap="round" />
      </g>
    </g>
    <g id="Rectangle-Copy-14">
      <g clip-path="url(#clip_3)">
        <use xlink:href="#path_3" fill="none" stroke="#262332" stroke-width="4" stroke-linecap="round" />
      </g>
    </g>
    <path d="M1.999 0L78.001 0Q78.0992 0 78.1969 0.00962573Q78.2947 0.0192515 78.391 0.0384102Q78.4873 0.057569 78.5813 0.0860763Q78.6753 0.114584 78.766 0.152165Q78.8567 0.189746 78.9433 0.236039Q79.0299 0.282333 79.1116 0.336892Q79.1932 0.391452 79.2691 0.453752Q79.3451 0.516052 79.4145 0.585494Q79.4839 0.654935 79.5462 0.730848Q79.6085 0.806761 79.6631 0.888415Q79.7177 0.970069 79.764 1.05668Q79.8102 1.14329 79.8478 1.23402Q79.8854 1.32474 79.9139 1.41872Q79.9424 1.5127 79.9616 1.60901Q79.9807 1.70533 79.9904 1.80306Q80 1.9008 80 1.999L80 39.001Q80 39.0992 79.9904 39.1969Q79.9807 39.2947 79.9616 39.391Q79.9424 39.4873 79.9139 39.5813Q79.8854 39.6753 79.8478 39.766Q79.8102 39.8567 79.764 39.9433Q79.7177 40.0299 79.6631 40.1116Q79.6085 40.1932 79.5462 40.2691Q79.4839 40.3451 79.4145 40.4145Q79.3451 40.4839 79.2692 40.5462Q79.1932 40.6085 79.1116 40.6631Q79.0299 40.7177 78.9433 40.764Q78.8567 40.8102 78.766 40.8478Q78.6753 40.8854 78.5813 40.9139Q78.4873 40.9424 78.391 40.9616Q78.2947 40.9808 78.1969 40.9904Q78.0992 41 78.001 41L1.999 41Q1.9008 41 1.80306 40.9904Q1.70533 40.9808 1.60901 40.9616Q1.5127 40.9424 1.41872 40.9139Q1.32474 40.8854 1.23402 40.8478Q1.14329 40.8102 1.05668 40.764Q0.970069 40.7177 0.888415 40.6631Q0.806761 40.6085 0.730848 40.5462Q0.654935 40.4839 0.585494 40.4145Q0.516052 40.3451 0.453752 40.2691Q0.391452 40.1932 0.336892 40.1116Q0.282333 40.0299 0.236039 39.9433Q0.189746 39.8567 0.152165 39.766Q0.114584 39.6753 0.0860763 39.5813Q0.057569 39.4873 0.0384102 39.391Q0.0192515 39.2947 0.00962573 39.1969Q0 39.0992 0 39.001L0 1.999Q0 1.9008 0.00962573 1.80306Q0.0192515 1.70533 0.0384102 1.60901Q0.057569 1.5127 0.0860763 1.41872Q0.114584 1.32474 0.152165 1.23402Q0.189746 1.14329 0.236039 1.05668Q0.282333 0.970069 0.336892 0.888415Q0.391452 0.806761 0.453752 0.730848Q0.516052 0.654935 0.585494 0.585494Q0.654935 0.516052 0.730848 0.453752Q0.806761 0.391452 0.888415 0.336892Q0.970069 0.282333 1.05668 0.236039Q1.14329 0.189746 1.23402 0.152165Q1.32474 0.114584 1.41872 0.0860763Q1.5127 0.057569 1.60901 0.0384102Q1.70533 0.0192515 1.80306 0.00962573Q1.9008 0 1.999 0L1.999 0Z" transform="translate(0 17)" id="Rectangle-Copy" fill="url(#gradient_1)" fill-rule="evenodd" stroke="none" />
    <g id="Group" transform="translate(10 23)">
      <path d="M0.999 0L7.001 0Q7.09939 0 7.19589 0.0191955Q7.2924 0.038391 7.3833 0.0760443Q7.4742 0.113698 7.55601 0.168362Q7.63782 0.223026 7.7074 0.2926Q7.77697 0.362175 7.83164 0.443985Q7.8863 0.525796 7.92395 0.616699Q7.96161 0.707602 7.9808 0.804105Q8 0.900607 8 0.999L8 1.001Q8 1.09939 7.9808 1.1959Q7.96161 1.2924 7.92395 1.3833Q7.8863 1.4742 7.83164 1.55601Q7.77697 1.63783 7.7074 1.7074Q7.63782 1.77697 7.55601 1.83164Q7.4742 1.8863 7.3833 1.92396Q7.2924 1.96161 7.19589 1.9808Q7.09939 2 7.001 2L0.999 2Q0.900607 2 0.804105 1.9808Q0.707602 1.96161 0.616699 1.92396Q0.525796 1.8863 0.443985 1.83164Q0.362175 1.77697 0.2926 1.7074Q0.223026 1.63783 0.168362 1.55601Q0.113698 1.4742 0.0760443 1.3833Q0.038391 1.2924 0.0191955 1.1959Q0 1.09939 0 1.001L0 0.999Q0 0.900607 0.0191955 0.804105Q0.038391 0.707602 0.0760443 0.616699Q0.113698 0.525796 0.168362 0.443985Q0.223026 0.362175 0.2926 0.2926Q0.362175 0.223026 0.443985 0.168362Q0.525796 0.113698 0.616699 0.0760443Q0.707602 0.038391 0.804105 0.0191955Q0.900607 0 0.999 0Z" id="Rectangle" fill="#FFFFFF" fill-rule="evenodd" stroke="none" />
      <path d="M0.999 0L7.001 0Q7.09939 0 7.19589 0.0191955Q7.2924 0.038391 7.3833 0.0760443Q7.4742 0.113698 7.55601 0.168362Q7.63782 0.223026 7.7074 0.2926Q7.77697 0.362175 7.83164 0.443985Q7.8863 0.525796 7.92395 0.616699Q7.96161 0.707602 7.9808 0.804105Q8 0.900607 8 0.999L8 1.001Q8 1.09939 7.9808 1.1959Q7.96161 1.2924 7.92395 1.3833Q7.8863 1.4742 7.83164 1.55601Q7.77697 1.63783 7.7074 1.7074Q7.63782 1.77697 7.55601 1.83164Q7.4742 1.8863 7.3833 1.92396Q7.2924 1.96161 7.19589 1.9808Q7.09939 2 7.001 2L0.999 2Q0.900607 2 0.804105 1.9808Q0.707602 1.96161 0.616699 1.92396Q0.525796 1.8863 0.443985 1.83164Q0.362175 1.77697 0.2926 1.7074Q0.223026 1.63783 0.168362 1.55601Q0.113698 1.4742 0.0760443 1.3833Q0.038391 1.2924 0.0191955 1.1959Q0 1.09939 0 1.001L0 0.999Q0 0.900607 0.0191955 0.804105Q0.038391 0.707602 0.0760443 0.616699Q0.113698 0.525796 0.168362 0.443985Q0.223026 0.362175 0.2926 0.2926Q0.362175 0.223026 0.443985 0.168362Q0.525796 0.113698 0.616699 0.0760443Q0.707602 0.038391 0.804105 0.0191955Q0.900607 0 0.999 0Z" transform="translate(0 20)" id="Rectangle-Copy-10" fill="#FFFFFF" fill-rule="evenodd" stroke="none" />
      <path d="M0.999 0L7.001 0Q7.09939 0 7.19589 0.0191955Q7.2924 0.038391 7.3833 0.0760443Q7.4742 0.113698 7.55601 0.168362Q7.63782 0.223026 7.7074 0.2926Q7.77697 0.362175 7.83164 0.443985Q7.8863 0.525796 7.92395 0.616699Q7.96161 0.707602 7.9808 0.804105Q8 0.900607 8 0.999L8 1.001Q8 1.09939 7.9808 1.1959Q7.96161 1.2924 7.92395 1.3833Q7.8863 1.4742 7.83164 1.55601Q7.77697 1.63783 7.7074 1.7074Q7.63782 1.77697 7.55601 1.83164Q7.4742 1.8863 7.3833 1.92396Q7.2924 1.96161 7.19589 1.9808Q7.09939 2 7.001 2L0.999 2Q0.900607 2 0.804105 1.9808Q0.707602 1.96161 0.616699 1.92396Q0.525796 1.8863 0.443985 1.83164Q0.362175 1.77697 0.2926 1.7074Q0.223026 1.63783 0.168362 1.55601Q0.113698 1.4742 0.0760443 1.3833Q0.038391 1.2924 0.0191955 1.1959Q0 1.09939 0 1.001L0 0.999Q0 0.900607 0.0191955 0.804105Q0.038391 0.707602 0.0760443 0.616699Q0.113698 0.525796 0.168362 0.443985Q0.223026 0.362175 0.2926 0.2926Q0.362175 0.223026 0.443985 0.168362Q0.525796 0.113698 0.616699 0.0760443Q0.707602 0.038391 0.804105 0.0191955Q0.900607 0 0.999 0Z" transform="translate(4 28)" id="Rectangle-Copy-12" fill="#FFFFFF" fill-rule="evenodd" stroke="none" />
      <path d="M0.999 0L7.001 0Q7.09939 0 7.19589 0.0191955Q7.2924 0.038391 7.3833 0.0760443Q7.4742 0.113698 7.55601 0.168362Q7.63782 0.223026 7.7074 0.2926Q7.77697 0.362175 7.83164 0.443985Q7.8863 0.525796 7.92395 0.616699Q7.96161 0.707602 7.9808 0.804105Q8 0.900607 8 0.999L8 1.001Q8 1.09939 7.9808 1.1959Q7.96161 1.2924 7.92395 1.3833Q7.8863 1.4742 7.83164 1.55601Q7.77697 1.63783 7.7074 1.7074Q7.63782 1.77697 7.55601 1.83164Q7.4742 1.8863 7.3833 1.92396Q7.2924 1.96161 7.19589 1.9808Q7.09939 2 7.001 2L0.999 2Q0.900607 2 0.804105 1.9808Q0.707602 1.96161 0.616699 1.92396Q0.525796 1.8863 0.443985 1.83164Q0.362175 1.77697 0.2926 1.7074Q0.223026 1.63783 0.168362 1.55601Q0.113698 1.4742 0.0760443 1.3833Q0.038391 1.2924 0.0191955 1.1959Q0 1.09939 0 1.001L0 0.999Q0 0.900607 0.0191955 0.804105Q0.038391 0.707602 0.0760443 0.616699Q0.113698 0.525796 0.168362 0.443985Q0.223026 0.362175 0.2926 0.2926Q0.362175 0.223026 0.443985 0.168362Q0.525796 0.113698 0.616699 0.0760443Q0.707602 0.038391 0.804105 0.0191955Q0.900607 0 0.999 0Z" transform="translate(4 5)" id="Rectangle-Copy-3" fill="#FFFFFF" fill-rule="evenodd" stroke="none" />
      <path d="M0.999 0L7.001 0Q7.09939 0 7.19589 0.0191955Q7.2924 0.038391 7.3833 0.0760443Q7.4742 0.113698 7.55601 0.168362Q7.63782 0.223026 7.7074 0.2926Q7.77697 0.362175 7.83164 0.443985Q7.8863 0.525796 7.92395 0.616699Q7.96161 0.707602 7.9808 0.804105Q8 0.900607 8 0.999L8 1.001Q8 1.09939 7.9808 1.1959Q7.96161 1.2924 7.92395 1.3833Q7.8863 1.4742 7.83164 1.55601Q7.77697 1.63783 7.7074 1.7074Q7.63782 1.77697 7.55601 1.83164Q7.4742 1.8863 7.3833 1.92396Q7.2924 1.96161 7.19589 1.9808Q7.09939 2 7.001 2L0.999 2Q0.900607 2 0.804105 1.9808Q0.707602 1.96161 0.616699 1.92396Q0.525796 1.8863 0.443985 1.83164Q0.362175 1.77697 0.2926 1.7074Q0.223026 1.63783 0.168362 1.55601Q0.113698 1.4742 0.0760443 1.3833Q0.038391 1.2924 0.0191955 1.1959Q0 1.09939 0 1.001L0 0.999Q0 0.900607 0.0191955 0.804105Q0.038391 0.707602 0.0760443 0.616699Q0.113698 0.525796 0.168362 0.443985Q0.223026 0.362175 0.2926 0.2926Q0.362175 0.223026 0.443985 0.168362Q0.525796 0.113698 0.616699 0.0760443Q0.707602 0.038391 0.804105 0.0191955Q0.900607 0 0.999 0Z" transform="translate(4 10)" id="Rectangle-Copy-6" fill="#FFFFFF" fill-rule="evenodd" stroke="none" />
      <path d="M0.999 0L7.001 0Q7.09939 0 7.19589 0.0191955Q7.2924 0.038391 7.3833 0.0760443Q7.4742 0.113698 7.55601 0.168362Q7.63782 0.223026 7.7074 0.2926Q7.77697 0.362175 7.83164 0.443985Q7.8863 0.525796 7.92395 0.616699Q7.96161 0.707602 7.9808 0.804105Q8 0.900607 8 0.999L8 1.001Q8 1.09939 7.9808 1.1959Q7.96161 1.2924 7.92395 1.3833Q7.8863 1.4742 7.83164 1.55601Q7.77697 1.63783 7.7074 1.7074Q7.63782 1.77697 7.55601 1.83164Q7.4742 1.8863 7.3833 1.92396Q7.2924 1.96161 7.19589 1.9808Q7.09939 2 7.001 2L0.999 2Q0.900607 2 0.804105 1.9808Q0.707602 1.96161 0.616699 1.92396Q0.525796 1.8863 0.443985 1.83164Q0.362175 1.77697 0.2926 1.7074Q0.223026 1.63783 0.168362 1.55601Q0.113698 1.4742 0.0760443 1.3833Q0.038391 1.2924 0.0191955 1.1959Q0 1.09939 0 1.001L0 0.999Q0 0.900607 0.0191955 0.804105Q0.038391 0.707602 0.0760443 0.616699Q0.113698 0.525796 0.168362 0.443985Q0.223026 0.362175 0.2926 0.2926Q0.362175 0.223026 0.443985 0.168362Q0.525796 0.113698 0.616699 0.0760443Q0.707602 0.038391 0.804105 0.0191955Q0.900607 0 0.999 0Z" transform="translate(8 15)" id="Rectangle-Copy-7" fill="#FFFFFF" fill-rule="evenodd" stroke="none" />
      <path d="M0.999 0L7.001 0Q7.09939 0 7.19589 0.0191955Q7.2924 0.038391 7.3833 0.0760443Q7.4742 0.113698 7.55601 0.168362Q7.63782 0.223026 7.7074 0.2926Q7.77697 0.362175 7.83164 0.443985Q7.8863 0.525796 7.92395 0.616699Q7.96161 0.707602 7.9808 0.804105Q8 0.900607 8 0.999L8 1.001Q8 1.09939 7.9808 1.1959Q7.96161 1.2924 7.92395 1.3833Q7.8863 1.4742 7.83164 1.55601Q7.77697 1.63783 7.7074 1.7074Q7.63782 1.77697 7.55601 1.83164Q7.4742 1.8863 7.3833 1.92396Q7.2924 1.96161 7.19589 1.9808Q7.09939 2 7.001 2L0.999 2Q0.900607 2 0.804105 1.9808Q0.707602 1.96161 0.616699 1.92396Q0.525796 1.8863 0.443985 1.83164Q0.362175 1.77697 0.2926 1.7074Q0.223026 1.63783 0.168362 1.55601Q0.113698 1.4742 0.0760443 1.3833Q0.038391 1.2924 0.0191955 1.1959Q0 1.09939 0 1.001L0 0.999Q0 0.900607 0.0191955 0.804105Q0.038391 0.707602 0.0760443 0.616699Q0.113698 0.525796 0.168362 0.443985Q0.223026 0.362175 0.2926 0.2926Q0.362175 0.223026 0.443985 0.168362Q0.525796 0.113698 0.616699 0.0760443Q0.707602 0.038391 0.804105 0.0191955Q0.900607 0 0.999 0Z" transform="translate(34 5)" id="Rectangle-Copy-5" fill="#FFFFFF" fill-rule="evenodd" stroke="none" />
      <path d="M0.999 0L15.001 0Q15.0994 0 15.1959 0.0191955Q15.2924 0.038391 15.3833 0.0760443Q15.4742 0.113698 15.556 0.168362Q15.6378 0.223026 15.7074 0.2926Q15.777 0.362175 15.8316 0.443985Q15.8863 0.525796 15.924 0.616699Q15.9616 0.707602 15.9808 0.804105Q16 0.900607 16 0.999L16 1.001Q16 1.09939 15.9808 1.1959Q15.9616 1.2924 15.924 1.3833Q15.8863 1.4742 15.8316 1.55601Q15.777 1.63783 15.7074 1.7074Q15.6378 1.77697 15.556 1.83164Q15.4742 1.8863 15.3833 1.92396Q15.2924 1.96161 15.1959 1.9808Q15.0994 2 15.001 2L0.999 2Q0.900607 2 0.804105 1.9808Q0.707602 1.96161 0.616699 1.92396Q0.525796 1.8863 0.443985 1.83164Q0.362175 1.77697 0.2926 1.7074Q0.223026 1.63783 0.168362 1.55601Q0.113698 1.4742 0.0760443 1.3833Q0.038391 1.2924 0.0191955 1.1959Q0 1.09939 0 1.001L0 0.999Q0 0.900607 0.0191955 0.804105Q0.038391 0.707602 0.0760443 0.616699Q0.113698 0.525796 0.168362 0.443985Q0.223026 0.362175 0.2926 0.2926Q0.362175 0.223026 0.443985 0.168362Q0.525796 0.113698 0.616699 0.0760443Q0.707602 0.038391 0.804105 0.0191955Q0.900607 0 0.999 0Z" transform="translate(11 0)" id="Rectangle-Copy-2" fill="#FFFFFF" fill-rule="evenodd" stroke="none" />
      <path d="M0.999 0L15.001 0Q15.0994 0 15.1959 0.0191955Q15.2924 0.038391 15.3833 0.0760443Q15.4742 0.113698 15.556 0.168362Q15.6378 0.223026 15.7074 0.2926Q15.777 0.362175 15.8316 0.443985Q15.8863 0.525796 15.924 0.616699Q15.9616 0.707602 15.9808 0.804105Q16 0.900607 16 0.999L16 1.001Q16 1.09939 15.9808 1.1959Q15.9616 1.2924 15.924 1.3833Q15.8863 1.4742 15.8316 1.55601Q15.777 1.63783 15.7074 1.7074Q15.6378 1.77697 15.556 1.83164Q15.4742 1.8863 15.3833 1.92396Q15.2924 1.96161 15.1959 1.9808Q15.0994 2 15.001 2L0.999 2Q0.900607 2 0.804105 1.9808Q0.707602 1.96161 0.616699 1.92396Q0.525796 1.8863 0.443985 1.83164Q0.362175 1.77697 0.2926 1.7074Q0.223026 1.63783 0.168362 1.55601Q0.113698 1.4742 0.0760443 1.3833Q0.038391 1.2924 0.0191955 1.1959Q0 1.09939 0 1.001L0 0.999Q0 0.900607 0.0191955 0.804105Q0.038391 0.707602 0.0760443 0.616699Q0.113698 0.525796 0.168362 0.443985Q0.223026 0.362175 0.2926 0.2926Q0.362175 0.223026 0.443985 0.168362Q0.525796 0.113698 0.616699 0.0760443Q0.707602 0.038391 0.804105 0.0191955Q0.900607 0 0.999 0Z" transform="translate(11 20)" id="Rectangle-Copy-11" fill="#FFFFFF" fill-rule="evenodd" stroke="none" />
      <path d="M0.999 0L35.001 0Q35.0994 0 35.1959 0.0191955Q35.2924 0.038391 35.3833 0.0760443Q35.4742 0.113698 35.556 0.168362Q35.6378 0.223026 35.7074 0.2926Q35.777 0.362175 35.8316 0.443985Q35.8863 0.525796 35.924 0.616699Q35.9616 0.707602 35.9808 0.804105Q36 0.900607 36 0.999L36 1.001Q36 1.09939 35.9808 1.1959Q35.9616 1.2924 35.924 1.3833Q35.8863 1.4742 35.8316 1.55601Q35.777 1.63783 35.7074 1.7074Q35.6378 1.77697 35.556 1.83164Q35.4742 1.8863 35.3833 1.92396Q35.2924 1.96161 35.1959 1.9808Q35.0994 2 35.001 2L0.999 2Q0.900607 2 0.804105 1.9808Q0.707602 1.96161 0.616699 1.92396Q0.525796 1.8863 0.443985 1.83164Q0.362175 1.77697 0.2926 1.7074Q0.223026 1.63783 0.168362 1.55601Q0.113698 1.4742 0.0760443 1.3833Q0.038391 1.2924 0.0191955 1.1959Q0 1.09939 0 1.001L0 0.999Q0 0.900607 0.0191955 0.804105Q0.038391 0.707602 0.0760443 0.616699Q0.113698 0.525796 0.168362 0.443985Q0.223026 0.362175 0.2926 0.2926Q0.362175 0.223026 0.443985 0.168362Q0.525796 0.113698 0.616699 0.0760443Q0.707602 0.038391 0.804105 0.0191955Q0.900607 0 0.999 0Z" transform="translate(15 28)" id="Rectangle-Copy-13" fill="#FFFFFF" fill-rule="evenodd" stroke="none" />
      <path d="M0.999 0L15.001 0Q15.0994 0 15.1959 0.0191955Q15.2924 0.038391 15.3833 0.0760443Q15.4742 0.113698 15.556 0.168362Q15.6378 0.223026 15.7074 0.2926Q15.777 0.362175 15.8316 0.443985Q15.8863 0.525796 15.924 0.616699Q15.9616 0.707602 15.9808 0.804105Q16 0.900607 16 0.999L16 1.001Q16 1.09939 15.9808 1.1959Q15.9616 1.2924 15.924 1.3833Q15.8863 1.4742 15.8316 1.55601Q15.777 1.63783 15.7074 1.7074Q15.6378 1.77697 15.556 1.83164Q15.4742 1.8863 15.3833 1.92396Q15.2924 1.96161 15.1959 1.9808Q15.0994 2 15.001 2L0.999 2Q0.900607 2 0.804105 1.9808Q0.707602 1.96161 0.616699 1.92396Q0.525796 1.8863 0.443985 1.83164Q0.362175 1.77697 0.2926 1.7074Q0.223026 1.63783 0.168362 1.55601Q0.113698 1.4742 0.0760443 1.3833Q0.038391 1.2924 0.0191955 1.1959Q0 1.09939 0 1.001L0 0.999Q0 0.900607 0.0191955 0.804105Q0.038391 0.707602 0.0760443 0.616699Q0.113698 0.525796 0.168362 0.443985Q0.223026 0.362175 0.2926 0.2926Q0.362175 0.223026 0.443985 0.168362Q0.525796 0.113698 0.616699 0.0760443Q0.707602 0.038391 0.804105 0.0191955Q0.900607 0 0.999 0Z" transform="translate(15 5)" id="Rectangle-Copy-4" fill="#FFFFFF" fill-rule="evenodd" stroke="none" />
      <path d="M0.999 0L15.001 0Q15.0994 0 15.1959 0.0191955Q15.2924 0.038391 15.3833 0.0760443Q15.4742 0.113698 15.556 0.168362Q15.6378 0.223026 15.7074 0.2926Q15.777 0.362175 15.8316 0.443985Q15.8863 0.525796 15.924 0.616699Q15.9616 0.707602 15.9808 0.804105Q16 0.900607 16 0.999L16 1.001Q16 1.09939 15.9808 1.1959Q15.9616 1.2924 15.924 1.3833Q15.8863 1.4742 15.8316 1.55601Q15.777 1.63783 15.7074 1.7074Q15.6378 1.77697 15.556 1.83164Q15.4742 1.8863 15.3833 1.92396Q15.2924 1.96161 15.1959 1.9808Q15.0994 2 15.001 2L0.999 2Q0.900607 2 0.804105 1.9808Q0.707602 1.96161 0.616699 1.92396Q0.525796 1.8863 0.443985 1.83164Q0.362175 1.77697 0.2926 1.7074Q0.223026 1.63783 0.168362 1.55601Q0.113698 1.4742 0.0760443 1.3833Q0.038391 1.2924 0.0191955 1.1959Q0 1.09939 0 1.001L0 0.999Q0 0.900607 0.0191955 0.804105Q0.038391 0.707602 0.0760443 0.616699Q0.113698 0.525796 0.168362 0.443985Q0.223026 0.362175 0.2926 0.2926Q0.362175 0.223026 0.443985 0.168362Q0.525796 0.113698 0.616699 0.0760443Q0.707602 0.038391 0.804105 0.0191955Q0.900607 0 0.999 0Z" transform="translate(15 10)" id="Rectangle-Copy-8" fill="#FFFFFF" fill-rule="evenodd" stroke="none" />
      <path d="M0.999 0L15.001 0Q15.0994 0 15.1959 0.0191955Q15.2924 0.038391 15.3833 0.0760443Q15.4742 0.113698 15.556 0.168362Q15.6378 0.223026 15.7074 0.2926Q15.777 0.362175 15.8316 0.443985Q15.8863 0.525796 15.924 0.616699Q15.9616 0.707602 15.9808 0.804105Q16 0.900607 16 0.999L16 1.001Q16 1.09939 15.9808 1.1959Q15.9616 1.2924 15.924 1.3833Q15.8863 1.4742 15.8316 1.55601Q15.777 1.63783 15.7074 1.7074Q15.6378 1.77697 15.556 1.83164Q15.4742 1.8863 15.3833 1.92396Q15.2924 1.96161 15.1959 1.9808Q15.0994 2 15.001 2L0.999 2Q0.900607 2 0.804105 1.9808Q0.707602 1.96161 0.616699 1.92396Q0.525796 1.8863 0.443985 1.83164Q0.362175 1.77697 0.2926 1.7074Q0.223026 1.63783 0.168362 1.55601Q0.113698 1.4742 0.0760443 1.3833Q0.038391 1.2924 0.0191955 1.1959Q0 1.09939 0 1.001L0 0.999Q0 0.900607 0.0191955 0.804105Q0.038391 0.707602 0.0760443 0.616699Q0.113698 0.525796 0.168362 0.443985Q0.223026 0.362175 0.2926 0.2926Q0.362175 0.223026 0.443985 0.168362Q0.525796 0.113698 0.616699 0.0760443Q0.707602 0.038391 0.804105 0.0191955Q0.900607 0 0.999 0Z" transform="translate(19 15)" id="Rectangle-Copy-9" fill="#FFFFFF" fill-rule="evenodd" stroke="none" />
    </g>
  </g>
</svg>