<?xml version="1.0" encoding="utf-8"?>
<svg width="1920px" height="1288px" viewBox="0 0 1920 1288" version="1.1" xmlns:xlink="http://www.w3.org/1999/xlink" xmlns="http://www.w3.org/2000/svg">
  <desc>Created with Lunacy</desc>
  <g id="Group-12" transform="translate(0 1)">
    <path d="M0 0L1920 0L1920 1286L0 1286L0 0Z" id="Rectangle-Copy-7" fill="#F5F5F5" fill-rule="evenodd" stroke="none" />
    <path d="M27.5 55C42.6878 55 55 42.6878 55 27.5C55 12.3122 42.6878 0 27.5 0C12.3122 0 0 12.3122 0 27.5C0 42.6878 12.3122 55 27.5 55Z" transform="translate(310 1127)" id="Oval-Copy-3" fill="#FFFFFF" fill-rule="evenodd" stroke="none" />
    <path d="M10.7279 9.77218e-05L10.75 54.0001M0 11.3145L155 11.3144" transform="translate(326 1143)" id="Combined-Shape" fill="none" fill-rule="evenodd" stroke="#262332" stroke-width="2" stroke-linecap="round" />
    <path d="M1.999 0L71.001 0Q71.0992 0 71.1969 0.00962573Q71.2947 0.0192515 71.391 0.0384102Q71.4873 0.057569 71.5813 0.0860763Q71.6752 0.114584 71.766 0.152165Q71.8567 0.189746 71.9433 0.236039Q72.0299 0.282333 72.1116 0.336892Q72.1932 0.391452 72.2691 0.453752Q72.3451 0.516052 72.4145 0.585494Q72.4839 0.654935 72.5462 0.730848Q72.6085 0.806761 72.6631 0.888415Q72.7177 0.970069 72.764 1.05668Q72.8102 1.14329 72.8478 1.23402Q72.8854 1.32474 72.9139 1.41872Q72.9424 1.5127 72.9616 1.60901Q72.9807 1.70533 72.9904 1.80306Q73 1.9008 73 1.999L73 71.001Q73 71.0992 72.9904 71.1969Q72.9807 71.2947 72.9616 71.391Q72.9424 71.4873 72.9139 71.5813Q72.8854 71.6752 72.8478 71.766Q72.8102 71.8567 72.764 71.9433Q72.7177 72.0299 72.6631 72.1116Q72.6085 72.1932 72.5462 72.2691Q72.4839 72.3451 72.4145 72.4145Q72.3451 72.4839 72.2691 72.5462Q72.1932 72.6085 72.1116 72.6631Q72.0299 72.7177 71.9433 72.764Q71.8567 72.8102 71.766 72.8478Q71.6752 72.8854 71.5813 72.9139Q71.4873 72.9424 71.391 72.9616Q71.2947 72.9807 71.1969 72.9904Q71.0992 73 71.001 73L1.999 73Q1.9008 73 1.80306 72.9904Q1.70533 72.9807 1.60901 72.9616Q1.5127 72.9424 1.41872 72.9139Q1.32474 72.8854 1.23402 72.8478Q1.14329 72.8102 1.05668 72.764Q0.970069 72.7177 0.888415 72.6631Q0.806761 72.6085 0.730848 72.5462Q0.654935 72.4839 0.585494 72.4145Q0.516052 72.3451 0.453752 72.2691Q0.391452 72.1932 0.336892 72.1116Q0.282333 72.0299 0.236039 71.9433Q0.189746 71.8567 0.152165 71.766Q0.114584 71.6752 0.0860763 71.5813Q0.057569 71.4873 0.0384102 71.391Q0.0192515 71.2947 0.00962573 71.1969Q0 71.0992 0 71.001L0 1.999Q0 1.9008 0.00962573 1.80306Q0.0192515 1.70533 0.0384102 1.60901Q0.057569 1.5127 0.0860763 1.41872Q0.114584 1.32474 0.152165 1.23402Q0.189746 1.14329 0.236039 1.05668Q0.282333 0.970069 0.336892 0.888415Q0.391452 0.806761 0.453752 0.730848Q0.516052 0.654935 0.585494 0.585494Q0.654935 0.516052 0.730848 0.453752Q0.806761 0.391452 0.888415 0.336892Q0.970069 0.282333 1.05668 0.236039Q1.14329 0.189746 1.23402 0.152165Q1.32474 0.114584 1.41872 0.0860763Q1.5127 0.057569 1.60901 0.0384102Q1.70533 0.0192515 1.80306 0.00962573Q1.9008 0 1.999 0L1.999 0Z" transform="translate(163 666)" id="Rectangle" fill="#FFFFFF" fill-rule="evenodd" stroke="none" />
    <path d="M16.5 33C25.6127 33 33 25.6127 33 16.5C33 7.3873 25.6127 0 16.5 0C7.3873 0 0 7.3873 0 16.5C0 25.6127 7.3873 33 16.5 33Z" transform="translate(146 722)" id="Oval-Copy-6" fill="none" fill-rule="evenodd" stroke="#262332" stroke-width="2" stroke-linecap="round" />
    <path d="M70 140C108.66 140 140 108.66 140 70C140 31.3401 108.66 0 70 0C31.3401 0 0 31.3401 0 70C0 108.66 31.3401 140 70 140Z" transform="translate(1614 852)" id="Oval" fill="#FFFFFF" fill-rule="evenodd" stroke="none" />
    <path d="M1.999 0L30.001 0Q30.0992 0 30.1969 0.00962573Q30.2947 0.0192515 30.391 0.0384102Q30.4873 0.057569 30.5813 0.0860763Q30.6753 0.114584 30.766 0.152165Q30.8567 0.189746 30.9433 0.236039Q31.0299 0.282333 31.1116 0.336892Q31.1932 0.391452 31.2692 0.453752Q31.3451 0.516052 31.4145 0.585494Q31.4839 0.654935 31.5462 0.730848Q31.6085 0.806761 31.6631 0.888415Q31.7177 0.970069 31.764 1.05668Q31.8103 1.14329 31.8478 1.23402Q31.8854 1.32474 31.9139 1.41872Q31.9424 1.5127 31.9616 1.60901Q31.9807 1.70533 31.9904 1.80306Q32 1.9008 32 1.999L32 30.001Q32 30.0992 31.9904 30.1969Q31.9807 30.2947 31.9616 30.391Q31.9424 30.4873 31.9139 30.5813Q31.8854 30.6753 31.8478 30.766Q31.8103 30.8567 31.764 30.9433Q31.7177 31.0299 31.6631 31.1116Q31.6085 31.1932 31.5462 31.2692Q31.4839 31.3451 31.4145 31.4145Q31.3451 31.4839 31.2692 31.5462Q31.1932 31.6085 31.1116 31.6631Q31.0299 31.7177 30.9433 31.764Q30.8567 31.8103 30.766 31.8478Q30.6753 31.8854 30.5813 31.9139Q30.4873 31.9424 30.391 31.9616Q30.2947 31.9807 30.1969 31.9904Q30.0992 32 30.001 32L1.999 32Q1.9008 32 1.80306 31.9904Q1.70533 31.9807 1.60901 31.9616Q1.5127 31.9424 1.41872 31.9139Q1.32474 31.8854 1.23402 31.8478Q1.14329 31.8103 1.05668 31.764Q0.970069 31.7177 0.888415 31.6631Q0.806761 31.6085 0.730848 31.5462Q0.654935 31.4839 0.585494 31.4145Q0.516052 31.3451 0.453752 31.2692Q0.391452 31.1932 0.336892 31.1116Q0.282333 31.0299 0.236039 30.9433Q0.189746 30.8567 0.152165 30.766Q0.114584 30.6753 0.0860763 30.5813Q0.057569 30.4873 0.0384102 30.391Q0.0192515 30.2947 0.00962573 30.1969Q0 30.0992 0 30.001L0 1.999Q0 1.9008 0.00962573 1.80306Q0.0192515 1.70533 0.0384102 1.60901Q0.057569 1.5127 0.0860763 1.41872Q0.114584 1.32474 0.152165 1.23402Q0.189746 1.14329 0.236039 1.05668Q0.282333 0.970069 0.336892 0.888415Q0.391452 0.806761 0.453752 0.730848Q0.516052 0.654935 0.585494 0.585494Q0.654935 0.516052 0.730848 0.453752Q0.806761 0.391452 0.888415 0.336892Q0.970069 0.282333 1.05668 0.236039Q1.14329 0.189746 1.23402 0.152165Q1.32474 0.114584 1.41872 0.0860763Q1.5127 0.057569 1.60901 0.0384102Q1.70533 0.0192515 1.80306 0.00962573Q1.9008 0 1.999 0L1.999 0Z" transform="translate(1614 852)" id="Rectangle" fill="none" fill-rule="evenodd" stroke="#262332" stroke-width="2" stroke-linecap="round" />
  </g>
</svg>